G04 #@! TF.FileFunction,Soldermask,Bot*
%FSLAX46Y46*%
G04 Gerber Fmt 4.6, Leading zero omitted, Abs format (unit mm)*
G04 Created by KiCad (PCBNEW 0.201603210401+6634~43~ubuntu14.04.1-product) date Mon 11 Apr 2016 10:26:04 AM EDT*
%MOMM*%
G01*
G04 APERTURE LIST*
%ADD10C,0.100000*%
%ADD11C,0.228600*%
%ADD12O,1.524000X2.540000*%
%ADD13C,1.930400*%
%ADD14O,4.572000X3.556000*%
%ADD15O,4.064000X5.080000*%
%ADD16O,5.080000X3.556000*%
%ADD17R,1.270000X2.540000*%
%ADD18O,5.080000X3.048000*%
%ADD19O,2.032000X1.524000*%
%ADD20O,1.524000X2.032000*%
%ADD21C,3.759200*%
%ADD22O,2.540000X1.524000*%
%ADD23O,1.651000X2.159000*%
%ADD24C,1.600200*%
%ADD25R,1.778000X4.191000*%
%ADD26R,2.997200X5.029200*%
%ADD27R,2.540000X1.270000*%
%ADD28R,2.550000X2.770000*%
%ADD29R,1.397000X2.489200*%
%ADD30R,1.800000X0.860000*%
%ADD31R,1.750000X2.650000*%
%ADD32R,2.540000X2.540000*%
%ADD33O,2.540000X2.540000*%
G04 APERTURE END LIST*
D10*
D11*
X211455000Y-75311000D02*
X93345000Y-75311000D01*
X211455000Y-130429000D02*
X211455000Y-75311000D01*
X93345000Y-130429000D02*
X211455000Y-130429000D01*
X93345000Y-75311000D02*
X93345000Y-130429000D01*
D12*
X103505000Y-113030000D03*
X100965000Y-113030000D03*
X106045000Y-113030000D03*
D13*
X208457800Y-102870000D03*
D14*
X204952600Y-102870000D03*
D15*
X199466200Y-102870000D03*
D16*
X206451200Y-98374200D03*
X206451200Y-107365800D03*
D17*
X199136000Y-108585000D03*
X202184000Y-108585000D03*
X106299000Y-108585000D03*
X103251000Y-108585000D03*
D18*
X99060000Y-107950000D03*
X99060000Y-97790000D03*
D19*
X105156000Y-102870000D03*
D20*
X107950000Y-102870000D03*
X107950000Y-100076000D03*
X107950000Y-105664000D03*
D21*
X111760000Y-127000000D03*
X113030000Y-78740000D03*
X194310000Y-127000000D03*
X187960000Y-78740000D03*
D12*
X125730000Y-127000000D03*
X128270000Y-127000000D03*
X130810000Y-127000000D03*
X133350000Y-127000000D03*
X135890000Y-127000000D03*
X138430000Y-127000000D03*
X140970000Y-127000000D03*
X143510000Y-127000000D03*
X148590000Y-127000000D03*
X151130000Y-127000000D03*
X153670000Y-127000000D03*
X156210000Y-127000000D03*
X158750000Y-127000000D03*
X161290000Y-127000000D03*
X163830000Y-127000000D03*
X166370000Y-127000000D03*
X171450000Y-127000000D03*
X173990000Y-127000000D03*
X176530000Y-127000000D03*
X179070000Y-127000000D03*
X181610000Y-127000000D03*
X184150000Y-127000000D03*
X186690000Y-127000000D03*
X189230000Y-127000000D03*
X116586000Y-78740000D03*
X119126000Y-78740000D03*
X121666000Y-78740000D03*
X124206000Y-78740000D03*
X126746000Y-78740000D03*
X129286000Y-78740000D03*
X131826000Y-78740000D03*
X134366000Y-78740000D03*
X136906000Y-78740000D03*
X139446000Y-78740000D03*
X143510000Y-78740000D03*
X161290000Y-78740000D03*
X158750000Y-78740000D03*
X156210000Y-78740000D03*
X153670000Y-78740000D03*
X151130000Y-78740000D03*
X148590000Y-78740000D03*
X146050000Y-78740000D03*
X166370000Y-78740000D03*
X168910000Y-78740000D03*
X171450000Y-78740000D03*
X173990000Y-78740000D03*
X176530000Y-78740000D03*
X179070000Y-78740000D03*
X181610000Y-78740000D03*
X184150000Y-78740000D03*
X191770000Y-78232000D03*
X194310000Y-78232000D03*
D22*
X191262000Y-81280000D03*
X194818000Y-81280000D03*
X191262000Y-83820000D03*
X194818000Y-83820000D03*
X191262000Y-86360000D03*
X194818000Y-86360000D03*
X191262000Y-88900000D03*
X194818000Y-88900000D03*
X191262000Y-91440000D03*
X194818000Y-91440000D03*
X191262000Y-93980000D03*
X194818000Y-93980000D03*
X191262000Y-96520000D03*
X194818000Y-96520000D03*
X191262000Y-99060000D03*
X194818000Y-99060000D03*
X191262000Y-101600000D03*
X194818000Y-101600000D03*
X191262000Y-104140000D03*
X194818000Y-104140000D03*
X191262000Y-106680000D03*
X194818000Y-106680000D03*
X191262000Y-109220000D03*
X194818000Y-109220000D03*
X191262000Y-111760000D03*
X194818000Y-111760000D03*
X191262000Y-114300000D03*
X194818000Y-114300000D03*
X191262000Y-116840000D03*
X194818000Y-116840000D03*
X191262000Y-119380000D03*
X194818000Y-119380000D03*
X191262000Y-121920000D03*
X194818000Y-121920000D03*
D23*
X200660000Y-113385600D03*
X205740000Y-113385600D03*
D24*
X99695000Y-90170000D03*
X99695000Y-80264000D03*
D25*
X206375000Y-86106000D03*
X203835000Y-86106000D03*
X201295000Y-86106000D03*
D24*
X208788000Y-82931000D03*
X198882000Y-82931000D03*
D26*
X209829400Y-79375000D03*
X197840600Y-79375000D03*
D24*
X205359000Y-80137000D03*
X205359000Y-90043000D03*
D25*
X201295000Y-119634000D03*
X203835000Y-119634000D03*
X206375000Y-119634000D03*
D24*
X198882000Y-122809000D03*
X208788000Y-122809000D03*
D26*
X197840600Y-126365000D03*
X209829400Y-126365000D03*
D24*
X207518000Y-124079000D03*
X200152000Y-124079000D03*
D17*
X100711000Y-117475000D03*
X103759000Y-117475000D03*
X129159000Y-122555000D03*
X126111000Y-122555000D03*
D20*
X147955000Y-93345000D03*
X147955000Y-98425000D03*
X133985000Y-93345000D03*
X133985000Y-98425000D03*
X128905000Y-93345000D03*
X128905000Y-98425000D03*
X114935000Y-93345000D03*
X114935000Y-98425000D03*
D19*
X199390000Y-93980000D03*
X204470000Y-93980000D03*
D27*
X119380000Y-108839000D03*
X119380000Y-105791000D03*
X143510000Y-106934000D03*
X143510000Y-103886000D03*
D28*
X112395000Y-110535000D03*
X112395000Y-104095000D03*
D29*
X159981900Y-114935000D03*
X154978100Y-114935000D03*
X179108100Y-114935000D03*
X184111900Y-114935000D03*
D30*
X124565000Y-116205000D03*
X124565000Y-114935000D03*
X124565000Y-113665000D03*
X124565000Y-112395000D03*
X124565000Y-111125000D03*
X124565000Y-109855000D03*
X124565000Y-108585000D03*
X124565000Y-107315000D03*
X124565000Y-106045000D03*
X124565000Y-104775000D03*
X138325000Y-104775000D03*
X138325000Y-106045000D03*
X138325000Y-107315000D03*
X138325000Y-108585000D03*
X138325000Y-109855000D03*
X138325000Y-111125000D03*
X138325000Y-112395000D03*
X138325000Y-113665000D03*
X138325000Y-114935000D03*
X138325000Y-116205000D03*
D31*
X143510000Y-96910000D03*
X143510000Y-101210000D03*
X143510000Y-85480000D03*
X143510000Y-89780000D03*
X138430000Y-96910000D03*
X138430000Y-101210000D03*
X138430000Y-85480000D03*
X138430000Y-89780000D03*
X124460000Y-96910000D03*
X124460000Y-101210000D03*
X124460000Y-85480000D03*
X124460000Y-89780000D03*
X119380000Y-96910000D03*
X119380000Y-101210000D03*
X119380000Y-85480000D03*
X119380000Y-89780000D03*
D27*
X157480000Y-109474000D03*
X157480000Y-106426000D03*
X181610000Y-106934000D03*
X181610000Y-103886000D03*
D28*
X150495000Y-111170000D03*
X150495000Y-104730000D03*
D31*
X157480000Y-85480000D03*
X157480000Y-89780000D03*
X157480000Y-96910000D03*
X157480000Y-101210000D03*
X162560000Y-85480000D03*
X162560000Y-89780000D03*
X162560000Y-96910000D03*
X162560000Y-101210000D03*
X176530000Y-85480000D03*
X176530000Y-89780000D03*
X176530000Y-96910000D03*
X176530000Y-101210000D03*
X181610000Y-85480000D03*
X181610000Y-89780000D03*
X181610000Y-96910000D03*
X181610000Y-101210000D03*
D20*
X153035000Y-93345000D03*
X153035000Y-98425000D03*
X167005000Y-93345000D03*
X167005000Y-98425000D03*
X172085000Y-93345000D03*
X172085000Y-98425000D03*
X186055000Y-93345000D03*
X186055000Y-98425000D03*
D29*
X121881900Y-114935000D03*
X116878100Y-114935000D03*
X141008100Y-114935000D03*
X146011900Y-114935000D03*
D17*
X154559000Y-122555000D03*
X151511000Y-122555000D03*
X179959000Y-122555000D03*
X176911000Y-122555000D03*
D30*
X162665000Y-116205000D03*
X162665000Y-114935000D03*
X162665000Y-113665000D03*
X162665000Y-112395000D03*
X162665000Y-111125000D03*
X162665000Y-109855000D03*
X162665000Y-108585000D03*
X162665000Y-107315000D03*
X162665000Y-106045000D03*
X162665000Y-104775000D03*
X176425000Y-104775000D03*
X176425000Y-106045000D03*
X176425000Y-107315000D03*
X176425000Y-108585000D03*
X176425000Y-109855000D03*
X176425000Y-111125000D03*
X176425000Y-112395000D03*
X176425000Y-113665000D03*
X176425000Y-114935000D03*
X176425000Y-116205000D03*
D32*
X176530000Y-93345000D03*
D33*
X181610000Y-93345000D03*
D32*
X157480000Y-93345000D03*
D33*
X162560000Y-93345000D03*
D32*
X119380000Y-93345000D03*
D33*
X124460000Y-93345000D03*
D32*
X138430000Y-93345000D03*
D33*
X143510000Y-93345000D03*
M02*
