M48
;DRILL file {KiCad 0.201603210401+6634~43~ubuntu14.04.1-product} date Mon 11 Apr 2016 10:26:08 AM EDT
;FORMAT={-:-/ absolute / inch / decimal}
FMAT,2
INCH,TZ
T1C0.025
T2C0.031
T3C0.035
T4C0.038
T5C0.039
T6C0.040
T7C0.047
T8C0.056
T9C0.063
T10C0.090
T11C0.106
T12C0.124
T13C0.130
%
G90
G05
M72
T1
X4.6375Y-3.7918
X4.8264Y-4.2547
X4.8306Y-3.9853
X4.8488Y-4.1942
X5.127Y-4.5587
X5.2975Y-3.3264
X5.352Y-3.2763
X5.5106Y-4.2389
X5.5138Y-3.5583
X5.5266Y-3.9853
X5.5445Y-4.2724
X5.7348Y-4.368
X5.8891Y-3.9853
X6.1685Y-4.543
X6.2946Y-3.875
X6.2989Y-4.2512
X6.3011Y-4.7378
X6.3122Y-3.4089
X6.349Y-4.2137
X6.3894Y-4.6131
X6.811Y-4.5445
X6.8211Y-3.5098
X6.925Y-4.6217
X7.0023Y-4.2196
X7.0746Y-4.2496
X7.124Y-4.6152
X7.1693Y-4.1456
X7.3Y-4.8
X7.7909Y-4.485
T2
X7.9Y-4.464
X8.1Y-4.464
T3
X4.15Y-4.05
X4.25Y-3.95
X4.25Y-4.05
X4.25Y-4.15
T4
X4.525Y-3.675
X4.525Y-3.875
X5.075Y-3.675
X5.075Y-3.875
X5.275Y-3.675
X5.275Y-3.875
X5.825Y-3.675
X5.825Y-3.875
X6.025Y-3.675
X6.025Y-3.875
X6.575Y-3.675
X6.575Y-3.875
X6.775Y-3.675
X6.775Y-3.875
X7.325Y-3.675
X7.325Y-3.875
X7.85Y-3.7
X8.05Y-3.7
T5
X3.975Y-4.45
X4.075Y-4.45
X4.175Y-4.45
T6
X4.59Y-3.1
X4.69Y-3.1
X4.79Y-3.1
X4.89Y-3.1
X4.95Y-5.
X4.99Y-3.1
X5.05Y-5.
X5.09Y-3.1
X5.15Y-5.
X5.19Y-3.1
X5.25Y-5.
X5.29Y-3.1
X5.35Y-5.
X5.39Y-3.1
X5.45Y-5.
X5.49Y-3.1
X5.55Y-5.
X5.65Y-3.1
X5.65Y-5.
X5.75Y-3.1
X5.85Y-3.1
X5.85Y-5.
X5.95Y-3.1
X5.95Y-5.
X6.05Y-3.1
X6.05Y-5.
X6.15Y-3.1
X6.15Y-5.
X6.25Y-3.1
X6.25Y-5.
X6.35Y-3.1
X6.35Y-5.
X6.45Y-5.
X6.55Y-3.1
X6.55Y-5.
X6.65Y-3.1
X6.75Y-3.1
X6.75Y-5.
X6.85Y-3.1
X6.85Y-5.
X6.95Y-3.1
X6.95Y-5.
X7.05Y-3.1
X7.05Y-5.
X7.15Y-3.1
X7.15Y-5.
X7.25Y-3.1
X7.25Y-5.
X7.35Y-5.
X7.45Y-5.
X7.55Y-3.1
X7.55Y-3.2
X7.55Y-3.3
X7.55Y-3.4
X7.55Y-3.5
X7.55Y-3.6
X7.55Y-3.7
X7.55Y-3.8
X7.55Y-3.9
X7.55Y-4.
X7.55Y-4.1
X7.55Y-4.2
X7.55Y-4.3
X7.55Y-4.4
X7.55Y-4.5
X7.55Y-4.6
X7.55Y-4.7
X7.55Y-4.8
X7.65Y-3.1
X7.65Y-3.2
X7.65Y-3.3
X7.65Y-3.4
X7.65Y-3.5
X7.65Y-3.6
X7.65Y-3.7
X7.65Y-3.8
X7.65Y-3.9
X7.65Y-4.
X7.65Y-4.1
X7.65Y-4.2
X7.65Y-4.3
X7.65Y-4.4
X7.65Y-4.5
X7.65Y-4.6
X7.65Y-4.7
X7.65Y-4.8
T7
X3.925Y-3.16
X3.925Y-3.55
X7.83Y-3.265
X7.83Y-4.835
X7.88Y-4.885
X8.085Y-3.155
X8.085Y-3.545
X8.17Y-4.885
X8.22Y-3.265
X8.22Y-4.835
T8
X4.7Y-3.675
X4.9Y-3.675
X5.45Y-3.675
X5.65Y-3.675
X6.2Y-3.675
X6.4Y-3.675
X6.95Y-3.675
X7.15Y-3.675
T9
X8.207Y-4.05
T10
X3.9Y-3.85
X3.9Y-4.25
T11
X8.089Y-4.05
X8.128Y-3.873
X8.128Y-4.227
T12
X7.853Y-4.05
T13
X4.4Y-5.
X4.45Y-3.1
X7.4Y-3.1
X7.65Y-5.
T0
M30
