G04 #@! TF.FileFunction,Copper,L1,Top,Signal*
%FSLAX46Y46*%
G04 Gerber Fmt 4.6, Leading zero omitted, Abs format (unit mm)*
G04 Created by KiCad (PCBNEW 0.201603210401+6634~43~ubuntu14.04.1-product) date Mon 11 Apr 2016 10:26:04 AM EDT*
%MOMM*%
G01*
G04 APERTURE LIST*
%ADD10C,0.100000*%
%ADD11C,0.228600*%
%ADD12O,1.524000X2.540000*%
%ADD13C,1.930400*%
%ADD14O,4.572000X3.556000*%
%ADD15O,4.064000X5.080000*%
%ADD16O,5.080000X3.556000*%
%ADD17O,5.080000X3.048000*%
%ADD18O,2.032000X1.524000*%
%ADD19O,1.524000X2.032000*%
%ADD20C,3.556000*%
%ADD21O,2.540000X1.524000*%
%ADD22O,1.651000X2.159000*%
%ADD23R,4.191000X1.778000*%
%ADD24C,1.397000*%
%ADD25R,4.826000X2.794000*%
%ADD26R,1.778000X4.191000*%
%ADD27R,2.794000X4.826000*%
%ADD28R,2.540000X2.540000*%
%ADD29O,2.540000X2.540000*%
%ADD30R,1.270000X3.175000*%
%ADD31C,0.889000*%
%ADD32C,1.016000*%
%ADD33C,0.406400*%
%ADD34C,0.812800*%
%ADD35C,0.508000*%
%ADD36C,0.203200*%
G04 APERTURE END LIST*
D10*
D11*
X211455000Y-75311000D02*
X93345000Y-75311000D01*
X211455000Y-130429000D02*
X211455000Y-75311000D01*
X93345000Y-130429000D02*
X211455000Y-130429000D01*
X93345000Y-75311000D02*
X93345000Y-130429000D01*
D12*
X103505000Y-113030000D03*
X100965000Y-113030000D03*
X106045000Y-113030000D03*
D13*
X208457800Y-102870000D03*
D14*
X204952600Y-102870000D03*
D15*
X199466200Y-102870000D03*
D16*
X206451200Y-98374200D03*
X206451200Y-107365800D03*
D17*
X99060000Y-107950000D03*
X99060000Y-97790000D03*
D18*
X105156000Y-102870000D03*
D19*
X107950000Y-102870000D03*
X107950000Y-100076000D03*
X107950000Y-105664000D03*
D20*
X111760000Y-127000000D03*
X113030000Y-78740000D03*
X194310000Y-127000000D03*
X187960000Y-78740000D03*
D12*
X125730000Y-127000000D03*
X128270000Y-127000000D03*
X130810000Y-127000000D03*
X133350000Y-127000000D03*
X135890000Y-127000000D03*
X138430000Y-127000000D03*
X140970000Y-127000000D03*
X143510000Y-127000000D03*
X148590000Y-127000000D03*
X151130000Y-127000000D03*
X153670000Y-127000000D03*
X156210000Y-127000000D03*
X158750000Y-127000000D03*
X161290000Y-127000000D03*
X163830000Y-127000000D03*
X166370000Y-127000000D03*
X171450000Y-127000000D03*
X173990000Y-127000000D03*
X176530000Y-127000000D03*
X179070000Y-127000000D03*
X181610000Y-127000000D03*
X184150000Y-127000000D03*
X186690000Y-127000000D03*
X189230000Y-127000000D03*
X116586000Y-78740000D03*
X119126000Y-78740000D03*
X121666000Y-78740000D03*
X124206000Y-78740000D03*
X126746000Y-78740000D03*
X129286000Y-78740000D03*
X131826000Y-78740000D03*
X134366000Y-78740000D03*
X136906000Y-78740000D03*
X139446000Y-78740000D03*
X143510000Y-78740000D03*
X161290000Y-78740000D03*
X158750000Y-78740000D03*
X156210000Y-78740000D03*
X153670000Y-78740000D03*
X151130000Y-78740000D03*
X148590000Y-78740000D03*
X146050000Y-78740000D03*
X166370000Y-78740000D03*
X168910000Y-78740000D03*
X171450000Y-78740000D03*
X173990000Y-78740000D03*
X176530000Y-78740000D03*
X179070000Y-78740000D03*
X181610000Y-78740000D03*
X184150000Y-78740000D03*
X191770000Y-78232000D03*
X194310000Y-78232000D03*
D21*
X191262000Y-81280000D03*
X194818000Y-81280000D03*
X191262000Y-83820000D03*
X194818000Y-83820000D03*
X191262000Y-86360000D03*
X194818000Y-86360000D03*
X191262000Y-88900000D03*
X194818000Y-88900000D03*
X191262000Y-91440000D03*
X194818000Y-91440000D03*
X191262000Y-93980000D03*
X194818000Y-93980000D03*
X191262000Y-96520000D03*
X194818000Y-96520000D03*
X191262000Y-99060000D03*
X194818000Y-99060000D03*
X191262000Y-101600000D03*
X194818000Y-101600000D03*
X191262000Y-104140000D03*
X194818000Y-104140000D03*
X191262000Y-106680000D03*
X194818000Y-106680000D03*
X191262000Y-109220000D03*
X194818000Y-109220000D03*
X191262000Y-111760000D03*
X194818000Y-111760000D03*
X191262000Y-114300000D03*
X194818000Y-114300000D03*
X191262000Y-116840000D03*
X194818000Y-116840000D03*
X191262000Y-119380000D03*
X194818000Y-119380000D03*
X191262000Y-121920000D03*
X194818000Y-121920000D03*
D22*
X200660000Y-113385600D03*
X205740000Y-113385600D03*
D23*
X102870000Y-87757000D03*
X102870000Y-85217000D03*
X102870000Y-82677000D03*
D24*
X99695000Y-90170000D03*
X99695000Y-80264000D03*
D25*
X96139000Y-91211400D03*
X96139000Y-79222600D03*
D24*
X208788000Y-82931000D03*
X198882000Y-82931000D03*
D23*
X202184000Y-82550000D03*
X202184000Y-85090000D03*
X202184000Y-87630000D03*
D24*
X205359000Y-80137000D03*
X205359000Y-90043000D03*
D25*
X208915000Y-79095600D03*
X208915000Y-91084400D03*
D24*
X198882000Y-122809000D03*
X208788000Y-122809000D03*
D26*
X205105000Y-120904000D03*
X202565000Y-120904000D03*
D24*
X207518000Y-124079000D03*
X200152000Y-124079000D03*
D27*
X208559400Y-127635000D03*
X199110600Y-127635000D03*
D19*
X147955000Y-93345000D03*
X147955000Y-98425000D03*
X133985000Y-93345000D03*
X133985000Y-98425000D03*
X128905000Y-93345000D03*
X128905000Y-98425000D03*
X114935000Y-93345000D03*
X114935000Y-98425000D03*
D18*
X199390000Y-93980000D03*
X204470000Y-93980000D03*
D19*
X153035000Y-93345000D03*
X153035000Y-98425000D03*
X167005000Y-93345000D03*
X167005000Y-98425000D03*
X172085000Y-93345000D03*
X172085000Y-98425000D03*
X186055000Y-93345000D03*
X186055000Y-98425000D03*
D28*
X176530000Y-93345000D03*
D29*
X181610000Y-93345000D03*
D28*
X157480000Y-93345000D03*
D29*
X162560000Y-93345000D03*
D28*
X119380000Y-93345000D03*
D29*
X124460000Y-93345000D03*
D28*
X138430000Y-93345000D03*
D29*
X143510000Y-93345000D03*
D30*
X127635000Y-117665500D03*
X130175000Y-113474500D03*
X125095000Y-113474500D03*
X122555000Y-117665500D03*
X120015000Y-113474500D03*
X153035000Y-117665500D03*
X155575000Y-113474500D03*
X150495000Y-113474500D03*
X147955000Y-117665500D03*
X145415000Y-113474500D03*
X178435000Y-117665500D03*
X180975000Y-113474500D03*
X175895000Y-113474500D03*
X173355000Y-117665500D03*
X170815000Y-113474500D03*
D31*
X185420000Y-121920000D03*
X160047500Y-120339000D03*
X140375500Y-101226800D03*
X149581900Y-101226800D03*
X122697800Y-101226800D03*
X162290100Y-117174000D03*
X182100700Y-105297800D03*
X173255300Y-89149100D03*
X175895000Y-117390800D03*
X145663500Y-110946200D03*
X179694900Y-107938900D03*
X173000100Y-115430700D03*
X197889800Y-113919000D03*
X122590700Y-108068400D03*
X123160500Y-106533000D03*
X139969600Y-107666800D03*
X140830000Y-108519900D03*
X130226700Y-115792200D03*
X156680800Y-115392200D03*
X180949100Y-117225500D03*
X161265000Y-107028400D03*
X159992700Y-107980200D03*
X177859500Y-107178900D03*
X159884000Y-98425000D03*
X160329300Y-86586300D03*
X140051400Y-90381300D03*
X134555900Y-84490100D03*
X117792300Y-96312600D03*
X135940900Y-83218300D03*
D32*
X185420000Y-123475700D02*
X185420000Y-121920000D01*
X202247900Y-105651700D02*
X199466200Y-102870000D01*
X202247900Y-120904000D02*
X202247900Y-105651700D01*
X202565000Y-120904000D02*
X202247900Y-120904000D01*
X163184200Y-123475700D02*
X160047500Y-120339000D01*
X196133200Y-123475700D02*
X185420000Y-123475700D01*
X185420000Y-123475700D02*
X163184200Y-123475700D01*
X198704900Y-120904000D02*
X196133200Y-123475700D01*
X202247900Y-120904000D02*
X198704900Y-120904000D01*
D33*
X140970000Y-125399800D02*
X138430000Y-125399800D01*
X140970000Y-127000000D02*
X140970000Y-125399800D01*
X138430000Y-127000000D02*
X138430000Y-125399800D01*
X120015000Y-113474500D02*
X120015000Y-112515600D01*
X120110800Y-112515600D02*
X120015000Y-112515600D01*
X125260700Y-117665500D02*
X120110800Y-112515600D01*
X127635000Y-117665500D02*
X125260700Y-117665500D01*
X116147800Y-112515600D02*
X109042200Y-105410000D01*
X120015000Y-112515600D02*
X116147800Y-112515600D01*
X107950000Y-105410000D02*
X109042200Y-105410000D01*
X102870000Y-85217000D02*
X105295700Y-85217000D01*
X202184000Y-85090000D02*
X204609700Y-85090000D01*
X204609700Y-89011600D02*
X204609700Y-85090000D01*
X202993600Y-90627700D02*
X204609700Y-89011600D01*
X202993600Y-98690100D02*
X202993600Y-90627700D01*
X205065300Y-100761800D02*
X202993600Y-98690100D01*
X205460600Y-100761800D02*
X205065300Y-100761800D01*
X205460600Y-102870000D02*
X205460600Y-100761800D01*
X205112700Y-104978200D02*
X205460600Y-104978200D01*
X203606000Y-106484900D02*
X205112700Y-104978200D01*
X203606000Y-113465800D02*
X203606000Y-106484900D01*
X205105000Y-114964800D02*
X203606000Y-113465800D01*
X205105000Y-120904000D02*
X205105000Y-114964800D01*
X205460600Y-102870000D02*
X205460600Y-104978200D01*
X107950000Y-87871300D02*
X105295700Y-85217000D01*
X107950000Y-100330000D02*
X107950000Y-87871300D01*
X153035000Y-117665500D02*
X153035000Y-117413300D01*
X121801000Y-100330000D02*
X122697800Y-101226800D01*
X107950000Y-100330000D02*
X121801000Y-100330000D01*
X140375500Y-101226800D02*
X122697800Y-101226800D01*
X140375500Y-101226800D02*
X149581900Y-101226800D01*
X145415000Y-113474500D02*
X145415000Y-115392200D01*
X145795600Y-120574200D02*
X140970000Y-125399800D01*
X145795600Y-115772800D02*
X145795600Y-120574200D01*
X151394500Y-115772800D02*
X145795600Y-115772800D01*
X153035000Y-117413300D02*
X151394500Y-115772800D01*
X145795600Y-115772800D02*
X145415000Y-115392200D01*
X200660000Y-113385600D02*
X199504300Y-113385600D01*
X170815000Y-113474500D02*
X170815000Y-114433300D01*
X177798800Y-118301700D02*
X178435000Y-117665500D01*
X175496500Y-118301700D02*
X177798800Y-118301700D01*
X174823900Y-117629100D02*
X175496500Y-118301700D01*
X174823900Y-116156500D02*
X174823900Y-117629100D01*
X173100700Y-114433300D02*
X174823900Y-116156500D01*
X170815000Y-114433300D02*
X173100700Y-114433300D01*
X162050800Y-117413300D02*
X153035000Y-117413300D01*
X162290100Y-117174000D02*
X162050800Y-117413300D01*
X168074300Y-117174000D02*
X162290100Y-117174000D01*
X170815000Y-114433300D02*
X168074300Y-117174000D01*
X178790300Y-118020800D02*
X178435000Y-117665500D01*
X181733200Y-118020800D02*
X178790300Y-118020800D01*
X184184000Y-115570000D02*
X181733200Y-118020800D01*
X192044600Y-115570000D02*
X184184000Y-115570000D01*
X192853400Y-114761200D02*
X192044600Y-115570000D01*
X192853400Y-113118900D02*
X192853400Y-114761200D01*
X199237600Y-113118900D02*
X192853400Y-113118900D01*
X199504300Y-113385600D02*
X199237600Y-113118900D01*
X189921800Y-113118900D02*
X182100700Y-105297800D01*
X192853400Y-113118900D02*
X189921800Y-113118900D01*
D34*
X105087300Y-117152300D02*
X100965000Y-113030000D01*
X109730800Y-117152300D02*
X105087300Y-117152300D01*
X121509200Y-128930700D02*
X109730800Y-117152300D01*
X143510000Y-128930700D02*
X121509200Y-128930700D01*
X143510000Y-127000000D02*
X143510000Y-128930700D01*
D33*
X191770000Y-114300000D02*
X189661800Y-114300000D01*
X105410000Y-102870000D02*
X106502200Y-102870000D01*
X106502200Y-103209500D02*
X106502200Y-102870000D01*
X107559700Y-104267000D02*
X106502200Y-103209500D01*
X110917300Y-104267000D02*
X107559700Y-104267000D01*
X115962800Y-109312500D02*
X110917300Y-104267000D01*
X176880400Y-109312500D02*
X115962800Y-109312500D01*
X179156000Y-107036900D02*
X176880400Y-109312500D01*
X182398700Y-107036900D02*
X179156000Y-107036900D01*
X189661800Y-114300000D02*
X182398700Y-107036900D01*
X102870000Y-87757000D02*
X100444300Y-87757000D01*
X161290000Y-78740000D02*
X161290000Y-80340200D01*
X100444300Y-84187400D02*
X100444300Y-87757000D01*
X100608900Y-84022800D02*
X100444300Y-84187400D01*
X117388100Y-84022800D02*
X100608900Y-84022800D01*
X118942200Y-82468700D02*
X117388100Y-84022800D01*
X159161500Y-82468700D02*
X118942200Y-82468700D01*
X161290000Y-80340200D02*
X159161500Y-82468700D01*
X157632400Y-81457800D02*
X158750000Y-80340200D01*
X106514900Y-81457800D02*
X157632400Y-81457800D01*
X105295700Y-82677000D02*
X106514900Y-81457800D01*
X102870000Y-82677000D02*
X105295700Y-82677000D01*
X158750000Y-78740000D02*
X158750000Y-80340200D01*
X178739800Y-87630000D02*
X171450000Y-80340200D01*
X202184000Y-87630000D02*
X178739800Y-87630000D01*
X171450000Y-78740000D02*
X171450000Y-80340200D01*
X176003300Y-82353500D02*
X173990000Y-80340200D01*
X197872000Y-82353500D02*
X176003300Y-82353500D01*
X198299000Y-81926500D02*
X197872000Y-82353500D01*
X201560500Y-81926500D02*
X198299000Y-81926500D01*
X202184000Y-82550000D02*
X201560500Y-81926500D01*
X173990000Y-78740000D02*
X173990000Y-80340200D01*
D32*
X176016900Y-89149100D02*
X173255300Y-89149100D01*
X179577700Y-92709900D02*
X176016900Y-89149100D01*
X179577700Y-93345000D02*
X179577700Y-92709900D01*
X181610000Y-93345000D02*
X179577700Y-93345000D01*
D34*
X125095000Y-113474500D02*
X125095000Y-115722700D01*
X135890000Y-119820900D02*
X135890000Y-127000000D01*
X132667700Y-119820900D02*
X135890000Y-119820900D01*
X129121500Y-116274700D02*
X132667700Y-119820900D01*
X129121500Y-115993800D02*
X129121500Y-116274700D01*
X128542500Y-115414800D02*
X129121500Y-115993800D01*
X126374600Y-115414800D02*
X128542500Y-115414800D01*
X126066700Y-115722700D02*
X126374600Y-115414800D01*
X125095000Y-115722700D02*
X126066700Y-115722700D01*
X175895000Y-117390800D02*
X175895000Y-115722700D01*
X175895000Y-113695500D02*
X175895000Y-115722700D01*
X175895000Y-113695500D02*
X175895000Y-113474500D01*
X175895000Y-111226300D02*
X150495000Y-111226300D01*
X150495000Y-113474500D02*
X150495000Y-111493100D01*
X150495000Y-111493100D02*
X150495000Y-111226300D01*
X150495000Y-111226300D02*
X145663500Y-111226300D01*
X145663500Y-110946200D02*
X145663500Y-111226300D01*
X144484600Y-111226300D02*
X135890000Y-119820900D01*
X145663500Y-111226300D02*
X144484600Y-111226300D01*
X175895000Y-113474500D02*
X175895000Y-111493100D01*
X175895000Y-111493100D02*
X175895000Y-111226300D01*
X176140700Y-111493100D02*
X179694900Y-107938900D01*
X175895000Y-111493100D02*
X176140700Y-111493100D01*
D33*
X173317200Y-115747800D02*
X173000100Y-115430700D01*
X173355000Y-115747800D02*
X173317200Y-115747800D01*
X173355000Y-117665500D02*
X173355000Y-115747800D01*
X147955000Y-117665500D02*
X147955000Y-119583200D01*
X196036000Y-115772800D02*
X197889800Y-113919000D01*
X193799700Y-115772800D02*
X196036000Y-115772800D01*
X193040000Y-116532500D02*
X193799700Y-115772800D01*
X193040000Y-117123500D02*
X193040000Y-116532500D01*
X191850700Y-118312800D02*
X193040000Y-117123500D01*
X189088900Y-118312800D02*
X191850700Y-118312800D01*
X187837200Y-119564500D02*
X189088900Y-118312800D01*
X167149300Y-119564500D02*
X187837200Y-119564500D01*
X166943800Y-119359000D02*
X167149300Y-119564500D01*
X157562400Y-119359000D02*
X166943800Y-119359000D01*
X157338200Y-119583200D02*
X157562400Y-119359000D01*
X147955000Y-119583200D02*
X157338200Y-119583200D01*
X122555000Y-117665500D02*
X122555000Y-115747800D01*
X184150000Y-78740000D02*
X184150000Y-77139800D01*
X171014100Y-77139800D02*
X184150000Y-77139800D01*
X170180000Y-77973900D02*
X171014100Y-77139800D01*
X170180000Y-82900000D02*
X170180000Y-77973900D01*
X159840200Y-93239800D02*
X170180000Y-82900000D01*
X159840200Y-94210400D02*
X159840200Y-93239800D01*
X152015800Y-102034800D02*
X159840200Y-94210400D01*
X122328900Y-102034800D02*
X152015800Y-102034800D01*
X121836100Y-101542000D02*
X122328900Y-102034800D01*
X104615100Y-101542000D02*
X121836100Y-101542000D01*
X103834700Y-102322400D02*
X104615100Y-101542000D01*
X103834700Y-103365600D02*
X103834700Y-102322400D01*
X116216900Y-115747800D02*
X103834700Y-103365600D01*
X122555000Y-115747800D02*
X116216900Y-115747800D01*
X191770000Y-91440000D02*
X189661800Y-91440000D01*
X122401400Y-107879100D02*
X122590700Y-108068400D01*
X122401400Y-106220200D02*
X122401400Y-107879100D01*
X123149400Y-105472200D02*
X122401400Y-106220200D01*
X149404200Y-105472200D02*
X123149400Y-105472200D01*
X159803800Y-95072600D02*
X149404200Y-105472200D01*
X186333500Y-95072600D02*
X159803800Y-95072600D01*
X189661800Y-91744300D02*
X186333500Y-95072600D01*
X189661800Y-91440000D02*
X189661800Y-91744300D01*
X194310000Y-91440000D02*
X193217800Y-91440000D01*
X149062300Y-106533000D02*
X123160500Y-106533000D01*
X159364800Y-96230500D02*
X149062300Y-106533000D01*
X186131300Y-96230500D02*
X159364800Y-96230500D01*
X189651800Y-92710000D02*
X186131300Y-96230500D01*
X192061000Y-92710000D02*
X189651800Y-92710000D01*
X193217800Y-91553200D02*
X192061000Y-92710000D01*
X193217800Y-91440000D02*
X193217800Y-91553200D01*
X191770000Y-93980000D02*
X189661800Y-93980000D01*
X149366300Y-107666800D02*
X139969600Y-107666800D01*
X160294300Y-96738800D02*
X149366300Y-107666800D01*
X186903000Y-96738800D02*
X160294300Y-96738800D01*
X189661800Y-93980000D02*
X186903000Y-96738800D01*
X193217800Y-94093200D02*
X193217800Y-93980000D01*
X192061000Y-95250000D02*
X193217800Y-94093200D01*
X190182800Y-95250000D02*
X192061000Y-95250000D01*
X189051200Y-96381600D02*
X190182800Y-95250000D01*
X189051200Y-97422200D02*
X189051200Y-96381600D01*
X185752700Y-100720700D02*
X189051200Y-97422200D01*
X165048500Y-100720700D02*
X185752700Y-100720700D01*
X157249300Y-108519900D02*
X165048500Y-100720700D01*
X140830000Y-108519900D02*
X157249300Y-108519900D01*
X194310000Y-93980000D02*
X193217800Y-93980000D01*
X130226700Y-115443900D02*
X130226700Y-115792200D01*
X130175000Y-115392200D02*
X130226700Y-115443900D01*
X130175000Y-113474500D02*
X130175000Y-115392200D01*
X155575000Y-113474500D02*
X155575000Y-115392200D01*
X155575000Y-115392200D02*
X156680800Y-115392200D01*
X180949100Y-115418100D02*
X180949100Y-117225500D01*
X180975000Y-115392200D02*
X180949100Y-115418100D01*
X180975000Y-113474500D02*
X180975000Y-115392200D01*
X191770000Y-96520000D02*
X189661800Y-96520000D01*
X165217800Y-103075600D02*
X161265000Y-107028400D01*
X184116800Y-103075600D02*
X165217800Y-103075600D01*
X189661800Y-97530600D02*
X184116800Y-103075600D01*
X189661800Y-96520000D02*
X189661800Y-97530600D01*
X194310000Y-96520000D02*
X193217800Y-96520000D01*
X173929700Y-107980200D02*
X159992700Y-107980200D01*
X178326000Y-103583900D02*
X173929700Y-107980200D01*
X184338100Y-103583900D02*
X178326000Y-103583900D01*
X190132000Y-97790000D02*
X184338100Y-103583900D01*
X192061000Y-97790000D02*
X190132000Y-97790000D01*
X193217800Y-96633200D02*
X192061000Y-97790000D01*
X193217800Y-96520000D02*
X193217800Y-96633200D01*
X191770000Y-99060000D02*
X189661800Y-99060000D01*
X180490200Y-104548200D02*
X177859500Y-107178900D01*
X184173600Y-104548200D02*
X180490200Y-104548200D01*
X189661800Y-99060000D02*
X184173600Y-104548200D01*
D35*
X133985000Y-98425000D02*
X135255300Y-98425000D01*
X153035000Y-98425000D02*
X147955000Y-98425000D01*
X146684700Y-98425000D02*
X135255300Y-98425000D01*
X147955000Y-98425000D02*
X146684700Y-98425000D01*
X167005000Y-98425000D02*
X165734700Y-98425000D01*
X133985000Y-98425000D02*
X128905000Y-98425000D01*
X128905000Y-98425000D02*
X114935000Y-98425000D01*
X159884000Y-98425000D02*
X165734700Y-98425000D01*
X205740000Y-113385600D02*
X207073800Y-113385600D01*
X209954300Y-110505100D02*
X207073800Y-113385600D01*
X209954300Y-97853600D02*
X209954300Y-110505100D01*
X206080700Y-93980000D02*
X209954300Y-97853600D01*
X204470000Y-93980000D02*
X206080700Y-93980000D01*
X186055000Y-98425000D02*
X172085000Y-98425000D01*
X172085000Y-98425000D02*
X167005000Y-98425000D01*
D33*
X161799400Y-77139800D02*
X134366000Y-77139800D01*
X162374800Y-77715200D02*
X161799400Y-77139800D01*
X162374800Y-84540800D02*
X162374800Y-77715200D01*
X160329300Y-86586300D02*
X162374800Y-84540800D01*
X134366000Y-78740000D02*
X134366000Y-77139800D01*
X134555900Y-84885800D02*
X134555900Y-84490100D01*
X140051400Y-90381300D02*
X134555900Y-84885800D01*
X117792300Y-96312500D02*
X117792300Y-96312600D01*
X119637800Y-96312500D02*
X117792300Y-96312500D01*
X122501800Y-93448500D02*
X119637800Y-96312500D01*
X122501800Y-92847600D02*
X122501800Y-93448500D01*
X132131100Y-83218300D02*
X122501800Y-92847600D01*
X135940900Y-83218300D02*
X132131100Y-83218300D01*
D36*
G36*
X211035900Y-77387829D02*
X206502000Y-77387829D01*
X206383073Y-77411485D01*
X206282252Y-77478852D01*
X206214885Y-77579673D01*
X206191229Y-77698600D01*
X206191229Y-79550563D01*
X205928066Y-79286939D01*
X205559444Y-79133874D01*
X205160307Y-79133526D01*
X204791419Y-79285948D01*
X204508939Y-79567934D01*
X204355874Y-79936556D01*
X204355526Y-80335693D01*
X204507948Y-80704581D01*
X204789934Y-80987061D01*
X205158556Y-81140126D01*
X205557693Y-81140474D01*
X205926581Y-80988052D01*
X206209061Y-80706066D01*
X206235504Y-80642385D01*
X206282252Y-80712348D01*
X206383073Y-80779715D01*
X206502000Y-80803371D01*
X211035900Y-80803371D01*
X211035900Y-89376629D01*
X206502000Y-89376629D01*
X206383073Y-89400285D01*
X206282252Y-89467652D01*
X206235657Y-89537386D01*
X206210052Y-89475419D01*
X205928066Y-89192939D01*
X205559444Y-89039874D01*
X205160307Y-89039526D01*
X204791419Y-89191948D01*
X204508939Y-89473934D01*
X204355874Y-89842556D01*
X204355526Y-90241693D01*
X204507948Y-90610581D01*
X204789934Y-90893061D01*
X205158556Y-91046126D01*
X205557693Y-91046474D01*
X205926581Y-90894052D01*
X206191229Y-90629867D01*
X206191229Y-92481400D01*
X206214885Y-92600327D01*
X206282252Y-92701148D01*
X206383073Y-92768515D01*
X206502000Y-92792171D01*
X211035900Y-92792171D01*
X211035900Y-130009900D01*
X210267171Y-130009900D01*
X210267171Y-125222000D01*
X210243515Y-125103073D01*
X210176148Y-125002252D01*
X210075327Y-124934885D01*
X209956400Y-124911229D01*
X208104437Y-124911229D01*
X208368061Y-124648066D01*
X208521126Y-124279444D01*
X208521474Y-123880307D01*
X208473781Y-123764883D01*
X208587556Y-123812126D01*
X208986693Y-123812474D01*
X209355581Y-123660052D01*
X209638061Y-123378066D01*
X209791126Y-123009444D01*
X209791474Y-122610307D01*
X209639052Y-122241419D01*
X209357066Y-121958939D01*
X208988444Y-121805874D01*
X208589307Y-121805526D01*
X208220419Y-121957948D01*
X207937939Y-122239934D01*
X207784874Y-122608556D01*
X207784526Y-123007693D01*
X207832219Y-123123117D01*
X207718444Y-123075874D01*
X207319307Y-123075526D01*
X206950419Y-123227948D01*
X206667939Y-123509934D01*
X206514874Y-123878556D01*
X206514526Y-124277693D01*
X206666948Y-124646581D01*
X206948934Y-124929061D01*
X207012615Y-124955504D01*
X206942652Y-125002252D01*
X206875285Y-125103073D01*
X206851629Y-125222000D01*
X206851629Y-130009900D01*
X200818371Y-130009900D01*
X200818371Y-125222000D01*
X200794715Y-125103073D01*
X200727348Y-125002252D01*
X200657614Y-124955657D01*
X200719581Y-124930052D01*
X201002061Y-124648066D01*
X201155126Y-124279444D01*
X201155474Y-123880307D01*
X201003052Y-123511419D01*
X200721066Y-123228939D01*
X200352444Y-123075874D01*
X199953307Y-123075526D01*
X199837883Y-123123219D01*
X199885126Y-123009444D01*
X199885474Y-122610307D01*
X199733052Y-122241419D01*
X199451066Y-121958939D01*
X199082444Y-121805874D01*
X199024391Y-121805823D01*
X199062614Y-121767600D01*
X201313434Y-121767600D01*
X201313434Y-122999500D01*
X201341033Y-123138248D01*
X201419627Y-123255873D01*
X201537252Y-123334467D01*
X201676000Y-123362066D01*
X203454000Y-123362066D01*
X203592748Y-123334467D01*
X203672773Y-123280996D01*
X203699206Y-123344811D01*
X203870689Y-123516294D01*
X204094743Y-123609100D01*
X204800200Y-123609100D01*
X204952600Y-123456700D01*
X204952600Y-121056400D01*
X205257400Y-121056400D01*
X205257400Y-123456700D01*
X205409800Y-123609100D01*
X206115257Y-123609100D01*
X206339311Y-123516294D01*
X206510794Y-123344811D01*
X206603600Y-123120757D01*
X206603600Y-121208800D01*
X206451200Y-121056400D01*
X205257400Y-121056400D01*
X204952600Y-121056400D01*
X204932600Y-121056400D01*
X204932600Y-120751600D01*
X204952600Y-120751600D01*
X204952600Y-118351300D01*
X205257400Y-118351300D01*
X205257400Y-120751600D01*
X206451200Y-120751600D01*
X206603600Y-120599200D01*
X206603600Y-118687243D01*
X206510794Y-118463189D01*
X206339311Y-118291706D01*
X206115257Y-118198900D01*
X205409800Y-118198900D01*
X205257400Y-118351300D01*
X204952600Y-118351300D01*
X204800200Y-118198900D01*
X204094743Y-118198900D01*
X203870689Y-118291706D01*
X203699206Y-118463189D01*
X203672773Y-118527004D01*
X203592748Y-118473533D01*
X203454000Y-118445934D01*
X203111500Y-118445934D01*
X203111500Y-105651700D01*
X203045762Y-105321215D01*
X203003256Y-105257600D01*
X202858558Y-105041043D01*
X201753995Y-103936481D01*
X201853800Y-103434728D01*
X201853800Y-103393265D01*
X202115045Y-103393265D01*
X202180425Y-103642896D01*
X202648549Y-104450525D01*
X203390106Y-105017534D01*
X204292200Y-105257600D01*
X204800200Y-105257600D01*
X204800200Y-103022400D01*
X202214602Y-103022400D01*
X202115045Y-103393265D01*
X201853800Y-103393265D01*
X201853800Y-102346735D01*
X202115045Y-102346735D01*
X202214602Y-102717600D01*
X204800200Y-102717600D01*
X204800200Y-100482400D01*
X204292200Y-100482400D01*
X203390106Y-100722466D01*
X202648549Y-101289475D01*
X202180425Y-102097104D01*
X202115045Y-102346735D01*
X201853800Y-102346735D01*
X201853800Y-102305272D01*
X201672055Y-101391577D01*
X201154488Y-100616984D01*
X200379895Y-100099417D01*
X199466200Y-99917672D01*
X198552505Y-100099417D01*
X197777912Y-100616984D01*
X197260345Y-101391577D01*
X197078600Y-102305272D01*
X197078600Y-103434728D01*
X197260345Y-104348423D01*
X197777912Y-105123016D01*
X198552505Y-105640583D01*
X199466200Y-105822328D01*
X200379895Y-105640583D01*
X200760893Y-105386008D01*
X201384300Y-106009415D01*
X201384300Y-111913548D01*
X201095065Y-111754642D01*
X201033753Y-111746024D01*
X200812400Y-111857986D01*
X200812400Y-113233200D01*
X200832400Y-113233200D01*
X200832400Y-113538000D01*
X200812400Y-113538000D01*
X200812400Y-114913214D01*
X201033753Y-115025176D01*
X201095065Y-115016558D01*
X201384300Y-114857652D01*
X201384300Y-118604998D01*
X201341033Y-118669752D01*
X201313434Y-118808500D01*
X201313434Y-120040400D01*
X198704900Y-120040400D01*
X198374415Y-120106138D01*
X198094243Y-120293343D01*
X196412743Y-121974843D01*
X196423652Y-121920000D01*
X196342447Y-121511753D01*
X196111194Y-121165658D01*
X195765099Y-120934405D01*
X195356852Y-120853200D01*
X194279148Y-120853200D01*
X193870901Y-120934405D01*
X193524806Y-121165658D01*
X193293553Y-121511753D01*
X193212348Y-121920000D01*
X193293553Y-122328247D01*
X193483217Y-122612100D01*
X192596783Y-122612100D01*
X192786447Y-122328247D01*
X192867652Y-121920000D01*
X192786447Y-121511753D01*
X192555194Y-121165658D01*
X192209099Y-120934405D01*
X191800852Y-120853200D01*
X190723148Y-120853200D01*
X190314901Y-120934405D01*
X189968806Y-121165658D01*
X189737553Y-121511753D01*
X189656348Y-121920000D01*
X189737553Y-122328247D01*
X189927217Y-122612100D01*
X186283600Y-122612100D01*
X186283600Y-121920000D01*
X186217862Y-121589515D01*
X186030657Y-121309343D01*
X185750485Y-121122138D01*
X185420000Y-121056400D01*
X185089515Y-121122138D01*
X184809343Y-121309343D01*
X184622138Y-121589515D01*
X184556400Y-121920000D01*
X184556400Y-122612100D01*
X163541915Y-122612100D01*
X160796814Y-119867000D01*
X166733380Y-119867000D01*
X166790090Y-119923710D01*
X166954897Y-120033831D01*
X167149300Y-120072500D01*
X187837200Y-120072500D01*
X188031603Y-120033831D01*
X188196410Y-119923710D01*
X189299320Y-118820800D01*
X189838416Y-118820800D01*
X189737553Y-118971753D01*
X189656348Y-119380000D01*
X189737553Y-119788247D01*
X189968806Y-120134342D01*
X190314901Y-120365595D01*
X190723148Y-120446800D01*
X191800852Y-120446800D01*
X192209099Y-120365595D01*
X192555194Y-120134342D01*
X192786447Y-119788247D01*
X192867652Y-119380000D01*
X193212348Y-119380000D01*
X193293553Y-119788247D01*
X193524806Y-120134342D01*
X193870901Y-120365595D01*
X194279148Y-120446800D01*
X195356852Y-120446800D01*
X195765099Y-120365595D01*
X196111194Y-120134342D01*
X196342447Y-119788247D01*
X196423652Y-119380000D01*
X196342447Y-118971753D01*
X196111194Y-118625658D01*
X195765099Y-118394405D01*
X195356852Y-118313200D01*
X194279148Y-118313200D01*
X193870901Y-118394405D01*
X193524806Y-118625658D01*
X193293553Y-118971753D01*
X193212348Y-119380000D01*
X192867652Y-119380000D01*
X192786447Y-118971753D01*
X192555194Y-118625658D01*
X192375997Y-118505923D01*
X193399210Y-117482710D01*
X193424713Y-117444542D01*
X193524806Y-117594342D01*
X193870901Y-117825595D01*
X194279148Y-117906800D01*
X195356852Y-117906800D01*
X195765099Y-117825595D01*
X196111194Y-117594342D01*
X196342447Y-117248247D01*
X196423652Y-116840000D01*
X196342447Y-116431753D01*
X196217465Y-116244704D01*
X196230403Y-116242131D01*
X196395210Y-116132010D01*
X197858946Y-114668274D01*
X198038191Y-114668430D01*
X198313690Y-114554596D01*
X198524656Y-114343999D01*
X198638970Y-114068699D01*
X198639230Y-113770609D01*
X198636744Y-113764591D01*
X199221364Y-113764591D01*
X199378706Y-114305619D01*
X199731113Y-114745251D01*
X200224935Y-115016558D01*
X200286247Y-115025176D01*
X200507600Y-114913214D01*
X200507600Y-113538000D01*
X199371923Y-113538000D01*
X199221364Y-113764591D01*
X198636744Y-113764591D01*
X198525396Y-113495110D01*
X198314799Y-113284144D01*
X198039499Y-113169830D01*
X197741409Y-113169570D01*
X197465910Y-113283404D01*
X197254944Y-113494001D01*
X197140630Y-113769301D01*
X197140472Y-113949908D01*
X196262533Y-114827847D01*
X196342447Y-114708247D01*
X196423652Y-114300000D01*
X196342447Y-113891753D01*
X196111194Y-113545658D01*
X195765099Y-113314405D01*
X195356852Y-113233200D01*
X194279148Y-113233200D01*
X193870901Y-113314405D01*
X193524806Y-113545658D01*
X193293553Y-113891753D01*
X193212348Y-114300000D01*
X193293553Y-114708247D01*
X193524806Y-115054342D01*
X193839779Y-115264800D01*
X193799700Y-115264800D01*
X193605297Y-115303469D01*
X193440490Y-115413590D01*
X192680790Y-116173290D01*
X192647269Y-116223458D01*
X192555194Y-116085658D01*
X192209099Y-115854405D01*
X191800852Y-115773200D01*
X190723148Y-115773200D01*
X190314901Y-115854405D01*
X189968806Y-116085658D01*
X189737553Y-116431753D01*
X189656348Y-116840000D01*
X189737553Y-117248247D01*
X189968806Y-117594342D01*
X190283779Y-117804800D01*
X189088900Y-117804800D01*
X188894496Y-117843469D01*
X188729690Y-117953590D01*
X187626780Y-119056500D01*
X179679600Y-119056500D01*
X179679600Y-117970300D01*
X179527200Y-117817900D01*
X178587400Y-117817900D01*
X178587400Y-117837900D01*
X178282600Y-117837900D01*
X178282600Y-117817900D01*
X177342800Y-117817900D01*
X177190400Y-117970300D01*
X177190400Y-119056500D01*
X174300771Y-119056500D01*
X174300771Y-116078000D01*
X174277115Y-115959073D01*
X174209748Y-115858252D01*
X174108927Y-115790885D01*
X173990000Y-115767229D01*
X173863000Y-115767229D01*
X173863000Y-115747800D01*
X173824331Y-115553397D01*
X173749391Y-115441242D01*
X173749530Y-115282309D01*
X173635696Y-115006810D01*
X173425099Y-114795844D01*
X173149799Y-114681530D01*
X172851709Y-114681270D01*
X172576210Y-114795104D01*
X172365244Y-115005701D01*
X172250930Y-115281001D01*
X172250670Y-115579091D01*
X172364504Y-115854590D01*
X172447287Y-115937518D01*
X172432885Y-115959073D01*
X172409229Y-116078000D01*
X172409229Y-119056500D01*
X167359720Y-119056500D01*
X167303010Y-118999790D01*
X167138203Y-118889669D01*
X166943800Y-118851000D01*
X157562400Y-118851000D01*
X157367997Y-118889669D01*
X157203190Y-118999790D01*
X157127780Y-119075200D01*
X154279600Y-119075200D01*
X154279600Y-117970300D01*
X154127200Y-117817900D01*
X153187400Y-117817900D01*
X153187400Y-117837900D01*
X152882600Y-117837900D01*
X152882600Y-117817900D01*
X151942800Y-117817900D01*
X151790400Y-117970300D01*
X151790400Y-119075200D01*
X148900771Y-119075200D01*
X148900771Y-116078000D01*
X148877115Y-115959073D01*
X148875559Y-115956743D01*
X151790400Y-115956743D01*
X151790400Y-117360700D01*
X151942800Y-117513100D01*
X152882600Y-117513100D01*
X152882600Y-115620800D01*
X153187400Y-115620800D01*
X153187400Y-117513100D01*
X154127200Y-117513100D01*
X154279600Y-117360700D01*
X154279600Y-115956743D01*
X154186794Y-115732689D01*
X154015311Y-115561206D01*
X153791257Y-115468400D01*
X153339800Y-115468400D01*
X153187400Y-115620800D01*
X152882600Y-115620800D01*
X152730200Y-115468400D01*
X152278743Y-115468400D01*
X152054689Y-115561206D01*
X151883206Y-115732689D01*
X151790400Y-115956743D01*
X148875559Y-115956743D01*
X148809748Y-115858252D01*
X148708927Y-115790885D01*
X148590000Y-115767229D01*
X147320000Y-115767229D01*
X147201073Y-115790885D01*
X147100252Y-115858252D01*
X147032885Y-115959073D01*
X147009229Y-116078000D01*
X147009229Y-119253000D01*
X147032885Y-119371927D01*
X147100252Y-119472748D01*
X147201073Y-119540115D01*
X147320000Y-119563771D01*
X147447000Y-119563771D01*
X147447000Y-119583200D01*
X147485669Y-119777603D01*
X147595790Y-119942410D01*
X147760597Y-120052531D01*
X147955000Y-120091200D01*
X157338200Y-120091200D01*
X157532603Y-120052531D01*
X157697410Y-119942410D01*
X157772820Y-119867000D01*
X159344195Y-119867000D01*
X159249638Y-120008515D01*
X159183901Y-120339000D01*
X159249638Y-120669485D01*
X159436843Y-120949657D01*
X162573543Y-124086358D01*
X162853715Y-124273562D01*
X163184200Y-124339300D01*
X196133200Y-124339300D01*
X196463685Y-124273562D01*
X196743857Y-124086357D01*
X197878575Y-122951639D01*
X197878526Y-123007693D01*
X198030948Y-123376581D01*
X198312934Y-123659061D01*
X198681556Y-123812126D01*
X199080693Y-123812474D01*
X199196117Y-123764781D01*
X199148874Y-123878556D01*
X199148526Y-124277693D01*
X199300948Y-124646581D01*
X199565133Y-124911229D01*
X197713600Y-124911229D01*
X197594673Y-124934885D01*
X197493852Y-125002252D01*
X197426485Y-125103073D01*
X197402829Y-125222000D01*
X197402829Y-130009900D01*
X93764100Y-130009900D01*
X93764100Y-127412477D01*
X109676840Y-127412477D01*
X109993259Y-128178270D01*
X110578648Y-128764682D01*
X111343888Y-129082437D01*
X112172477Y-129083160D01*
X112938270Y-128766741D01*
X113524682Y-128181352D01*
X113842437Y-127416112D01*
X113843160Y-126587523D01*
X113526741Y-125821730D01*
X112941352Y-125235318D01*
X112176112Y-124917563D01*
X111347523Y-124916840D01*
X110581730Y-125233259D01*
X109995318Y-125818648D01*
X109677563Y-126583888D01*
X109676840Y-127412477D01*
X93764100Y-127412477D01*
X93764100Y-112490153D01*
X99847400Y-112490153D01*
X99847400Y-113569847D01*
X99932472Y-113997534D01*
X100174737Y-114360110D01*
X100537313Y-114602375D01*
X100965000Y-114687447D01*
X101392687Y-114602375D01*
X101432885Y-114575515D01*
X104548485Y-117691116D01*
X104795696Y-117856297D01*
X105087300Y-117914300D01*
X109415170Y-117914300D01*
X120970385Y-129469515D01*
X121217595Y-129634696D01*
X121509200Y-129692700D01*
X143510000Y-129692700D01*
X143801605Y-129634696D01*
X144048815Y-129469515D01*
X144213996Y-129222305D01*
X144272000Y-128930700D01*
X144272000Y-128348995D01*
X144300263Y-128330110D01*
X144542528Y-127967534D01*
X144627600Y-127539847D01*
X144627600Y-126461148D01*
X147523200Y-126461148D01*
X147523200Y-127538852D01*
X147604405Y-127947099D01*
X147835658Y-128293194D01*
X148181753Y-128524447D01*
X148590000Y-128605652D01*
X148998247Y-128524447D01*
X149344342Y-128293194D01*
X149575595Y-127947099D01*
X149656800Y-127538852D01*
X149656800Y-126461148D01*
X150063200Y-126461148D01*
X150063200Y-127538852D01*
X150144405Y-127947099D01*
X150375658Y-128293194D01*
X150721753Y-128524447D01*
X151130000Y-128605652D01*
X151538247Y-128524447D01*
X151884342Y-128293194D01*
X152115595Y-127947099D01*
X152196800Y-127538852D01*
X152196800Y-126461148D01*
X152603200Y-126461148D01*
X152603200Y-127538852D01*
X152684405Y-127947099D01*
X152915658Y-128293194D01*
X153261753Y-128524447D01*
X153670000Y-128605652D01*
X154078247Y-128524447D01*
X154424342Y-128293194D01*
X154655595Y-127947099D01*
X154736800Y-127538852D01*
X154736800Y-126461148D01*
X155143200Y-126461148D01*
X155143200Y-127538852D01*
X155224405Y-127947099D01*
X155455658Y-128293194D01*
X155801753Y-128524447D01*
X156210000Y-128605652D01*
X156618247Y-128524447D01*
X156964342Y-128293194D01*
X157195595Y-127947099D01*
X157276800Y-127538852D01*
X157276800Y-126461148D01*
X157683200Y-126461148D01*
X157683200Y-127538852D01*
X157764405Y-127947099D01*
X157995658Y-128293194D01*
X158341753Y-128524447D01*
X158750000Y-128605652D01*
X159158247Y-128524447D01*
X159504342Y-128293194D01*
X159735595Y-127947099D01*
X159816800Y-127538852D01*
X159816800Y-126461148D01*
X160223200Y-126461148D01*
X160223200Y-127538852D01*
X160304405Y-127947099D01*
X160535658Y-128293194D01*
X160881753Y-128524447D01*
X161290000Y-128605652D01*
X161698247Y-128524447D01*
X162044342Y-128293194D01*
X162275595Y-127947099D01*
X162356800Y-127538852D01*
X162356800Y-126461148D01*
X162763200Y-126461148D01*
X162763200Y-127538852D01*
X162844405Y-127947099D01*
X163075658Y-128293194D01*
X163421753Y-128524447D01*
X163830000Y-128605652D01*
X164238247Y-128524447D01*
X164584342Y-128293194D01*
X164815595Y-127947099D01*
X164896800Y-127538852D01*
X164896800Y-126461148D01*
X165303200Y-126461148D01*
X165303200Y-127538852D01*
X165384405Y-127947099D01*
X165615658Y-128293194D01*
X165961753Y-128524447D01*
X166370000Y-128605652D01*
X166778247Y-128524447D01*
X167124342Y-128293194D01*
X167355595Y-127947099D01*
X167436800Y-127538852D01*
X167436800Y-126461148D01*
X170383200Y-126461148D01*
X170383200Y-127538852D01*
X170464405Y-127947099D01*
X170695658Y-128293194D01*
X171041753Y-128524447D01*
X171450000Y-128605652D01*
X171858247Y-128524447D01*
X172204342Y-128293194D01*
X172435595Y-127947099D01*
X172516800Y-127538852D01*
X172516800Y-126461148D01*
X172923200Y-126461148D01*
X172923200Y-127538852D01*
X173004405Y-127947099D01*
X173235658Y-128293194D01*
X173581753Y-128524447D01*
X173990000Y-128605652D01*
X174398247Y-128524447D01*
X174744342Y-128293194D01*
X174975595Y-127947099D01*
X175056800Y-127538852D01*
X175056800Y-126461148D01*
X175463200Y-126461148D01*
X175463200Y-127538852D01*
X175544405Y-127947099D01*
X175775658Y-128293194D01*
X176121753Y-128524447D01*
X176530000Y-128605652D01*
X176938247Y-128524447D01*
X177284342Y-128293194D01*
X177515595Y-127947099D01*
X177596800Y-127538852D01*
X177596800Y-126461148D01*
X178003200Y-126461148D01*
X178003200Y-127538852D01*
X178084405Y-127947099D01*
X178315658Y-128293194D01*
X178661753Y-128524447D01*
X179070000Y-128605652D01*
X179478247Y-128524447D01*
X179824342Y-128293194D01*
X180055595Y-127947099D01*
X180136800Y-127538852D01*
X180136800Y-126461148D01*
X180543200Y-126461148D01*
X180543200Y-127538852D01*
X180624405Y-127947099D01*
X180855658Y-128293194D01*
X181201753Y-128524447D01*
X181610000Y-128605652D01*
X182018247Y-128524447D01*
X182364342Y-128293194D01*
X182595595Y-127947099D01*
X182676800Y-127538852D01*
X182676800Y-126461148D01*
X183083200Y-126461148D01*
X183083200Y-127538852D01*
X183164405Y-127947099D01*
X183395658Y-128293194D01*
X183741753Y-128524447D01*
X184150000Y-128605652D01*
X184558247Y-128524447D01*
X184904342Y-128293194D01*
X185135595Y-127947099D01*
X185216800Y-127538852D01*
X185216800Y-126461148D01*
X185623200Y-126461148D01*
X185623200Y-127538852D01*
X185704405Y-127947099D01*
X185935658Y-128293194D01*
X186281753Y-128524447D01*
X186690000Y-128605652D01*
X187098247Y-128524447D01*
X187444342Y-128293194D01*
X187675595Y-127947099D01*
X187756800Y-127538852D01*
X187756800Y-126461148D01*
X188163200Y-126461148D01*
X188163200Y-127538852D01*
X188244405Y-127947099D01*
X188475658Y-128293194D01*
X188821753Y-128524447D01*
X189230000Y-128605652D01*
X189638247Y-128524447D01*
X189984342Y-128293194D01*
X190215595Y-127947099D01*
X190296800Y-127538852D01*
X190296800Y-127412477D01*
X192226840Y-127412477D01*
X192543259Y-128178270D01*
X193128648Y-128764682D01*
X193893888Y-129082437D01*
X194722477Y-129083160D01*
X195488270Y-128766741D01*
X196074682Y-128181352D01*
X196392437Y-127416112D01*
X196393160Y-126587523D01*
X196076741Y-125821730D01*
X195491352Y-125235318D01*
X194726112Y-124917563D01*
X193897523Y-124916840D01*
X193131730Y-125233259D01*
X192545318Y-125818648D01*
X192227563Y-126583888D01*
X192226840Y-127412477D01*
X190296800Y-127412477D01*
X190296800Y-126461148D01*
X190215595Y-126052901D01*
X189984342Y-125706806D01*
X189638247Y-125475553D01*
X189230000Y-125394348D01*
X188821753Y-125475553D01*
X188475658Y-125706806D01*
X188244405Y-126052901D01*
X188163200Y-126461148D01*
X187756800Y-126461148D01*
X187675595Y-126052901D01*
X187444342Y-125706806D01*
X187098247Y-125475553D01*
X186690000Y-125394348D01*
X186281753Y-125475553D01*
X185935658Y-125706806D01*
X185704405Y-126052901D01*
X185623200Y-126461148D01*
X185216800Y-126461148D01*
X185135595Y-126052901D01*
X184904342Y-125706806D01*
X184558247Y-125475553D01*
X184150000Y-125394348D01*
X183741753Y-125475553D01*
X183395658Y-125706806D01*
X183164405Y-126052901D01*
X183083200Y-126461148D01*
X182676800Y-126461148D01*
X182595595Y-126052901D01*
X182364342Y-125706806D01*
X182018247Y-125475553D01*
X181610000Y-125394348D01*
X181201753Y-125475553D01*
X180855658Y-125706806D01*
X180624405Y-126052901D01*
X180543200Y-126461148D01*
X180136800Y-126461148D01*
X180055595Y-126052901D01*
X179824342Y-125706806D01*
X179478247Y-125475553D01*
X179070000Y-125394348D01*
X178661753Y-125475553D01*
X178315658Y-125706806D01*
X178084405Y-126052901D01*
X178003200Y-126461148D01*
X177596800Y-126461148D01*
X177515595Y-126052901D01*
X177284342Y-125706806D01*
X176938247Y-125475553D01*
X176530000Y-125394348D01*
X176121753Y-125475553D01*
X175775658Y-125706806D01*
X175544405Y-126052901D01*
X175463200Y-126461148D01*
X175056800Y-126461148D01*
X174975595Y-126052901D01*
X174744342Y-125706806D01*
X174398247Y-125475553D01*
X173990000Y-125394348D01*
X173581753Y-125475553D01*
X173235658Y-125706806D01*
X173004405Y-126052901D01*
X172923200Y-126461148D01*
X172516800Y-126461148D01*
X172435595Y-126052901D01*
X172204342Y-125706806D01*
X171858247Y-125475553D01*
X171450000Y-125394348D01*
X171041753Y-125475553D01*
X170695658Y-125706806D01*
X170464405Y-126052901D01*
X170383200Y-126461148D01*
X167436800Y-126461148D01*
X167355595Y-126052901D01*
X167124342Y-125706806D01*
X166778247Y-125475553D01*
X166370000Y-125394348D01*
X165961753Y-125475553D01*
X165615658Y-125706806D01*
X165384405Y-126052901D01*
X165303200Y-126461148D01*
X164896800Y-126461148D01*
X164815595Y-126052901D01*
X164584342Y-125706806D01*
X164238247Y-125475553D01*
X163830000Y-125394348D01*
X163421753Y-125475553D01*
X163075658Y-125706806D01*
X162844405Y-126052901D01*
X162763200Y-126461148D01*
X162356800Y-126461148D01*
X162275595Y-126052901D01*
X162044342Y-125706806D01*
X161698247Y-125475553D01*
X161290000Y-125394348D01*
X160881753Y-125475553D01*
X160535658Y-125706806D01*
X160304405Y-126052901D01*
X160223200Y-126461148D01*
X159816800Y-126461148D01*
X159735595Y-126052901D01*
X159504342Y-125706806D01*
X159158247Y-125475553D01*
X158750000Y-125394348D01*
X158341753Y-125475553D01*
X157995658Y-125706806D01*
X157764405Y-126052901D01*
X157683200Y-126461148D01*
X157276800Y-126461148D01*
X157195595Y-126052901D01*
X156964342Y-125706806D01*
X156618247Y-125475553D01*
X156210000Y-125394348D01*
X155801753Y-125475553D01*
X155455658Y-125706806D01*
X155224405Y-126052901D01*
X155143200Y-126461148D01*
X154736800Y-126461148D01*
X154655595Y-126052901D01*
X154424342Y-125706806D01*
X154078247Y-125475553D01*
X153670000Y-125394348D01*
X153261753Y-125475553D01*
X152915658Y-125706806D01*
X152684405Y-126052901D01*
X152603200Y-126461148D01*
X152196800Y-126461148D01*
X152115595Y-126052901D01*
X151884342Y-125706806D01*
X151538247Y-125475553D01*
X151130000Y-125394348D01*
X150721753Y-125475553D01*
X150375658Y-125706806D01*
X150144405Y-126052901D01*
X150063200Y-126461148D01*
X149656800Y-126461148D01*
X149575595Y-126052901D01*
X149344342Y-125706806D01*
X148998247Y-125475553D01*
X148590000Y-125394348D01*
X148181753Y-125475553D01*
X147835658Y-125706806D01*
X147604405Y-126052901D01*
X147523200Y-126461148D01*
X144627600Y-126461148D01*
X144627600Y-126460153D01*
X144542528Y-126032466D01*
X144300263Y-125669890D01*
X143937687Y-125427625D01*
X143510000Y-125342553D01*
X143082313Y-125427625D01*
X142719737Y-125669890D01*
X142477472Y-126032466D01*
X142392400Y-126460153D01*
X142392400Y-127539847D01*
X142477472Y-127967534D01*
X142611887Y-128168700D01*
X142180453Y-128168700D01*
X142341600Y-127660400D01*
X142341600Y-127152400D01*
X141122400Y-127152400D01*
X141122400Y-127172400D01*
X140817600Y-127172400D01*
X140817600Y-127152400D01*
X138582400Y-127152400D01*
X138582400Y-127172400D01*
X138277600Y-127172400D01*
X138277600Y-127152400D01*
X137058400Y-127152400D01*
X137058400Y-127660400D01*
X137219547Y-128168700D01*
X136788113Y-128168700D01*
X136922528Y-127967534D01*
X137007600Y-127539847D01*
X137007600Y-126460153D01*
X136983621Y-126339600D01*
X137058400Y-126339600D01*
X137058400Y-126847600D01*
X138277600Y-126847600D01*
X138277600Y-125282363D01*
X138582400Y-125282363D01*
X138582400Y-126847600D01*
X140817600Y-126847600D01*
X140817600Y-125282363D01*
X141122400Y-125282363D01*
X141122400Y-126847600D01*
X142341600Y-126847600D01*
X142341600Y-126339600D01*
X142178872Y-125826312D01*
X141832104Y-125414369D01*
X141333761Y-125169516D01*
X141122400Y-125282363D01*
X140817600Y-125282363D01*
X140606239Y-125169516D01*
X140107896Y-125414369D01*
X139761128Y-125826312D01*
X139700000Y-126019126D01*
X139638872Y-125826312D01*
X139292104Y-125414369D01*
X138793761Y-125169516D01*
X138582400Y-125282363D01*
X138277600Y-125282363D01*
X138066239Y-125169516D01*
X137567896Y-125414369D01*
X137221128Y-125826312D01*
X137058400Y-126339600D01*
X136983621Y-126339600D01*
X136922528Y-126032466D01*
X136680263Y-125669890D01*
X136652000Y-125651005D01*
X136652000Y-120136530D01*
X143009230Y-113779300D01*
X144170400Y-113779300D01*
X144170400Y-115183257D01*
X144263206Y-115407311D01*
X144434689Y-115578794D01*
X144658743Y-115671600D01*
X145110200Y-115671600D01*
X145262600Y-115519200D01*
X145262600Y-113626900D01*
X145567400Y-113626900D01*
X145567400Y-115519200D01*
X145719800Y-115671600D01*
X146171257Y-115671600D01*
X146395311Y-115578794D01*
X146566794Y-115407311D01*
X146659600Y-115183257D01*
X146659600Y-113779300D01*
X146507200Y-113626900D01*
X145567400Y-113626900D01*
X145262600Y-113626900D01*
X144322800Y-113626900D01*
X144170400Y-113779300D01*
X143009230Y-113779300D01*
X144170400Y-112618130D01*
X144170400Y-113169700D01*
X144322800Y-113322100D01*
X145262600Y-113322100D01*
X145262600Y-113302100D01*
X145567400Y-113302100D01*
X145567400Y-113322100D01*
X146507200Y-113322100D01*
X146659600Y-113169700D01*
X146659600Y-111988300D01*
X149497434Y-111988300D01*
X149497434Y-115062000D01*
X149525033Y-115200748D01*
X149603627Y-115318373D01*
X149721252Y-115396967D01*
X149860000Y-115424566D01*
X151130000Y-115424566D01*
X151268748Y-115396967D01*
X151386373Y-115318373D01*
X151464967Y-115200748D01*
X151492566Y-115062000D01*
X151492566Y-111988300D01*
X154629229Y-111988300D01*
X154629229Y-115062000D01*
X154652885Y-115180927D01*
X154720252Y-115281748D01*
X154821073Y-115349115D01*
X154940000Y-115372771D01*
X155067000Y-115372771D01*
X155067000Y-115392200D01*
X155105669Y-115586603D01*
X155215790Y-115751410D01*
X155380597Y-115861531D01*
X155575000Y-115900200D01*
X156129167Y-115900200D01*
X156255801Y-116027056D01*
X156531101Y-116141370D01*
X156829191Y-116141630D01*
X157104690Y-116027796D01*
X157315656Y-115817199D01*
X157429970Y-115541899D01*
X157430230Y-115243809D01*
X157316396Y-114968310D01*
X157105799Y-114757344D01*
X156830499Y-114643030D01*
X156532409Y-114642770D01*
X156520771Y-114647579D01*
X156520771Y-113779300D01*
X169570400Y-113779300D01*
X169570400Y-115183257D01*
X169663206Y-115407311D01*
X169834689Y-115578794D01*
X170058743Y-115671600D01*
X170510200Y-115671600D01*
X170662600Y-115519200D01*
X170662600Y-113626900D01*
X170967400Y-113626900D01*
X170967400Y-115519200D01*
X171119800Y-115671600D01*
X171571257Y-115671600D01*
X171795311Y-115578794D01*
X171966794Y-115407311D01*
X172059600Y-115183257D01*
X172059600Y-113779300D01*
X171907200Y-113626900D01*
X170967400Y-113626900D01*
X170662600Y-113626900D01*
X169722800Y-113626900D01*
X169570400Y-113779300D01*
X156520771Y-113779300D01*
X156520771Y-111988300D01*
X169570400Y-111988300D01*
X169570400Y-113169700D01*
X169722800Y-113322100D01*
X170662600Y-113322100D01*
X170662600Y-113302100D01*
X170967400Y-113302100D01*
X170967400Y-113322100D01*
X171907200Y-113322100D01*
X172059600Y-113169700D01*
X172059600Y-111988300D01*
X174897434Y-111988300D01*
X174897434Y-115062000D01*
X174925033Y-115200748D01*
X175003627Y-115318373D01*
X175121252Y-115396967D01*
X175133000Y-115399304D01*
X175133000Y-117139532D01*
X175095039Y-117230952D01*
X175094761Y-117549252D01*
X175216313Y-117843428D01*
X175441188Y-118068696D01*
X175735152Y-118190761D01*
X176053452Y-118191039D01*
X176347628Y-118069487D01*
X176572896Y-117844612D01*
X176694961Y-117550648D01*
X176695239Y-117232348D01*
X176657000Y-117139803D01*
X176657000Y-115956743D01*
X177190400Y-115956743D01*
X177190400Y-117360700D01*
X177342800Y-117513100D01*
X178282600Y-117513100D01*
X178282600Y-115620800D01*
X178587400Y-115620800D01*
X178587400Y-117513100D01*
X179527200Y-117513100D01*
X179679600Y-117360700D01*
X179679600Y-115956743D01*
X179586794Y-115732689D01*
X179415311Y-115561206D01*
X179191257Y-115468400D01*
X178739800Y-115468400D01*
X178587400Y-115620800D01*
X178282600Y-115620800D01*
X178130200Y-115468400D01*
X177678743Y-115468400D01*
X177454689Y-115561206D01*
X177283206Y-115732689D01*
X177190400Y-115956743D01*
X176657000Y-115956743D01*
X176657000Y-115399304D01*
X176668748Y-115396967D01*
X176786373Y-115318373D01*
X176864967Y-115200748D01*
X176892566Y-115062000D01*
X176892566Y-111887000D01*
X180029229Y-111887000D01*
X180029229Y-115062000D01*
X180052885Y-115180927D01*
X180120252Y-115281748D01*
X180221073Y-115349115D01*
X180340000Y-115372771D01*
X180450116Y-115372771D01*
X180441100Y-115418100D01*
X180441100Y-116673867D01*
X180314244Y-116800501D01*
X180199930Y-117075801D01*
X180199670Y-117373891D01*
X180313504Y-117649390D01*
X180524101Y-117860356D01*
X180799401Y-117974670D01*
X181097491Y-117974930D01*
X181372990Y-117861096D01*
X181583956Y-117650499D01*
X181698270Y-117375199D01*
X181698530Y-117077109D01*
X181584696Y-116801610D01*
X181457100Y-116673790D01*
X181457100Y-115522409D01*
X181483000Y-115392200D01*
X181483000Y-115372771D01*
X181610000Y-115372771D01*
X181728927Y-115349115D01*
X181829748Y-115281748D01*
X181897115Y-115180927D01*
X181920771Y-115062000D01*
X181920771Y-111887000D01*
X181897115Y-111768073D01*
X181829748Y-111667252D01*
X181728927Y-111599885D01*
X181610000Y-111576229D01*
X180340000Y-111576229D01*
X180221073Y-111599885D01*
X180120252Y-111667252D01*
X180052885Y-111768073D01*
X180029229Y-111887000D01*
X176892566Y-111887000D01*
X176881261Y-111830169D01*
X180056041Y-108655389D01*
X180147528Y-108617587D01*
X180372796Y-108392712D01*
X180494861Y-108098748D01*
X180495139Y-107780448D01*
X180397812Y-107544900D01*
X182188280Y-107544900D01*
X189302590Y-114659211D01*
X189467397Y-114769331D01*
X189661800Y-114808000D01*
X189804206Y-114808000D01*
X189968806Y-115054342D01*
X190314901Y-115285595D01*
X190723148Y-115366800D01*
X191800852Y-115366800D01*
X192209099Y-115285595D01*
X192555194Y-115054342D01*
X192786447Y-114708247D01*
X192867652Y-114300000D01*
X192786447Y-113891753D01*
X192555194Y-113545658D01*
X192209099Y-113314405D01*
X191800852Y-113233200D01*
X190723148Y-113233200D01*
X190314901Y-113314405D01*
X189968806Y-113545658D01*
X189831449Y-113751228D01*
X189086830Y-113006609D01*
X199221364Y-113006609D01*
X199371923Y-113233200D01*
X200507600Y-113233200D01*
X200507600Y-111857986D01*
X200286247Y-111746024D01*
X200224935Y-111754642D01*
X199731113Y-112025949D01*
X199378706Y-112465581D01*
X199221364Y-113006609D01*
X189086830Y-113006609D01*
X187840221Y-111760000D01*
X189656348Y-111760000D01*
X189737553Y-112168247D01*
X189968806Y-112514342D01*
X190314901Y-112745595D01*
X190723148Y-112826800D01*
X191800852Y-112826800D01*
X192209099Y-112745595D01*
X192555194Y-112514342D01*
X192786447Y-112168247D01*
X192867652Y-111760000D01*
X193212348Y-111760000D01*
X193293553Y-112168247D01*
X193524806Y-112514342D01*
X193870901Y-112745595D01*
X194279148Y-112826800D01*
X195356852Y-112826800D01*
X195765099Y-112745595D01*
X196111194Y-112514342D01*
X196342447Y-112168247D01*
X196423652Y-111760000D01*
X196342447Y-111351753D01*
X196111194Y-111005658D01*
X195765099Y-110774405D01*
X195356852Y-110693200D01*
X194279148Y-110693200D01*
X193870901Y-110774405D01*
X193524806Y-111005658D01*
X193293553Y-111351753D01*
X193212348Y-111760000D01*
X192867652Y-111760000D01*
X192786447Y-111351753D01*
X192555194Y-111005658D01*
X192209099Y-110774405D01*
X191800852Y-110693200D01*
X190723148Y-110693200D01*
X190314901Y-110774405D01*
X189968806Y-111005658D01*
X189737553Y-111351753D01*
X189656348Y-111760000D01*
X187840221Y-111760000D01*
X185300221Y-109220000D01*
X189656348Y-109220000D01*
X189737553Y-109628247D01*
X189968806Y-109974342D01*
X190314901Y-110205595D01*
X190723148Y-110286800D01*
X191800852Y-110286800D01*
X192209099Y-110205595D01*
X192555194Y-109974342D01*
X192786447Y-109628247D01*
X192867652Y-109220000D01*
X193212348Y-109220000D01*
X193293553Y-109628247D01*
X193524806Y-109974342D01*
X193870901Y-110205595D01*
X194279148Y-110286800D01*
X195356852Y-110286800D01*
X195765099Y-110205595D01*
X196111194Y-109974342D01*
X196342447Y-109628247D01*
X196423652Y-109220000D01*
X196342447Y-108811753D01*
X196111194Y-108465658D01*
X195765099Y-108234405D01*
X195356852Y-108153200D01*
X194279148Y-108153200D01*
X193870901Y-108234405D01*
X193524806Y-108465658D01*
X193293553Y-108811753D01*
X193212348Y-109220000D01*
X192867652Y-109220000D01*
X192786447Y-108811753D01*
X192555194Y-108465658D01*
X192209099Y-108234405D01*
X191800852Y-108153200D01*
X190723148Y-108153200D01*
X190314901Y-108234405D01*
X189968806Y-108465658D01*
X189737553Y-108811753D01*
X189656348Y-109220000D01*
X185300221Y-109220000D01*
X182760221Y-106680000D01*
X189656348Y-106680000D01*
X189737553Y-107088247D01*
X189968806Y-107434342D01*
X190314901Y-107665595D01*
X190723148Y-107746800D01*
X191800852Y-107746800D01*
X192209099Y-107665595D01*
X192555194Y-107434342D01*
X192786447Y-107088247D01*
X192867652Y-106680000D01*
X193212348Y-106680000D01*
X193293553Y-107088247D01*
X193524806Y-107434342D01*
X193870901Y-107665595D01*
X194279148Y-107746800D01*
X195356852Y-107746800D01*
X195765099Y-107665595D01*
X196111194Y-107434342D01*
X196342447Y-107088247D01*
X196423652Y-106680000D01*
X196342447Y-106271753D01*
X196111194Y-105925658D01*
X195765099Y-105694405D01*
X195356852Y-105613200D01*
X194279148Y-105613200D01*
X193870901Y-105694405D01*
X193524806Y-105925658D01*
X193293553Y-106271753D01*
X193212348Y-106680000D01*
X192867652Y-106680000D01*
X192786447Y-106271753D01*
X192555194Y-105925658D01*
X192209099Y-105694405D01*
X191800852Y-105613200D01*
X190723148Y-105613200D01*
X190314901Y-105694405D01*
X189968806Y-105925658D01*
X189737553Y-106271753D01*
X189656348Y-106680000D01*
X182760221Y-106680000D01*
X182757910Y-106677690D01*
X182593103Y-106567569D01*
X182398700Y-106528900D01*
X179227920Y-106528900D01*
X180700621Y-105056200D01*
X184173600Y-105056200D01*
X184368003Y-105017531D01*
X184532810Y-104907410D01*
X185300220Y-104140000D01*
X189656348Y-104140000D01*
X189737553Y-104548247D01*
X189968806Y-104894342D01*
X190314901Y-105125595D01*
X190723148Y-105206800D01*
X191800852Y-105206800D01*
X192209099Y-105125595D01*
X192555194Y-104894342D01*
X192786447Y-104548247D01*
X192867652Y-104140000D01*
X193212348Y-104140000D01*
X193293553Y-104548247D01*
X193524806Y-104894342D01*
X193870901Y-105125595D01*
X194279148Y-105206800D01*
X195356852Y-105206800D01*
X195765099Y-105125595D01*
X196111194Y-104894342D01*
X196342447Y-104548247D01*
X196423652Y-104140000D01*
X196342447Y-103731753D01*
X196111194Y-103385658D01*
X195765099Y-103154405D01*
X195356852Y-103073200D01*
X194279148Y-103073200D01*
X193870901Y-103154405D01*
X193524806Y-103385658D01*
X193293553Y-103731753D01*
X193212348Y-104140000D01*
X192867652Y-104140000D01*
X192786447Y-103731753D01*
X192555194Y-103385658D01*
X192209099Y-103154405D01*
X191800852Y-103073200D01*
X190723148Y-103073200D01*
X190314901Y-103154405D01*
X189968806Y-103385658D01*
X189737553Y-103731753D01*
X189656348Y-104140000D01*
X185300220Y-104140000D01*
X187840220Y-101600000D01*
X189656348Y-101600000D01*
X189737553Y-102008247D01*
X189968806Y-102354342D01*
X190314901Y-102585595D01*
X190723148Y-102666800D01*
X191800852Y-102666800D01*
X192209099Y-102585595D01*
X192555194Y-102354342D01*
X192786447Y-102008247D01*
X192867652Y-101600000D01*
X193212348Y-101600000D01*
X193293553Y-102008247D01*
X193524806Y-102354342D01*
X193870901Y-102585595D01*
X194279148Y-102666800D01*
X195356852Y-102666800D01*
X195765099Y-102585595D01*
X196111194Y-102354342D01*
X196342447Y-102008247D01*
X196423652Y-101600000D01*
X196342447Y-101191753D01*
X196111194Y-100845658D01*
X195765099Y-100614405D01*
X195356852Y-100533200D01*
X194279148Y-100533200D01*
X193870901Y-100614405D01*
X193524806Y-100845658D01*
X193293553Y-101191753D01*
X193212348Y-101600000D01*
X192867652Y-101600000D01*
X192786447Y-101191753D01*
X192555194Y-100845658D01*
X192209099Y-100614405D01*
X191800852Y-100533200D01*
X190723148Y-100533200D01*
X190314901Y-100614405D01*
X189968806Y-100845658D01*
X189737553Y-101191753D01*
X189656348Y-101600000D01*
X187840220Y-101600000D01*
X189831448Y-99608772D01*
X189968806Y-99814342D01*
X190314901Y-100045595D01*
X190723148Y-100126800D01*
X191800852Y-100126800D01*
X192209099Y-100045595D01*
X192555194Y-99814342D01*
X192786447Y-99468247D01*
X192867652Y-99060000D01*
X193212348Y-99060000D01*
X193293553Y-99468247D01*
X193524806Y-99814342D01*
X193870901Y-100045595D01*
X194279148Y-100126800D01*
X195356852Y-100126800D01*
X195765099Y-100045595D01*
X196111194Y-99814342D01*
X196342447Y-99468247D01*
X196423652Y-99060000D01*
X196342447Y-98651753D01*
X196111194Y-98305658D01*
X195765099Y-98074405D01*
X195356852Y-97993200D01*
X194279148Y-97993200D01*
X193870901Y-98074405D01*
X193524806Y-98305658D01*
X193293553Y-98651753D01*
X193212348Y-99060000D01*
X192867652Y-99060000D01*
X192786447Y-98651753D01*
X192555194Y-98305658D01*
X192370632Y-98182337D01*
X192420210Y-98149210D01*
X193432790Y-97136630D01*
X193524806Y-97274342D01*
X193870901Y-97505595D01*
X194279148Y-97586800D01*
X195356852Y-97586800D01*
X195765099Y-97505595D01*
X196111194Y-97274342D01*
X196342447Y-96928247D01*
X196423652Y-96520000D01*
X196342447Y-96111753D01*
X196111194Y-95765658D01*
X195765099Y-95534405D01*
X195356852Y-95453200D01*
X194279148Y-95453200D01*
X193870901Y-95534405D01*
X193524806Y-95765658D01*
X193360206Y-96012000D01*
X193217800Y-96012000D01*
X193023397Y-96050669D01*
X192858590Y-96160790D01*
X192810513Y-96232742D01*
X192786447Y-96111753D01*
X192555194Y-95765658D01*
X192370632Y-95642337D01*
X192420210Y-95609210D01*
X193432790Y-94596630D01*
X193524806Y-94734342D01*
X193870901Y-94965595D01*
X194279148Y-95046800D01*
X195356852Y-95046800D01*
X195765099Y-94965595D01*
X196111194Y-94734342D01*
X196342447Y-94388247D01*
X196423652Y-93980000D01*
X197991529Y-93980000D01*
X198076601Y-94407687D01*
X198318866Y-94770263D01*
X198681442Y-95012528D01*
X199109129Y-95097600D01*
X199670871Y-95097600D01*
X200098558Y-95012528D01*
X200461134Y-94770263D01*
X200703399Y-94407687D01*
X200788471Y-93980000D01*
X203071529Y-93980000D01*
X203156601Y-94407687D01*
X203398866Y-94770263D01*
X203761442Y-95012528D01*
X204189129Y-95097600D01*
X204750871Y-95097600D01*
X205178558Y-95012528D01*
X205541134Y-94770263D01*
X205661849Y-94589600D01*
X205828196Y-94589600D01*
X207594818Y-96356223D01*
X207268933Y-96291400D01*
X205633467Y-96291400D01*
X204836414Y-96449944D01*
X204160705Y-96901438D01*
X203709211Y-97577147D01*
X203550667Y-98374200D01*
X203709211Y-99171253D01*
X204160705Y-99846962D01*
X204836414Y-100298456D01*
X205633467Y-100457000D01*
X207268933Y-100457000D01*
X208065986Y-100298456D01*
X208741695Y-99846962D01*
X209193189Y-99171253D01*
X209344700Y-98409557D01*
X209344700Y-101960828D01*
X209178137Y-101793974D01*
X208711527Y-101600221D01*
X208206290Y-101599780D01*
X207739342Y-101792718D01*
X207618352Y-101913498D01*
X207256651Y-101289475D01*
X206515094Y-100722466D01*
X205613000Y-100482400D01*
X205105000Y-100482400D01*
X205105000Y-102717600D01*
X205125000Y-102717600D01*
X205125000Y-103022400D01*
X205105000Y-103022400D01*
X205105000Y-105257600D01*
X205613000Y-105257600D01*
X206515094Y-105017534D01*
X207256651Y-104450525D01*
X207618277Y-103826632D01*
X207737463Y-103946026D01*
X208204073Y-104139779D01*
X208709310Y-104140220D01*
X209176258Y-103947282D01*
X209344700Y-103779133D01*
X209344700Y-107330443D01*
X209193189Y-106568747D01*
X208741695Y-105893038D01*
X208065986Y-105441544D01*
X207268933Y-105283000D01*
X205633467Y-105283000D01*
X204836414Y-105441544D01*
X204160705Y-105893038D01*
X203709211Y-106568747D01*
X203550667Y-107365800D01*
X203709211Y-108162853D01*
X204160705Y-108838562D01*
X204836414Y-109290056D01*
X205633467Y-109448600D01*
X207268933Y-109448600D01*
X208065986Y-109290056D01*
X208741695Y-108838562D01*
X209193189Y-108162853D01*
X209344700Y-107401157D01*
X209344700Y-110252596D01*
X206850208Y-112747088D01*
X206831194Y-112651498D01*
X206575164Y-112268321D01*
X206191987Y-112012291D01*
X205740000Y-111922385D01*
X205288013Y-112012291D01*
X204904836Y-112268321D01*
X204648806Y-112651498D01*
X204558900Y-113103485D01*
X204558900Y-113667715D01*
X204648806Y-114119702D01*
X204904836Y-114502879D01*
X205288013Y-114758909D01*
X205740000Y-114848815D01*
X206191987Y-114758909D01*
X206575164Y-114502879D01*
X206831194Y-114119702D01*
X206855959Y-113995200D01*
X207073800Y-113995200D01*
X207307084Y-113948797D01*
X207504852Y-113816652D01*
X210385352Y-110936152D01*
X210517497Y-110738384D01*
X210518946Y-110731100D01*
X210563900Y-110505100D01*
X210563900Y-97853600D01*
X210517497Y-97620316D01*
X210440843Y-97505595D01*
X210385353Y-97422548D01*
X206511752Y-93548948D01*
X206313984Y-93416803D01*
X206080700Y-93370400D01*
X205661849Y-93370400D01*
X205541134Y-93189737D01*
X205178558Y-92947472D01*
X204750871Y-92862400D01*
X204189129Y-92862400D01*
X203761442Y-92947472D01*
X203398866Y-93189737D01*
X203156601Y-93552313D01*
X203071529Y-93980000D01*
X200788471Y-93980000D01*
X200703399Y-93552313D01*
X200461134Y-93189737D01*
X200098558Y-92947472D01*
X199670871Y-92862400D01*
X199109129Y-92862400D01*
X198681442Y-92947472D01*
X198318866Y-93189737D01*
X198076601Y-93552313D01*
X197991529Y-93980000D01*
X196423652Y-93980000D01*
X196342447Y-93571753D01*
X196111194Y-93225658D01*
X195765099Y-92994405D01*
X195356852Y-92913200D01*
X194279148Y-92913200D01*
X193870901Y-92994405D01*
X193524806Y-93225658D01*
X193360206Y-93472000D01*
X193217800Y-93472000D01*
X193023397Y-93510669D01*
X192858590Y-93620790D01*
X192810513Y-93692742D01*
X192786447Y-93571753D01*
X192555194Y-93225658D01*
X192370632Y-93102337D01*
X192420210Y-93069210D01*
X193432790Y-92056630D01*
X193524806Y-92194342D01*
X193870901Y-92425595D01*
X194279148Y-92506800D01*
X195356852Y-92506800D01*
X195765099Y-92425595D01*
X196111194Y-92194342D01*
X196342447Y-91848247D01*
X196423652Y-91440000D01*
X196342447Y-91031753D01*
X196111194Y-90685658D01*
X195765099Y-90454405D01*
X195356852Y-90373200D01*
X194279148Y-90373200D01*
X193870901Y-90454405D01*
X193524806Y-90685658D01*
X193360206Y-90932000D01*
X193217800Y-90932000D01*
X193023397Y-90970669D01*
X192858590Y-91080790D01*
X192810513Y-91152742D01*
X192786447Y-91031753D01*
X192555194Y-90685658D01*
X192209099Y-90454405D01*
X191800852Y-90373200D01*
X190723148Y-90373200D01*
X190314901Y-90454405D01*
X189968806Y-90685658D01*
X189804206Y-90932000D01*
X189661800Y-90932000D01*
X189467397Y-90970669D01*
X189302590Y-91080790D01*
X189192469Y-91245597D01*
X189153800Y-91440000D01*
X189153800Y-91533880D01*
X187172600Y-93515080D01*
X187172600Y-93064129D01*
X187087528Y-92636442D01*
X186845263Y-92273866D01*
X186482687Y-92031601D01*
X186055000Y-91946529D01*
X185627313Y-92031601D01*
X185264737Y-92273866D01*
X185022472Y-92636442D01*
X184937400Y-93064129D01*
X184937400Y-93625871D01*
X185022472Y-94053558D01*
X185264737Y-94416134D01*
X185486933Y-94564600D01*
X182686368Y-94564600D01*
X182791320Y-94494473D01*
X183143706Y-93967090D01*
X183267447Y-93345000D01*
X183143706Y-92722910D01*
X182791320Y-92195527D01*
X182263937Y-91843141D01*
X181641847Y-91719400D01*
X181578153Y-91719400D01*
X180956063Y-91843141D01*
X180428680Y-92195527D01*
X180340686Y-92327219D01*
X180188358Y-92099243D01*
X176627557Y-88538443D01*
X176347385Y-88351238D01*
X176335435Y-88348861D01*
X176016900Y-88285500D01*
X173255300Y-88285500D01*
X172924815Y-88351238D01*
X172644643Y-88538443D01*
X172457438Y-88818615D01*
X172391700Y-89149100D01*
X172457438Y-89479585D01*
X172644643Y-89759757D01*
X172924815Y-89946962D01*
X173255300Y-90012700D01*
X175659186Y-90012700D01*
X177358919Y-91712434D01*
X175260000Y-91712434D01*
X175121252Y-91740033D01*
X175003627Y-91818627D01*
X174925033Y-91936252D01*
X174897434Y-92075000D01*
X174897434Y-94564600D01*
X172653067Y-94564600D01*
X172875263Y-94416134D01*
X173117528Y-94053558D01*
X173202600Y-93625871D01*
X173202600Y-93064129D01*
X173117528Y-92636442D01*
X172875263Y-92273866D01*
X172512687Y-92031601D01*
X172085000Y-91946529D01*
X171657313Y-92031601D01*
X171294737Y-92273866D01*
X171052472Y-92636442D01*
X170967400Y-93064129D01*
X170967400Y-93625871D01*
X171052472Y-94053558D01*
X171294737Y-94416134D01*
X171516933Y-94564600D01*
X167573067Y-94564600D01*
X167795263Y-94416134D01*
X168037528Y-94053558D01*
X168122600Y-93625871D01*
X168122600Y-93064129D01*
X168037528Y-92636442D01*
X167795263Y-92273866D01*
X167432687Y-92031601D01*
X167005000Y-91946529D01*
X166577313Y-92031601D01*
X166214737Y-92273866D01*
X165972472Y-92636442D01*
X165887400Y-93064129D01*
X165887400Y-93625871D01*
X165972472Y-94053558D01*
X166214737Y-94416134D01*
X166436933Y-94564600D01*
X163636368Y-94564600D01*
X163741320Y-94494473D01*
X164093706Y-93967090D01*
X164217447Y-93345000D01*
X164093706Y-92722910D01*
X163741320Y-92195527D01*
X163213937Y-91843141D01*
X162591847Y-91719400D01*
X162528153Y-91719400D01*
X161967500Y-91830921D01*
X170539210Y-83259211D01*
X170649331Y-83094404D01*
X170663355Y-83023897D01*
X170688000Y-82900000D01*
X170688000Y-80021733D01*
X170695658Y-80033194D01*
X170942000Y-80197794D01*
X170942000Y-80340200D01*
X170980669Y-80534603D01*
X171090790Y-80699410D01*
X178380590Y-87989210D01*
X178545397Y-88099331D01*
X178739800Y-88138000D01*
X189980267Y-88138000D01*
X189968806Y-88145658D01*
X189737553Y-88491753D01*
X189656348Y-88900000D01*
X189737553Y-89308247D01*
X189968806Y-89654342D01*
X190314901Y-89885595D01*
X190723148Y-89966800D01*
X191800852Y-89966800D01*
X192209099Y-89885595D01*
X192555194Y-89654342D01*
X192786447Y-89308247D01*
X192867652Y-88900000D01*
X192786447Y-88491753D01*
X192555194Y-88145658D01*
X192543733Y-88138000D01*
X193536267Y-88138000D01*
X193524806Y-88145658D01*
X193293553Y-88491753D01*
X193212348Y-88900000D01*
X193293553Y-89308247D01*
X193524806Y-89654342D01*
X193870901Y-89885595D01*
X194279148Y-89966800D01*
X195356852Y-89966800D01*
X195765099Y-89885595D01*
X196111194Y-89654342D01*
X196342447Y-89308247D01*
X196423652Y-88900000D01*
X196342447Y-88491753D01*
X196111194Y-88145658D01*
X196099733Y-88138000D01*
X199777729Y-88138000D01*
X199777729Y-88519000D01*
X199801385Y-88637927D01*
X199868752Y-88738748D01*
X199969573Y-88806115D01*
X200088500Y-88829771D01*
X204279500Y-88829771D01*
X204398427Y-88806115D01*
X204499248Y-88738748D01*
X204566615Y-88637927D01*
X204590271Y-88519000D01*
X204590271Y-86741000D01*
X204566615Y-86622073D01*
X204513144Y-86542048D01*
X204624811Y-86495794D01*
X204796294Y-86324311D01*
X204889100Y-86100257D01*
X204889100Y-85394800D01*
X204736700Y-85242400D01*
X202336400Y-85242400D01*
X202336400Y-85262400D01*
X202031600Y-85262400D01*
X202031600Y-85242400D01*
X199631300Y-85242400D01*
X199478900Y-85394800D01*
X199478900Y-86100257D01*
X199571706Y-86324311D01*
X199743189Y-86495794D01*
X199854856Y-86542048D01*
X199801385Y-86622073D01*
X199777729Y-86741000D01*
X199777729Y-87122000D01*
X196099733Y-87122000D01*
X196111194Y-87114342D01*
X196342447Y-86768247D01*
X196423652Y-86360000D01*
X196342447Y-85951753D01*
X196111194Y-85605658D01*
X195765099Y-85374405D01*
X195356852Y-85293200D01*
X194279148Y-85293200D01*
X193870901Y-85374405D01*
X193524806Y-85605658D01*
X193293553Y-85951753D01*
X193212348Y-86360000D01*
X193293553Y-86768247D01*
X193524806Y-87114342D01*
X193536267Y-87122000D01*
X192543733Y-87122000D01*
X192555194Y-87114342D01*
X192786447Y-86768247D01*
X192867652Y-86360000D01*
X192786447Y-85951753D01*
X192555194Y-85605658D01*
X192209099Y-85374405D01*
X191800852Y-85293200D01*
X190723148Y-85293200D01*
X190314901Y-85374405D01*
X189968806Y-85605658D01*
X189737553Y-85951753D01*
X189656348Y-86360000D01*
X189737553Y-86768247D01*
X189968806Y-87114342D01*
X189980267Y-87122000D01*
X178950220Y-87122000D01*
X171998772Y-80170552D01*
X172204342Y-80033194D01*
X172435595Y-79687099D01*
X172516800Y-79278852D01*
X172516800Y-78201148D01*
X172435595Y-77792901D01*
X172338642Y-77647800D01*
X173101358Y-77647800D01*
X173004405Y-77792901D01*
X172923200Y-78201148D01*
X172923200Y-79278852D01*
X173004405Y-79687099D01*
X173235658Y-80033194D01*
X173482000Y-80197794D01*
X173482000Y-80340200D01*
X173520669Y-80534603D01*
X173630790Y-80699410D01*
X175644090Y-82712710D01*
X175808896Y-82822831D01*
X176003300Y-82861500D01*
X190274350Y-82861500D01*
X189968806Y-83065658D01*
X189737553Y-83411753D01*
X189656348Y-83820000D01*
X189737553Y-84228247D01*
X189968806Y-84574342D01*
X190314901Y-84805595D01*
X190723148Y-84886800D01*
X191800852Y-84886800D01*
X192209099Y-84805595D01*
X192555194Y-84574342D01*
X192786447Y-84228247D01*
X192867652Y-83820000D01*
X192786447Y-83411753D01*
X192555194Y-83065658D01*
X192249650Y-82861500D01*
X193830350Y-82861500D01*
X193524806Y-83065658D01*
X193293553Y-83411753D01*
X193212348Y-83820000D01*
X193293553Y-84228247D01*
X193524806Y-84574342D01*
X193870901Y-84805595D01*
X194279148Y-84886800D01*
X195356852Y-84886800D01*
X195765099Y-84805595D01*
X196111194Y-84574342D01*
X196342447Y-84228247D01*
X196423652Y-83820000D01*
X196342447Y-83411753D01*
X196111194Y-83065658D01*
X195805650Y-82861500D01*
X197872000Y-82861500D01*
X197878761Y-82860155D01*
X197878526Y-83129693D01*
X198030948Y-83498581D01*
X198312934Y-83781061D01*
X198681556Y-83934126D01*
X199080693Y-83934474D01*
X199449581Y-83782052D01*
X199732061Y-83500066D01*
X199777729Y-83390085D01*
X199777729Y-83439000D01*
X199801385Y-83557927D01*
X199854856Y-83637952D01*
X199743189Y-83684206D01*
X199571706Y-83855689D01*
X199478900Y-84079743D01*
X199478900Y-84785200D01*
X199631300Y-84937600D01*
X202031600Y-84937600D01*
X202031600Y-84917600D01*
X202336400Y-84917600D01*
X202336400Y-84937600D01*
X204736700Y-84937600D01*
X204889100Y-84785200D01*
X204889100Y-84079743D01*
X204796294Y-83855689D01*
X204624811Y-83684206D01*
X204513144Y-83637952D01*
X204566615Y-83557927D01*
X204590271Y-83439000D01*
X204590271Y-83129693D01*
X207784526Y-83129693D01*
X207936948Y-83498581D01*
X208218934Y-83781061D01*
X208587556Y-83934126D01*
X208986693Y-83934474D01*
X209355581Y-83782052D01*
X209638061Y-83500066D01*
X209791126Y-83131444D01*
X209791474Y-82732307D01*
X209639052Y-82363419D01*
X209357066Y-82080939D01*
X208988444Y-81927874D01*
X208589307Y-81927526D01*
X208220419Y-82079948D01*
X207937939Y-82361934D01*
X207784874Y-82730556D01*
X207784526Y-83129693D01*
X204590271Y-83129693D01*
X204590271Y-81661000D01*
X204566615Y-81542073D01*
X204499248Y-81441252D01*
X204398427Y-81373885D01*
X204279500Y-81350229D01*
X200088500Y-81350229D01*
X199969573Y-81373885D01*
X199902802Y-81418500D01*
X198299000Y-81418500D01*
X198104596Y-81457169D01*
X197939790Y-81567290D01*
X197661580Y-81845500D01*
X196237374Y-81845500D01*
X196342447Y-81688247D01*
X196423652Y-81280000D01*
X196342447Y-80871753D01*
X196111194Y-80525658D01*
X195765099Y-80294405D01*
X195356852Y-80213200D01*
X194279148Y-80213200D01*
X193870901Y-80294405D01*
X193524806Y-80525658D01*
X193293553Y-80871753D01*
X193212348Y-81280000D01*
X193293553Y-81688247D01*
X193398626Y-81845500D01*
X192681374Y-81845500D01*
X192786447Y-81688247D01*
X192867652Y-81280000D01*
X192786447Y-80871753D01*
X192555194Y-80525658D01*
X192209099Y-80294405D01*
X191800852Y-80213200D01*
X190723148Y-80213200D01*
X190314901Y-80294405D01*
X189968806Y-80525658D01*
X189737553Y-80871753D01*
X189656348Y-81280000D01*
X189737553Y-81688247D01*
X189842626Y-81845500D01*
X176213720Y-81845500D01*
X174538772Y-80170552D01*
X174744342Y-80033194D01*
X174975595Y-79687099D01*
X175056800Y-79278852D01*
X175056800Y-78201148D01*
X174975595Y-77792901D01*
X174878642Y-77647800D01*
X175641358Y-77647800D01*
X175544405Y-77792901D01*
X175463200Y-78201148D01*
X175463200Y-79278852D01*
X175544405Y-79687099D01*
X175775658Y-80033194D01*
X176121753Y-80264447D01*
X176530000Y-80345652D01*
X176938247Y-80264447D01*
X177284342Y-80033194D01*
X177515595Y-79687099D01*
X177596800Y-79278852D01*
X177596800Y-78201148D01*
X177515595Y-77792901D01*
X177418642Y-77647800D01*
X178181358Y-77647800D01*
X178084405Y-77792901D01*
X178003200Y-78201148D01*
X178003200Y-79278852D01*
X178084405Y-79687099D01*
X178315658Y-80033194D01*
X178661753Y-80264447D01*
X179070000Y-80345652D01*
X179478247Y-80264447D01*
X179824342Y-80033194D01*
X180055595Y-79687099D01*
X180136800Y-79278852D01*
X180136800Y-78201148D01*
X180055595Y-77792901D01*
X179958642Y-77647800D01*
X180721358Y-77647800D01*
X180624405Y-77792901D01*
X180543200Y-78201148D01*
X180543200Y-79278852D01*
X180624405Y-79687099D01*
X180855658Y-80033194D01*
X181201753Y-80264447D01*
X181610000Y-80345652D01*
X182018247Y-80264447D01*
X182364342Y-80033194D01*
X182595595Y-79687099D01*
X182676800Y-79278852D01*
X182676800Y-78201148D01*
X182595595Y-77792901D01*
X182498642Y-77647800D01*
X183261358Y-77647800D01*
X183164405Y-77792901D01*
X183083200Y-78201148D01*
X183083200Y-79278852D01*
X183164405Y-79687099D01*
X183395658Y-80033194D01*
X183741753Y-80264447D01*
X184150000Y-80345652D01*
X184558247Y-80264447D01*
X184904342Y-80033194D01*
X185135595Y-79687099D01*
X185216800Y-79278852D01*
X185216800Y-79152477D01*
X185876840Y-79152477D01*
X186193259Y-79918270D01*
X186778648Y-80504682D01*
X187543888Y-80822437D01*
X188372477Y-80823160D01*
X189138270Y-80506741D01*
X189724682Y-79921352D01*
X190042437Y-79156112D01*
X190043160Y-78327523D01*
X189781042Y-77693148D01*
X190703200Y-77693148D01*
X190703200Y-78770852D01*
X190784405Y-79179099D01*
X191015658Y-79525194D01*
X191361753Y-79756447D01*
X191770000Y-79837652D01*
X192178247Y-79756447D01*
X192524342Y-79525194D01*
X192755595Y-79179099D01*
X192836800Y-78770852D01*
X192836800Y-77693148D01*
X193243200Y-77693148D01*
X193243200Y-78770852D01*
X193324405Y-79179099D01*
X193555658Y-79525194D01*
X193901753Y-79756447D01*
X194310000Y-79837652D01*
X194718247Y-79756447D01*
X195064342Y-79525194D01*
X195295595Y-79179099D01*
X195376800Y-78770852D01*
X195376800Y-77693148D01*
X195295595Y-77284901D01*
X195064342Y-76938806D01*
X194718247Y-76707553D01*
X194310000Y-76626348D01*
X193901753Y-76707553D01*
X193555658Y-76938806D01*
X193324405Y-77284901D01*
X193243200Y-77693148D01*
X192836800Y-77693148D01*
X192755595Y-77284901D01*
X192524342Y-76938806D01*
X192178247Y-76707553D01*
X191770000Y-76626348D01*
X191361753Y-76707553D01*
X191015658Y-76938806D01*
X190784405Y-77284901D01*
X190703200Y-77693148D01*
X189781042Y-77693148D01*
X189726741Y-77561730D01*
X189141352Y-76975318D01*
X188376112Y-76657563D01*
X187547523Y-76656840D01*
X186781730Y-76973259D01*
X186195318Y-77558648D01*
X185877563Y-78323888D01*
X185876840Y-79152477D01*
X185216800Y-79152477D01*
X185216800Y-78201148D01*
X185135595Y-77792901D01*
X184904342Y-77446806D01*
X184658000Y-77282206D01*
X184658000Y-77139800D01*
X184619331Y-76945397D01*
X184509210Y-76780590D01*
X184344403Y-76670469D01*
X184150000Y-76631800D01*
X171014100Y-76631800D01*
X170819697Y-76670469D01*
X170654890Y-76780589D01*
X169820790Y-77614690D01*
X169798654Y-77647819D01*
X169664342Y-77446806D01*
X169318247Y-77215553D01*
X168910000Y-77134348D01*
X168501753Y-77215553D01*
X168155658Y-77446806D01*
X167924405Y-77792901D01*
X167843200Y-78201148D01*
X167843200Y-79278852D01*
X167924405Y-79687099D01*
X168155658Y-80033194D01*
X168501753Y-80264447D01*
X168910000Y-80345652D01*
X169318247Y-80264447D01*
X169664342Y-80033194D01*
X169672000Y-80021733D01*
X169672000Y-82689579D01*
X159480990Y-92880590D01*
X159370869Y-93045397D01*
X159332200Y-93239800D01*
X159332200Y-93999979D01*
X159112566Y-94219613D01*
X159112566Y-92075000D01*
X159084967Y-91936252D01*
X159006373Y-91818627D01*
X158888748Y-91740033D01*
X158750000Y-91712434D01*
X156210000Y-91712434D01*
X156071252Y-91740033D01*
X155953627Y-91818627D01*
X155875033Y-91936252D01*
X155847434Y-92075000D01*
X155847434Y-94615000D01*
X155875033Y-94753748D01*
X155953627Y-94871373D01*
X156071252Y-94949967D01*
X156210000Y-94977566D01*
X158354613Y-94977566D01*
X151805380Y-101526800D01*
X122539321Y-101526800D01*
X122195310Y-101182790D01*
X122030503Y-101072669D01*
X121836100Y-101034000D01*
X109120801Y-101034000D01*
X109177363Y-100962970D01*
X109326163Y-100445096D01*
X109174825Y-100228400D01*
X108102400Y-100228400D01*
X108102400Y-100248400D01*
X107797600Y-100248400D01*
X107797600Y-100228400D01*
X106725175Y-100228400D01*
X106573837Y-100445096D01*
X106722637Y-100962970D01*
X106779199Y-101034000D01*
X104615100Y-101034000D01*
X104452950Y-101066254D01*
X104420696Y-101072669D01*
X104255890Y-101182790D01*
X103475490Y-101963190D01*
X103365369Y-102127997D01*
X103326700Y-102322400D01*
X103326700Y-103365600D01*
X103365369Y-103560003D01*
X103475490Y-103724810D01*
X115857690Y-116107010D01*
X116022496Y-116217131D01*
X116216900Y-116255800D01*
X121609229Y-116255800D01*
X121609229Y-119253000D01*
X121632885Y-119371927D01*
X121700252Y-119472748D01*
X121801073Y-119540115D01*
X121920000Y-119563771D01*
X123190000Y-119563771D01*
X123308927Y-119540115D01*
X123409748Y-119472748D01*
X123477115Y-119371927D01*
X123500771Y-119253000D01*
X123500771Y-117970300D01*
X126390400Y-117970300D01*
X126390400Y-119374257D01*
X126483206Y-119598311D01*
X126654689Y-119769794D01*
X126878743Y-119862600D01*
X127330200Y-119862600D01*
X127482600Y-119710200D01*
X127482600Y-117817900D01*
X127787400Y-117817900D01*
X127787400Y-119710200D01*
X127939800Y-119862600D01*
X128391257Y-119862600D01*
X128615311Y-119769794D01*
X128786794Y-119598311D01*
X128879600Y-119374257D01*
X128879600Y-117970300D01*
X128727200Y-117817900D01*
X127787400Y-117817900D01*
X127482600Y-117817900D01*
X126542800Y-117817900D01*
X126390400Y-117970300D01*
X123500771Y-117970300D01*
X123500771Y-116078000D01*
X123477115Y-115959073D01*
X123409748Y-115858252D01*
X123308927Y-115790885D01*
X123190000Y-115767229D01*
X123063000Y-115767229D01*
X123063000Y-115747800D01*
X123024331Y-115553397D01*
X122914210Y-115388590D01*
X122749403Y-115278469D01*
X122555000Y-115239800D01*
X121236179Y-115239800D01*
X121259600Y-115183257D01*
X121259600Y-113779300D01*
X121107200Y-113626900D01*
X120167400Y-113626900D01*
X120167400Y-113646900D01*
X119862600Y-113646900D01*
X119862600Y-113626900D01*
X118922800Y-113626900D01*
X118770400Y-113779300D01*
X118770400Y-115183257D01*
X118793821Y-115239800D01*
X116427320Y-115239800D01*
X112953263Y-111765743D01*
X118770400Y-111765743D01*
X118770400Y-113169700D01*
X118922800Y-113322100D01*
X119862600Y-113322100D01*
X119862600Y-111429800D01*
X120167400Y-111429800D01*
X120167400Y-113322100D01*
X121107200Y-113322100D01*
X121259600Y-113169700D01*
X121259600Y-111765743D01*
X121166794Y-111541689D01*
X120995311Y-111370206D01*
X120771257Y-111277400D01*
X120319800Y-111277400D01*
X120167400Y-111429800D01*
X119862600Y-111429800D01*
X119710200Y-111277400D01*
X119258743Y-111277400D01*
X119034689Y-111370206D01*
X118863206Y-111541689D01*
X118770400Y-111765743D01*
X112953263Y-111765743D01*
X108402917Y-107215397D01*
X108841708Y-106972480D01*
X109177363Y-106550970D01*
X109326163Y-106033096D01*
X109174825Y-105816400D01*
X108102400Y-105816400D01*
X108102400Y-105836400D01*
X107797600Y-105836400D01*
X107797600Y-105816400D01*
X107777600Y-105816400D01*
X107777600Y-105511600D01*
X107797600Y-105511600D01*
X107797600Y-105491600D01*
X108102400Y-105491600D01*
X108102400Y-105511600D01*
X109174825Y-105511600D01*
X109326163Y-105294904D01*
X109177363Y-104777030D01*
X109175746Y-104775000D01*
X110706880Y-104775000D01*
X115603590Y-109671711D01*
X115768397Y-109781831D01*
X115962800Y-109820500D01*
X176735670Y-109820500D01*
X176059207Y-110496963D01*
X175895000Y-110464300D01*
X146312966Y-110464300D01*
X146117312Y-110268304D01*
X145823348Y-110146239D01*
X145505048Y-110145961D01*
X145210872Y-110267513D01*
X145013741Y-110464300D01*
X144484600Y-110464300D01*
X144192995Y-110522304D01*
X143995008Y-110654595D01*
X143945785Y-110687485D01*
X135574370Y-119058900D01*
X132983330Y-119058900D01*
X130439462Y-116515032D01*
X130650590Y-116427796D01*
X130861556Y-116217199D01*
X130975870Y-115941899D01*
X130976130Y-115643809D01*
X130862296Y-115368310D01*
X130857348Y-115363353D01*
X130928927Y-115349115D01*
X131029748Y-115281748D01*
X131097115Y-115180927D01*
X131120771Y-115062000D01*
X131120771Y-111887000D01*
X131097115Y-111768073D01*
X131029748Y-111667252D01*
X130928927Y-111599885D01*
X130810000Y-111576229D01*
X129540000Y-111576229D01*
X129421073Y-111599885D01*
X129320252Y-111667252D01*
X129252885Y-111768073D01*
X129229229Y-111887000D01*
X129229229Y-115023899D01*
X129081315Y-114875985D01*
X129040652Y-114848815D01*
X128834105Y-114710804D01*
X128542500Y-114652800D01*
X126374600Y-114652800D01*
X126095850Y-114708247D01*
X126092566Y-114708900D01*
X126092566Y-111887000D01*
X126064967Y-111748252D01*
X125986373Y-111630627D01*
X125868748Y-111552033D01*
X125730000Y-111524434D01*
X124460000Y-111524434D01*
X124321252Y-111552033D01*
X124203627Y-111630627D01*
X124125033Y-111748252D01*
X124097434Y-111887000D01*
X124097434Y-115062000D01*
X124125033Y-115200748D01*
X124203627Y-115318373D01*
X124321252Y-115396967D01*
X124333000Y-115399304D01*
X124333000Y-115722700D01*
X124391004Y-116014305D01*
X124556185Y-116261515D01*
X124803395Y-116426696D01*
X125095000Y-116484700D01*
X126066700Y-116484700D01*
X126358305Y-116426696D01*
X126390400Y-116405251D01*
X126390400Y-117360700D01*
X126542800Y-117513100D01*
X127482600Y-117513100D01*
X127482600Y-117493100D01*
X127787400Y-117493100D01*
X127787400Y-117513100D01*
X128727200Y-117513100D01*
X128879600Y-117360700D01*
X128879600Y-117110430D01*
X132128885Y-120359715D01*
X132376095Y-120524896D01*
X132667700Y-120582900D01*
X135128000Y-120582900D01*
X135128000Y-125651005D01*
X135099737Y-125669890D01*
X134857472Y-126032466D01*
X134772400Y-126460153D01*
X134772400Y-127539847D01*
X134857472Y-127967534D01*
X134991887Y-128168700D01*
X134187526Y-128168700D01*
X134335595Y-127947099D01*
X134416800Y-127538852D01*
X134416800Y-126461148D01*
X134335595Y-126052901D01*
X134104342Y-125706806D01*
X133758247Y-125475553D01*
X133350000Y-125394348D01*
X132941753Y-125475553D01*
X132595658Y-125706806D01*
X132364405Y-126052901D01*
X132283200Y-126461148D01*
X132283200Y-127538852D01*
X132364405Y-127947099D01*
X132512474Y-128168700D01*
X131647526Y-128168700D01*
X131795595Y-127947099D01*
X131876800Y-127538852D01*
X131876800Y-126461148D01*
X131795595Y-126052901D01*
X131564342Y-125706806D01*
X131218247Y-125475553D01*
X130810000Y-125394348D01*
X130401753Y-125475553D01*
X130055658Y-125706806D01*
X129824405Y-126052901D01*
X129743200Y-126461148D01*
X129743200Y-127538852D01*
X129824405Y-127947099D01*
X129972474Y-128168700D01*
X129107526Y-128168700D01*
X129255595Y-127947099D01*
X129336800Y-127538852D01*
X129336800Y-126461148D01*
X129255595Y-126052901D01*
X129024342Y-125706806D01*
X128678247Y-125475553D01*
X128270000Y-125394348D01*
X127861753Y-125475553D01*
X127515658Y-125706806D01*
X127284405Y-126052901D01*
X127203200Y-126461148D01*
X127203200Y-127538852D01*
X127284405Y-127947099D01*
X127432474Y-128168700D01*
X126567526Y-128168700D01*
X126715595Y-127947099D01*
X126796800Y-127538852D01*
X126796800Y-126461148D01*
X126715595Y-126052901D01*
X126484342Y-125706806D01*
X126138247Y-125475553D01*
X125730000Y-125394348D01*
X125321753Y-125475553D01*
X124975658Y-125706806D01*
X124744405Y-126052901D01*
X124663200Y-126461148D01*
X124663200Y-127538852D01*
X124744405Y-127947099D01*
X124892474Y-128168700D01*
X121824830Y-128168700D01*
X110269615Y-116613485D01*
X110199004Y-116566304D01*
X110022405Y-116448304D01*
X109730800Y-116390300D01*
X105402931Y-116390300D01*
X103871680Y-114859050D01*
X104367104Y-114615631D01*
X104713872Y-114203688D01*
X104876600Y-113690400D01*
X104876600Y-113182400D01*
X103657400Y-113182400D01*
X103657400Y-113202400D01*
X103352600Y-113202400D01*
X103352600Y-113182400D01*
X102195030Y-113182400D01*
X102082600Y-113069970D01*
X102082600Y-112490153D01*
X102058621Y-112369600D01*
X102133400Y-112369600D01*
X102133400Y-112877600D01*
X103352600Y-112877600D01*
X103352600Y-111312363D01*
X103657400Y-111312363D01*
X103657400Y-112877600D01*
X104876600Y-112877600D01*
X104876600Y-112490153D01*
X104927400Y-112490153D01*
X104927400Y-113569847D01*
X105012472Y-113997534D01*
X105254737Y-114360110D01*
X105617313Y-114602375D01*
X106045000Y-114687447D01*
X106472687Y-114602375D01*
X106835263Y-114360110D01*
X107077528Y-113997534D01*
X107162600Y-113569847D01*
X107162600Y-112490153D01*
X107077528Y-112062466D01*
X106835263Y-111699890D01*
X106472687Y-111457625D01*
X106045000Y-111372553D01*
X105617313Y-111457625D01*
X105254737Y-111699890D01*
X105012472Y-112062466D01*
X104927400Y-112490153D01*
X104876600Y-112490153D01*
X104876600Y-112369600D01*
X104713872Y-111856312D01*
X104367104Y-111444369D01*
X103868761Y-111199516D01*
X103657400Y-111312363D01*
X103352600Y-111312363D01*
X103141239Y-111199516D01*
X102642896Y-111444369D01*
X102296128Y-111856312D01*
X102133400Y-112369600D01*
X102058621Y-112369600D01*
X101997528Y-112062466D01*
X101755263Y-111699890D01*
X101392687Y-111457625D01*
X100965000Y-111372553D01*
X100537313Y-111457625D01*
X100174737Y-111699890D01*
X99932472Y-112062466D01*
X99847400Y-112490153D01*
X93764100Y-112490153D01*
X93764100Y-107950000D01*
X96159467Y-107950000D01*
X96298676Y-108649851D01*
X96695110Y-109243157D01*
X97288416Y-109639591D01*
X97988267Y-109778800D01*
X100131733Y-109778800D01*
X100831584Y-109639591D01*
X101424890Y-109243157D01*
X101821324Y-108649851D01*
X101960533Y-107950000D01*
X101821324Y-107250149D01*
X101424890Y-106656843D01*
X100831584Y-106260409D01*
X100131733Y-106121200D01*
X97988267Y-106121200D01*
X97288416Y-106260409D01*
X96695110Y-106656843D01*
X96298676Y-107250149D01*
X96159467Y-107950000D01*
X93764100Y-107950000D01*
X93764100Y-99706904D01*
X106573837Y-99706904D01*
X106725175Y-99923600D01*
X107797600Y-99923600D01*
X107797600Y-98612363D01*
X108102400Y-98612363D01*
X108102400Y-99923600D01*
X109174825Y-99923600D01*
X109326163Y-99706904D01*
X109177363Y-99189030D01*
X108841708Y-98767520D01*
X108370299Y-98506546D01*
X108313761Y-98499516D01*
X108102400Y-98612363D01*
X107797600Y-98612363D01*
X107586239Y-98499516D01*
X107529701Y-98506546D01*
X107058292Y-98767520D01*
X106722637Y-99189030D01*
X106573837Y-99706904D01*
X93764100Y-99706904D01*
X93764100Y-97790000D01*
X96159467Y-97790000D01*
X96298676Y-98489851D01*
X96695110Y-99083157D01*
X97288416Y-99479591D01*
X97988267Y-99618800D01*
X100131733Y-99618800D01*
X100831584Y-99479591D01*
X101424890Y-99083157D01*
X101821324Y-98489851D01*
X101890092Y-98144129D01*
X113817400Y-98144129D01*
X113817400Y-98705871D01*
X113902472Y-99133558D01*
X114144737Y-99496134D01*
X114507313Y-99738399D01*
X114935000Y-99823471D01*
X115362687Y-99738399D01*
X115725263Y-99496134D01*
X115967528Y-99133558D01*
X115987212Y-99034600D01*
X127852788Y-99034600D01*
X127872472Y-99133558D01*
X128114737Y-99496134D01*
X128477313Y-99738399D01*
X128905000Y-99823471D01*
X129332687Y-99738399D01*
X129695263Y-99496134D01*
X129937528Y-99133558D01*
X129957212Y-99034600D01*
X132932788Y-99034600D01*
X132952472Y-99133558D01*
X133194737Y-99496134D01*
X133557313Y-99738399D01*
X133985000Y-99823471D01*
X134412687Y-99738399D01*
X134775263Y-99496134D01*
X135017528Y-99133558D01*
X135037212Y-99034600D01*
X146902788Y-99034600D01*
X146922472Y-99133558D01*
X147164737Y-99496134D01*
X147527313Y-99738399D01*
X147955000Y-99823471D01*
X148382687Y-99738399D01*
X148745263Y-99496134D01*
X148987528Y-99133558D01*
X149007212Y-99034600D01*
X151982788Y-99034600D01*
X152002472Y-99133558D01*
X152244737Y-99496134D01*
X152607313Y-99738399D01*
X153035000Y-99823471D01*
X153462687Y-99738399D01*
X153825263Y-99496134D01*
X154067528Y-99133558D01*
X154152600Y-98705871D01*
X154152600Y-98144129D01*
X154067528Y-97716442D01*
X153825263Y-97353866D01*
X153462687Y-97111601D01*
X153035000Y-97026529D01*
X152607313Y-97111601D01*
X152244737Y-97353866D01*
X152002472Y-97716442D01*
X151982788Y-97815400D01*
X149007212Y-97815400D01*
X148987528Y-97716442D01*
X148745263Y-97353866D01*
X148382687Y-97111601D01*
X147955000Y-97026529D01*
X147527313Y-97111601D01*
X147164737Y-97353866D01*
X146922472Y-97716442D01*
X146902788Y-97815400D01*
X135037212Y-97815400D01*
X135017528Y-97716442D01*
X134775263Y-97353866D01*
X134412687Y-97111601D01*
X133985000Y-97026529D01*
X133557313Y-97111601D01*
X133194737Y-97353866D01*
X132952472Y-97716442D01*
X132932788Y-97815400D01*
X129957212Y-97815400D01*
X129937528Y-97716442D01*
X129695263Y-97353866D01*
X129332687Y-97111601D01*
X128905000Y-97026529D01*
X128477313Y-97111601D01*
X128114737Y-97353866D01*
X127872472Y-97716442D01*
X127852788Y-97815400D01*
X115987212Y-97815400D01*
X115967528Y-97716442D01*
X115725263Y-97353866D01*
X115362687Y-97111601D01*
X114935000Y-97026529D01*
X114507313Y-97111601D01*
X114144737Y-97353866D01*
X113902472Y-97716442D01*
X113817400Y-98144129D01*
X101890092Y-98144129D01*
X101960533Y-97790000D01*
X101821324Y-97090149D01*
X101424890Y-96496843D01*
X100831584Y-96100409D01*
X100131733Y-95961200D01*
X97988267Y-95961200D01*
X97288416Y-96100409D01*
X96695110Y-96496843D01*
X96298676Y-97090149D01*
X96159467Y-97790000D01*
X93764100Y-97790000D01*
X93764100Y-93064129D01*
X113817400Y-93064129D01*
X113817400Y-93625871D01*
X113902472Y-94053558D01*
X114144737Y-94416134D01*
X114507313Y-94658399D01*
X114935000Y-94743471D01*
X115362687Y-94658399D01*
X115725263Y-94416134D01*
X115967528Y-94053558D01*
X116052600Y-93625871D01*
X116052600Y-93064129D01*
X115967528Y-92636442D01*
X115725263Y-92273866D01*
X115362687Y-92031601D01*
X114935000Y-91946529D01*
X114507313Y-92031601D01*
X114144737Y-92273866D01*
X113902472Y-92636442D01*
X113817400Y-93064129D01*
X93764100Y-93064129D01*
X93764100Y-92919171D01*
X98552000Y-92919171D01*
X98670927Y-92895515D01*
X98771748Y-92828148D01*
X98839115Y-92727327D01*
X98862771Y-92608400D01*
X98862771Y-90756437D01*
X99125934Y-91020061D01*
X99494556Y-91173126D01*
X99893693Y-91173474D01*
X100262581Y-91021052D01*
X100545061Y-90739066D01*
X100698126Y-90370444D01*
X100698474Y-89971307D01*
X100546052Y-89602419D01*
X100264066Y-89319939D01*
X99895444Y-89166874D01*
X99496307Y-89166526D01*
X99127419Y-89318948D01*
X98844939Y-89600934D01*
X98818496Y-89664615D01*
X98771748Y-89594652D01*
X98670927Y-89527285D01*
X98552000Y-89503629D01*
X93764100Y-89503629D01*
X93764100Y-84187400D01*
X99936300Y-84187400D01*
X99936300Y-87757000D01*
X99974969Y-87951403D01*
X100085090Y-88116210D01*
X100249897Y-88226331D01*
X100444300Y-88265000D01*
X100463729Y-88265000D01*
X100463729Y-88646000D01*
X100487385Y-88764927D01*
X100554752Y-88865748D01*
X100655573Y-88933115D01*
X100774500Y-88956771D01*
X104965500Y-88956771D01*
X105084427Y-88933115D01*
X105185248Y-88865748D01*
X105252615Y-88764927D01*
X105276271Y-88646000D01*
X105276271Y-86868000D01*
X105252615Y-86749073D01*
X105199144Y-86669048D01*
X105310811Y-86622794D01*
X105482294Y-86451311D01*
X105575100Y-86227257D01*
X105575100Y-85521800D01*
X105422700Y-85369400D01*
X103022400Y-85369400D01*
X103022400Y-85389400D01*
X102717600Y-85389400D01*
X102717600Y-85369400D01*
X102697600Y-85369400D01*
X102697600Y-85064600D01*
X102717600Y-85064600D01*
X102717600Y-85044600D01*
X103022400Y-85044600D01*
X103022400Y-85064600D01*
X105422700Y-85064600D01*
X105575100Y-84912200D01*
X105575100Y-84530800D01*
X117388100Y-84530800D01*
X117582503Y-84492131D01*
X117747310Y-84382010D01*
X119152620Y-82976700D01*
X131654280Y-82976700D01*
X122142590Y-92488390D01*
X122032469Y-92653197D01*
X121993800Y-92847600D01*
X121993800Y-93238080D01*
X121012566Y-94219314D01*
X121012566Y-92075000D01*
X120984967Y-91936252D01*
X120906373Y-91818627D01*
X120788748Y-91740033D01*
X120650000Y-91712434D01*
X118110000Y-91712434D01*
X117971252Y-91740033D01*
X117853627Y-91818627D01*
X117775033Y-91936252D01*
X117747434Y-92075000D01*
X117747434Y-94615000D01*
X117775033Y-94753748D01*
X117853627Y-94871373D01*
X117971252Y-94949967D01*
X118110000Y-94977566D01*
X120254314Y-94977566D01*
X119427380Y-95804500D01*
X118343833Y-95804500D01*
X118217299Y-95677744D01*
X117941999Y-95563430D01*
X117643909Y-95563170D01*
X117368410Y-95677004D01*
X117157444Y-95887601D01*
X117043130Y-96162901D01*
X117042870Y-96460991D01*
X117156704Y-96736490D01*
X117367301Y-96947456D01*
X117642601Y-97061770D01*
X117940691Y-97062030D01*
X118216190Y-96948196D01*
X118344110Y-96820500D01*
X119637800Y-96820500D01*
X119832203Y-96781831D01*
X119997010Y-96671710D01*
X122861010Y-93807710D01*
X122886888Y-93768981D01*
X122926294Y-93967090D01*
X123278680Y-94494473D01*
X123806063Y-94846859D01*
X124428153Y-94970600D01*
X124491847Y-94970600D01*
X125113937Y-94846859D01*
X125641320Y-94494473D01*
X125993706Y-93967090D01*
X126117447Y-93345000D01*
X126061579Y-93064129D01*
X127787400Y-93064129D01*
X127787400Y-93625871D01*
X127872472Y-94053558D01*
X128114737Y-94416134D01*
X128477313Y-94658399D01*
X128905000Y-94743471D01*
X129332687Y-94658399D01*
X129695263Y-94416134D01*
X129937528Y-94053558D01*
X130022600Y-93625871D01*
X130022600Y-93064129D01*
X132867400Y-93064129D01*
X132867400Y-93625871D01*
X132952472Y-94053558D01*
X133194737Y-94416134D01*
X133557313Y-94658399D01*
X133985000Y-94743471D01*
X134412687Y-94658399D01*
X134775263Y-94416134D01*
X135017528Y-94053558D01*
X135102600Y-93625871D01*
X135102600Y-93064129D01*
X135017528Y-92636442D01*
X134775263Y-92273866D01*
X134477639Y-92075000D01*
X136797434Y-92075000D01*
X136797434Y-94615000D01*
X136825033Y-94753748D01*
X136903627Y-94871373D01*
X137021252Y-94949967D01*
X137160000Y-94977566D01*
X139700000Y-94977566D01*
X139838748Y-94949967D01*
X139956373Y-94871373D01*
X140034967Y-94753748D01*
X140062566Y-94615000D01*
X140062566Y-93345000D01*
X141852553Y-93345000D01*
X141976294Y-93967090D01*
X142328680Y-94494473D01*
X142856063Y-94846859D01*
X143478153Y-94970600D01*
X143541847Y-94970600D01*
X144163937Y-94846859D01*
X144691320Y-94494473D01*
X145043706Y-93967090D01*
X145167447Y-93345000D01*
X145111579Y-93064129D01*
X146837400Y-93064129D01*
X146837400Y-93625871D01*
X146922472Y-94053558D01*
X147164737Y-94416134D01*
X147527313Y-94658399D01*
X147955000Y-94743471D01*
X148382687Y-94658399D01*
X148745263Y-94416134D01*
X148987528Y-94053558D01*
X149072600Y-93625871D01*
X149072600Y-93064129D01*
X151917400Y-93064129D01*
X151917400Y-93625871D01*
X152002472Y-94053558D01*
X152244737Y-94416134D01*
X152607313Y-94658399D01*
X153035000Y-94743471D01*
X153462687Y-94658399D01*
X153825263Y-94416134D01*
X154067528Y-94053558D01*
X154152600Y-93625871D01*
X154152600Y-93064129D01*
X154067528Y-92636442D01*
X153825263Y-92273866D01*
X153462687Y-92031601D01*
X153035000Y-91946529D01*
X152607313Y-92031601D01*
X152244737Y-92273866D01*
X152002472Y-92636442D01*
X151917400Y-93064129D01*
X149072600Y-93064129D01*
X148987528Y-92636442D01*
X148745263Y-92273866D01*
X148382687Y-92031601D01*
X147955000Y-91946529D01*
X147527313Y-92031601D01*
X147164737Y-92273866D01*
X146922472Y-92636442D01*
X146837400Y-93064129D01*
X145111579Y-93064129D01*
X145043706Y-92722910D01*
X144691320Y-92195527D01*
X144163937Y-91843141D01*
X143541847Y-91719400D01*
X143478153Y-91719400D01*
X142856063Y-91843141D01*
X142328680Y-92195527D01*
X141976294Y-92722910D01*
X141852553Y-93345000D01*
X140062566Y-93345000D01*
X140062566Y-92075000D01*
X140034967Y-91936252D01*
X139956373Y-91818627D01*
X139838748Y-91740033D01*
X139700000Y-91712434D01*
X137160000Y-91712434D01*
X137021252Y-91740033D01*
X136903627Y-91818627D01*
X136825033Y-91936252D01*
X136797434Y-92075000D01*
X134477639Y-92075000D01*
X134412687Y-92031601D01*
X133985000Y-91946529D01*
X133557313Y-92031601D01*
X133194737Y-92273866D01*
X132952472Y-92636442D01*
X132867400Y-93064129D01*
X130022600Y-93064129D01*
X129937528Y-92636442D01*
X129695263Y-92273866D01*
X129332687Y-92031601D01*
X128905000Y-91946529D01*
X128477313Y-92031601D01*
X128114737Y-92273866D01*
X127872472Y-92636442D01*
X127787400Y-93064129D01*
X126061579Y-93064129D01*
X125993706Y-92722910D01*
X125641320Y-92195527D01*
X125113937Y-91843141D01*
X124491847Y-91719400D01*
X124428153Y-91719400D01*
X124328622Y-91739198D01*
X131429329Y-84638491D01*
X133806470Y-84638491D01*
X133920304Y-84913990D01*
X134087263Y-85081241D01*
X134196690Y-85245010D01*
X139302126Y-90350447D01*
X139301970Y-90529691D01*
X139415804Y-90805190D01*
X139626401Y-91016156D01*
X139901701Y-91130470D01*
X140199791Y-91130730D01*
X140475290Y-91016896D01*
X140686256Y-90806299D01*
X140800570Y-90530999D01*
X140800830Y-90232909D01*
X140686996Y-89957410D01*
X140476399Y-89746444D01*
X140201099Y-89632130D01*
X140020493Y-89631972D01*
X135223870Y-84835350D01*
X135305070Y-84639799D01*
X135305330Y-84341709D01*
X135191496Y-84066210D01*
X134980899Y-83855244D01*
X134705599Y-83740930D01*
X134407509Y-83740670D01*
X134132010Y-83854504D01*
X133921044Y-84065101D01*
X133806730Y-84340401D01*
X133806470Y-84638491D01*
X131429329Y-84638491D01*
X132341520Y-83726300D01*
X135389267Y-83726300D01*
X135515901Y-83853156D01*
X135791201Y-83967470D01*
X136089291Y-83967730D01*
X136364790Y-83853896D01*
X136575756Y-83643299D01*
X136690070Y-83367999D01*
X136690330Y-83069909D01*
X136651817Y-82976700D01*
X159161500Y-82976700D01*
X159355903Y-82938031D01*
X159520710Y-82827910D01*
X161649211Y-80699410D01*
X161759331Y-80534603D01*
X161798000Y-80340200D01*
X161798000Y-80197794D01*
X161866800Y-80151824D01*
X161866800Y-84330380D01*
X160360154Y-85837026D01*
X160180909Y-85836870D01*
X159905410Y-85950704D01*
X159694444Y-86161301D01*
X159580130Y-86436601D01*
X159579870Y-86734691D01*
X159693704Y-87010190D01*
X159904301Y-87221156D01*
X160179601Y-87335470D01*
X160477691Y-87335730D01*
X160753190Y-87221896D01*
X160964156Y-87011299D01*
X161078470Y-86735999D01*
X161078628Y-86555392D01*
X162734010Y-84900010D01*
X162844131Y-84735203D01*
X162882800Y-84540800D01*
X162882800Y-78201148D01*
X165303200Y-78201148D01*
X165303200Y-79278852D01*
X165384405Y-79687099D01*
X165615658Y-80033194D01*
X165961753Y-80264447D01*
X166370000Y-80345652D01*
X166778247Y-80264447D01*
X167124342Y-80033194D01*
X167355595Y-79687099D01*
X167436800Y-79278852D01*
X167436800Y-78201148D01*
X167355595Y-77792901D01*
X167124342Y-77446806D01*
X166778247Y-77215553D01*
X166370000Y-77134348D01*
X165961753Y-77215553D01*
X165615658Y-77446806D01*
X165384405Y-77792901D01*
X165303200Y-78201148D01*
X162882800Y-78201148D01*
X162882800Y-77715200D01*
X162844131Y-77520797D01*
X162771091Y-77411485D01*
X162734010Y-77355989D01*
X162158610Y-76780590D01*
X161993803Y-76670469D01*
X161799400Y-76631800D01*
X134366000Y-76631800D01*
X134171597Y-76670469D01*
X134006790Y-76780590D01*
X133896669Y-76945397D01*
X133858000Y-77139800D01*
X133858000Y-77282206D01*
X133611658Y-77446806D01*
X133380405Y-77792901D01*
X133299200Y-78201148D01*
X133299200Y-79278852D01*
X133380405Y-79687099D01*
X133611658Y-80033194D01*
X133957753Y-80264447D01*
X134366000Y-80345652D01*
X134774247Y-80264447D01*
X135120342Y-80033194D01*
X135351595Y-79687099D01*
X135432800Y-79278852D01*
X135432800Y-78201148D01*
X135351595Y-77792901D01*
X135254642Y-77647800D01*
X136017358Y-77647800D01*
X135920405Y-77792901D01*
X135839200Y-78201148D01*
X135839200Y-79278852D01*
X135920405Y-79687099D01*
X136151658Y-80033194D01*
X136497753Y-80264447D01*
X136906000Y-80345652D01*
X137314247Y-80264447D01*
X137660342Y-80033194D01*
X137891595Y-79687099D01*
X137972800Y-79278852D01*
X137972800Y-78201148D01*
X137891595Y-77792901D01*
X137794642Y-77647800D01*
X138557358Y-77647800D01*
X138460405Y-77792901D01*
X138379200Y-78201148D01*
X138379200Y-79278852D01*
X138460405Y-79687099D01*
X138691658Y-80033194D01*
X139037753Y-80264447D01*
X139446000Y-80345652D01*
X139854247Y-80264447D01*
X140200342Y-80033194D01*
X140431595Y-79687099D01*
X140512800Y-79278852D01*
X140512800Y-78201148D01*
X140431595Y-77792901D01*
X140334642Y-77647800D01*
X142621358Y-77647800D01*
X142524405Y-77792901D01*
X142443200Y-78201148D01*
X142443200Y-79278852D01*
X142524405Y-79687099D01*
X142755658Y-80033194D01*
X143101753Y-80264447D01*
X143510000Y-80345652D01*
X143918247Y-80264447D01*
X144264342Y-80033194D01*
X144495595Y-79687099D01*
X144576800Y-79278852D01*
X144576800Y-78201148D01*
X144495595Y-77792901D01*
X144398642Y-77647800D01*
X145161358Y-77647800D01*
X145064405Y-77792901D01*
X144983200Y-78201148D01*
X144983200Y-79278852D01*
X145064405Y-79687099D01*
X145295658Y-80033194D01*
X145641753Y-80264447D01*
X146050000Y-80345652D01*
X146458247Y-80264447D01*
X146804342Y-80033194D01*
X147035595Y-79687099D01*
X147116800Y-79278852D01*
X147116800Y-78201148D01*
X147035595Y-77792901D01*
X146938642Y-77647800D01*
X147701358Y-77647800D01*
X147604405Y-77792901D01*
X147523200Y-78201148D01*
X147523200Y-79278852D01*
X147604405Y-79687099D01*
X147835658Y-80033194D01*
X148181753Y-80264447D01*
X148590000Y-80345652D01*
X148998247Y-80264447D01*
X149344342Y-80033194D01*
X149575595Y-79687099D01*
X149656800Y-79278852D01*
X149656800Y-78201148D01*
X149575595Y-77792901D01*
X149478642Y-77647800D01*
X150241358Y-77647800D01*
X150144405Y-77792901D01*
X150063200Y-78201148D01*
X150063200Y-79278852D01*
X150144405Y-79687099D01*
X150375658Y-80033194D01*
X150721753Y-80264447D01*
X151130000Y-80345652D01*
X151538247Y-80264447D01*
X151884342Y-80033194D01*
X152115595Y-79687099D01*
X152196800Y-79278852D01*
X152196800Y-78201148D01*
X152115595Y-77792901D01*
X152018642Y-77647800D01*
X152781358Y-77647800D01*
X152684405Y-77792901D01*
X152603200Y-78201148D01*
X152603200Y-79278852D01*
X152684405Y-79687099D01*
X152915658Y-80033194D01*
X153261753Y-80264447D01*
X153670000Y-80345652D01*
X154078247Y-80264447D01*
X154424342Y-80033194D01*
X154655595Y-79687099D01*
X154736800Y-79278852D01*
X154736800Y-78201148D01*
X154655595Y-77792901D01*
X154558642Y-77647800D01*
X155321358Y-77647800D01*
X155224405Y-77792901D01*
X155143200Y-78201148D01*
X155143200Y-79278852D01*
X155224405Y-79687099D01*
X155455658Y-80033194D01*
X155801753Y-80264447D01*
X156210000Y-80345652D01*
X156618247Y-80264447D01*
X156964342Y-80033194D01*
X157195595Y-79687099D01*
X157276800Y-79278852D01*
X157276800Y-78201148D01*
X157195595Y-77792901D01*
X157098642Y-77647800D01*
X157861358Y-77647800D01*
X157764405Y-77792901D01*
X157683200Y-78201148D01*
X157683200Y-79278852D01*
X157764405Y-79687099D01*
X157995658Y-80033194D01*
X158201228Y-80170552D01*
X157421980Y-80949800D01*
X106514900Y-80949800D01*
X106320496Y-80988469D01*
X106155690Y-81098590D01*
X105276271Y-81978009D01*
X105276271Y-81788000D01*
X105252615Y-81669073D01*
X105185248Y-81568252D01*
X105084427Y-81500885D01*
X104965500Y-81477229D01*
X100774500Y-81477229D01*
X100655573Y-81500885D01*
X100554752Y-81568252D01*
X100487385Y-81669073D01*
X100463729Y-81788000D01*
X100463729Y-83543676D01*
X100414497Y-83553469D01*
X100249690Y-83663589D01*
X100085090Y-83828190D01*
X99974969Y-83992997D01*
X99936300Y-84187400D01*
X93764100Y-84187400D01*
X93764100Y-80930371D01*
X98552000Y-80930371D01*
X98670927Y-80906715D01*
X98771748Y-80839348D01*
X98818343Y-80769614D01*
X98843948Y-80831581D01*
X99125934Y-81114061D01*
X99494556Y-81267126D01*
X99893693Y-81267474D01*
X100262581Y-81115052D01*
X100545061Y-80833066D01*
X100698126Y-80464444D01*
X100698474Y-80065307D01*
X100546052Y-79696419D01*
X100264066Y-79413939D01*
X99895444Y-79260874D01*
X99496307Y-79260526D01*
X99127419Y-79412948D01*
X98862771Y-79677133D01*
X98862771Y-79152477D01*
X110946840Y-79152477D01*
X111263259Y-79918270D01*
X111848648Y-80504682D01*
X112613888Y-80822437D01*
X113442477Y-80823160D01*
X114208270Y-80506741D01*
X114794682Y-79921352D01*
X115112437Y-79156112D01*
X115113160Y-78327523D01*
X115060943Y-78201148D01*
X115519200Y-78201148D01*
X115519200Y-79278852D01*
X115600405Y-79687099D01*
X115831658Y-80033194D01*
X116177753Y-80264447D01*
X116586000Y-80345652D01*
X116994247Y-80264447D01*
X117340342Y-80033194D01*
X117571595Y-79687099D01*
X117652800Y-79278852D01*
X117652800Y-78201148D01*
X118059200Y-78201148D01*
X118059200Y-79278852D01*
X118140405Y-79687099D01*
X118371658Y-80033194D01*
X118717753Y-80264447D01*
X119126000Y-80345652D01*
X119534247Y-80264447D01*
X119880342Y-80033194D01*
X120111595Y-79687099D01*
X120192800Y-79278852D01*
X120192800Y-78201148D01*
X120599200Y-78201148D01*
X120599200Y-79278852D01*
X120680405Y-79687099D01*
X120911658Y-80033194D01*
X121257753Y-80264447D01*
X121666000Y-80345652D01*
X122074247Y-80264447D01*
X122420342Y-80033194D01*
X122651595Y-79687099D01*
X122732800Y-79278852D01*
X122732800Y-78201148D01*
X123139200Y-78201148D01*
X123139200Y-79278852D01*
X123220405Y-79687099D01*
X123451658Y-80033194D01*
X123797753Y-80264447D01*
X124206000Y-80345652D01*
X124614247Y-80264447D01*
X124960342Y-80033194D01*
X125191595Y-79687099D01*
X125272800Y-79278852D01*
X125272800Y-78201148D01*
X125679200Y-78201148D01*
X125679200Y-79278852D01*
X125760405Y-79687099D01*
X125991658Y-80033194D01*
X126337753Y-80264447D01*
X126746000Y-80345652D01*
X127154247Y-80264447D01*
X127500342Y-80033194D01*
X127731595Y-79687099D01*
X127812800Y-79278852D01*
X127812800Y-78201148D01*
X128219200Y-78201148D01*
X128219200Y-79278852D01*
X128300405Y-79687099D01*
X128531658Y-80033194D01*
X128877753Y-80264447D01*
X129286000Y-80345652D01*
X129694247Y-80264447D01*
X130040342Y-80033194D01*
X130271595Y-79687099D01*
X130352800Y-79278852D01*
X130352800Y-78201148D01*
X130759200Y-78201148D01*
X130759200Y-79278852D01*
X130840405Y-79687099D01*
X131071658Y-80033194D01*
X131417753Y-80264447D01*
X131826000Y-80345652D01*
X132234247Y-80264447D01*
X132580342Y-80033194D01*
X132811595Y-79687099D01*
X132892800Y-79278852D01*
X132892800Y-78201148D01*
X132811595Y-77792901D01*
X132580342Y-77446806D01*
X132234247Y-77215553D01*
X131826000Y-77134348D01*
X131417753Y-77215553D01*
X131071658Y-77446806D01*
X130840405Y-77792901D01*
X130759200Y-78201148D01*
X130352800Y-78201148D01*
X130271595Y-77792901D01*
X130040342Y-77446806D01*
X129694247Y-77215553D01*
X129286000Y-77134348D01*
X128877753Y-77215553D01*
X128531658Y-77446806D01*
X128300405Y-77792901D01*
X128219200Y-78201148D01*
X127812800Y-78201148D01*
X127731595Y-77792901D01*
X127500342Y-77446806D01*
X127154247Y-77215553D01*
X126746000Y-77134348D01*
X126337753Y-77215553D01*
X125991658Y-77446806D01*
X125760405Y-77792901D01*
X125679200Y-78201148D01*
X125272800Y-78201148D01*
X125191595Y-77792901D01*
X124960342Y-77446806D01*
X124614247Y-77215553D01*
X124206000Y-77134348D01*
X123797753Y-77215553D01*
X123451658Y-77446806D01*
X123220405Y-77792901D01*
X123139200Y-78201148D01*
X122732800Y-78201148D01*
X122651595Y-77792901D01*
X122420342Y-77446806D01*
X122074247Y-77215553D01*
X121666000Y-77134348D01*
X121257753Y-77215553D01*
X120911658Y-77446806D01*
X120680405Y-77792901D01*
X120599200Y-78201148D01*
X120192800Y-78201148D01*
X120111595Y-77792901D01*
X119880342Y-77446806D01*
X119534247Y-77215553D01*
X119126000Y-77134348D01*
X118717753Y-77215553D01*
X118371658Y-77446806D01*
X118140405Y-77792901D01*
X118059200Y-78201148D01*
X117652800Y-78201148D01*
X117571595Y-77792901D01*
X117340342Y-77446806D01*
X116994247Y-77215553D01*
X116586000Y-77134348D01*
X116177753Y-77215553D01*
X115831658Y-77446806D01*
X115600405Y-77792901D01*
X115519200Y-78201148D01*
X115060943Y-78201148D01*
X114796741Y-77561730D01*
X114211352Y-76975318D01*
X113446112Y-76657563D01*
X112617523Y-76656840D01*
X111851730Y-76973259D01*
X111265318Y-77558648D01*
X110947563Y-78323888D01*
X110946840Y-79152477D01*
X98862771Y-79152477D01*
X98862771Y-77825600D01*
X98839115Y-77706673D01*
X98771748Y-77605852D01*
X98670927Y-77538485D01*
X98552000Y-77514829D01*
X93764100Y-77514829D01*
X93764100Y-75730100D01*
X211035900Y-75730100D01*
X211035900Y-77387829D01*
X211035900Y-77387829D01*
G37*
X211035900Y-77387829D02*
X206502000Y-77387829D01*
X206383073Y-77411485D01*
X206282252Y-77478852D01*
X206214885Y-77579673D01*
X206191229Y-77698600D01*
X206191229Y-79550563D01*
X205928066Y-79286939D01*
X205559444Y-79133874D01*
X205160307Y-79133526D01*
X204791419Y-79285948D01*
X204508939Y-79567934D01*
X204355874Y-79936556D01*
X204355526Y-80335693D01*
X204507948Y-80704581D01*
X204789934Y-80987061D01*
X205158556Y-81140126D01*
X205557693Y-81140474D01*
X205926581Y-80988052D01*
X206209061Y-80706066D01*
X206235504Y-80642385D01*
X206282252Y-80712348D01*
X206383073Y-80779715D01*
X206502000Y-80803371D01*
X211035900Y-80803371D01*
X211035900Y-89376629D01*
X206502000Y-89376629D01*
X206383073Y-89400285D01*
X206282252Y-89467652D01*
X206235657Y-89537386D01*
X206210052Y-89475419D01*
X205928066Y-89192939D01*
X205559444Y-89039874D01*
X205160307Y-89039526D01*
X204791419Y-89191948D01*
X204508939Y-89473934D01*
X204355874Y-89842556D01*
X204355526Y-90241693D01*
X204507948Y-90610581D01*
X204789934Y-90893061D01*
X205158556Y-91046126D01*
X205557693Y-91046474D01*
X205926581Y-90894052D01*
X206191229Y-90629867D01*
X206191229Y-92481400D01*
X206214885Y-92600327D01*
X206282252Y-92701148D01*
X206383073Y-92768515D01*
X206502000Y-92792171D01*
X211035900Y-92792171D01*
X211035900Y-130009900D01*
X210267171Y-130009900D01*
X210267171Y-125222000D01*
X210243515Y-125103073D01*
X210176148Y-125002252D01*
X210075327Y-124934885D01*
X209956400Y-124911229D01*
X208104437Y-124911229D01*
X208368061Y-124648066D01*
X208521126Y-124279444D01*
X208521474Y-123880307D01*
X208473781Y-123764883D01*
X208587556Y-123812126D01*
X208986693Y-123812474D01*
X209355581Y-123660052D01*
X209638061Y-123378066D01*
X209791126Y-123009444D01*
X209791474Y-122610307D01*
X209639052Y-122241419D01*
X209357066Y-121958939D01*
X208988444Y-121805874D01*
X208589307Y-121805526D01*
X208220419Y-121957948D01*
X207937939Y-122239934D01*
X207784874Y-122608556D01*
X207784526Y-123007693D01*
X207832219Y-123123117D01*
X207718444Y-123075874D01*
X207319307Y-123075526D01*
X206950419Y-123227948D01*
X206667939Y-123509934D01*
X206514874Y-123878556D01*
X206514526Y-124277693D01*
X206666948Y-124646581D01*
X206948934Y-124929061D01*
X207012615Y-124955504D01*
X206942652Y-125002252D01*
X206875285Y-125103073D01*
X206851629Y-125222000D01*
X206851629Y-130009900D01*
X200818371Y-130009900D01*
X200818371Y-125222000D01*
X200794715Y-125103073D01*
X200727348Y-125002252D01*
X200657614Y-124955657D01*
X200719581Y-124930052D01*
X201002061Y-124648066D01*
X201155126Y-124279444D01*
X201155474Y-123880307D01*
X201003052Y-123511419D01*
X200721066Y-123228939D01*
X200352444Y-123075874D01*
X199953307Y-123075526D01*
X199837883Y-123123219D01*
X199885126Y-123009444D01*
X199885474Y-122610307D01*
X199733052Y-122241419D01*
X199451066Y-121958939D01*
X199082444Y-121805874D01*
X199024391Y-121805823D01*
X199062614Y-121767600D01*
X201313434Y-121767600D01*
X201313434Y-122999500D01*
X201341033Y-123138248D01*
X201419627Y-123255873D01*
X201537252Y-123334467D01*
X201676000Y-123362066D01*
X203454000Y-123362066D01*
X203592748Y-123334467D01*
X203672773Y-123280996D01*
X203699206Y-123344811D01*
X203870689Y-123516294D01*
X204094743Y-123609100D01*
X204800200Y-123609100D01*
X204952600Y-123456700D01*
X204952600Y-121056400D01*
X205257400Y-121056400D01*
X205257400Y-123456700D01*
X205409800Y-123609100D01*
X206115257Y-123609100D01*
X206339311Y-123516294D01*
X206510794Y-123344811D01*
X206603600Y-123120757D01*
X206603600Y-121208800D01*
X206451200Y-121056400D01*
X205257400Y-121056400D01*
X204952600Y-121056400D01*
X204932600Y-121056400D01*
X204932600Y-120751600D01*
X204952600Y-120751600D01*
X204952600Y-118351300D01*
X205257400Y-118351300D01*
X205257400Y-120751600D01*
X206451200Y-120751600D01*
X206603600Y-120599200D01*
X206603600Y-118687243D01*
X206510794Y-118463189D01*
X206339311Y-118291706D01*
X206115257Y-118198900D01*
X205409800Y-118198900D01*
X205257400Y-118351300D01*
X204952600Y-118351300D01*
X204800200Y-118198900D01*
X204094743Y-118198900D01*
X203870689Y-118291706D01*
X203699206Y-118463189D01*
X203672773Y-118527004D01*
X203592748Y-118473533D01*
X203454000Y-118445934D01*
X203111500Y-118445934D01*
X203111500Y-105651700D01*
X203045762Y-105321215D01*
X203003256Y-105257600D01*
X202858558Y-105041043D01*
X201753995Y-103936481D01*
X201853800Y-103434728D01*
X201853800Y-103393265D01*
X202115045Y-103393265D01*
X202180425Y-103642896D01*
X202648549Y-104450525D01*
X203390106Y-105017534D01*
X204292200Y-105257600D01*
X204800200Y-105257600D01*
X204800200Y-103022400D01*
X202214602Y-103022400D01*
X202115045Y-103393265D01*
X201853800Y-103393265D01*
X201853800Y-102346735D01*
X202115045Y-102346735D01*
X202214602Y-102717600D01*
X204800200Y-102717600D01*
X204800200Y-100482400D01*
X204292200Y-100482400D01*
X203390106Y-100722466D01*
X202648549Y-101289475D01*
X202180425Y-102097104D01*
X202115045Y-102346735D01*
X201853800Y-102346735D01*
X201853800Y-102305272D01*
X201672055Y-101391577D01*
X201154488Y-100616984D01*
X200379895Y-100099417D01*
X199466200Y-99917672D01*
X198552505Y-100099417D01*
X197777912Y-100616984D01*
X197260345Y-101391577D01*
X197078600Y-102305272D01*
X197078600Y-103434728D01*
X197260345Y-104348423D01*
X197777912Y-105123016D01*
X198552505Y-105640583D01*
X199466200Y-105822328D01*
X200379895Y-105640583D01*
X200760893Y-105386008D01*
X201384300Y-106009415D01*
X201384300Y-111913548D01*
X201095065Y-111754642D01*
X201033753Y-111746024D01*
X200812400Y-111857986D01*
X200812400Y-113233200D01*
X200832400Y-113233200D01*
X200832400Y-113538000D01*
X200812400Y-113538000D01*
X200812400Y-114913214D01*
X201033753Y-115025176D01*
X201095065Y-115016558D01*
X201384300Y-114857652D01*
X201384300Y-118604998D01*
X201341033Y-118669752D01*
X201313434Y-118808500D01*
X201313434Y-120040400D01*
X198704900Y-120040400D01*
X198374415Y-120106138D01*
X198094243Y-120293343D01*
X196412743Y-121974843D01*
X196423652Y-121920000D01*
X196342447Y-121511753D01*
X196111194Y-121165658D01*
X195765099Y-120934405D01*
X195356852Y-120853200D01*
X194279148Y-120853200D01*
X193870901Y-120934405D01*
X193524806Y-121165658D01*
X193293553Y-121511753D01*
X193212348Y-121920000D01*
X193293553Y-122328247D01*
X193483217Y-122612100D01*
X192596783Y-122612100D01*
X192786447Y-122328247D01*
X192867652Y-121920000D01*
X192786447Y-121511753D01*
X192555194Y-121165658D01*
X192209099Y-120934405D01*
X191800852Y-120853200D01*
X190723148Y-120853200D01*
X190314901Y-120934405D01*
X189968806Y-121165658D01*
X189737553Y-121511753D01*
X189656348Y-121920000D01*
X189737553Y-122328247D01*
X189927217Y-122612100D01*
X186283600Y-122612100D01*
X186283600Y-121920000D01*
X186217862Y-121589515D01*
X186030657Y-121309343D01*
X185750485Y-121122138D01*
X185420000Y-121056400D01*
X185089515Y-121122138D01*
X184809343Y-121309343D01*
X184622138Y-121589515D01*
X184556400Y-121920000D01*
X184556400Y-122612100D01*
X163541915Y-122612100D01*
X160796814Y-119867000D01*
X166733380Y-119867000D01*
X166790090Y-119923710D01*
X166954897Y-120033831D01*
X167149300Y-120072500D01*
X187837200Y-120072500D01*
X188031603Y-120033831D01*
X188196410Y-119923710D01*
X189299320Y-118820800D01*
X189838416Y-118820800D01*
X189737553Y-118971753D01*
X189656348Y-119380000D01*
X189737553Y-119788247D01*
X189968806Y-120134342D01*
X190314901Y-120365595D01*
X190723148Y-120446800D01*
X191800852Y-120446800D01*
X192209099Y-120365595D01*
X192555194Y-120134342D01*
X192786447Y-119788247D01*
X192867652Y-119380000D01*
X193212348Y-119380000D01*
X193293553Y-119788247D01*
X193524806Y-120134342D01*
X193870901Y-120365595D01*
X194279148Y-120446800D01*
X195356852Y-120446800D01*
X195765099Y-120365595D01*
X196111194Y-120134342D01*
X196342447Y-119788247D01*
X196423652Y-119380000D01*
X196342447Y-118971753D01*
X196111194Y-118625658D01*
X195765099Y-118394405D01*
X195356852Y-118313200D01*
X194279148Y-118313200D01*
X193870901Y-118394405D01*
X193524806Y-118625658D01*
X193293553Y-118971753D01*
X193212348Y-119380000D01*
X192867652Y-119380000D01*
X192786447Y-118971753D01*
X192555194Y-118625658D01*
X192375997Y-118505923D01*
X193399210Y-117482710D01*
X193424713Y-117444542D01*
X193524806Y-117594342D01*
X193870901Y-117825595D01*
X194279148Y-117906800D01*
X195356852Y-117906800D01*
X195765099Y-117825595D01*
X196111194Y-117594342D01*
X196342447Y-117248247D01*
X196423652Y-116840000D01*
X196342447Y-116431753D01*
X196217465Y-116244704D01*
X196230403Y-116242131D01*
X196395210Y-116132010D01*
X197858946Y-114668274D01*
X198038191Y-114668430D01*
X198313690Y-114554596D01*
X198524656Y-114343999D01*
X198638970Y-114068699D01*
X198639230Y-113770609D01*
X198636744Y-113764591D01*
X199221364Y-113764591D01*
X199378706Y-114305619D01*
X199731113Y-114745251D01*
X200224935Y-115016558D01*
X200286247Y-115025176D01*
X200507600Y-114913214D01*
X200507600Y-113538000D01*
X199371923Y-113538000D01*
X199221364Y-113764591D01*
X198636744Y-113764591D01*
X198525396Y-113495110D01*
X198314799Y-113284144D01*
X198039499Y-113169830D01*
X197741409Y-113169570D01*
X197465910Y-113283404D01*
X197254944Y-113494001D01*
X197140630Y-113769301D01*
X197140472Y-113949908D01*
X196262533Y-114827847D01*
X196342447Y-114708247D01*
X196423652Y-114300000D01*
X196342447Y-113891753D01*
X196111194Y-113545658D01*
X195765099Y-113314405D01*
X195356852Y-113233200D01*
X194279148Y-113233200D01*
X193870901Y-113314405D01*
X193524806Y-113545658D01*
X193293553Y-113891753D01*
X193212348Y-114300000D01*
X193293553Y-114708247D01*
X193524806Y-115054342D01*
X193839779Y-115264800D01*
X193799700Y-115264800D01*
X193605297Y-115303469D01*
X193440490Y-115413590D01*
X192680790Y-116173290D01*
X192647269Y-116223458D01*
X192555194Y-116085658D01*
X192209099Y-115854405D01*
X191800852Y-115773200D01*
X190723148Y-115773200D01*
X190314901Y-115854405D01*
X189968806Y-116085658D01*
X189737553Y-116431753D01*
X189656348Y-116840000D01*
X189737553Y-117248247D01*
X189968806Y-117594342D01*
X190283779Y-117804800D01*
X189088900Y-117804800D01*
X188894496Y-117843469D01*
X188729690Y-117953590D01*
X187626780Y-119056500D01*
X179679600Y-119056500D01*
X179679600Y-117970300D01*
X179527200Y-117817900D01*
X178587400Y-117817900D01*
X178587400Y-117837900D01*
X178282600Y-117837900D01*
X178282600Y-117817900D01*
X177342800Y-117817900D01*
X177190400Y-117970300D01*
X177190400Y-119056500D01*
X174300771Y-119056500D01*
X174300771Y-116078000D01*
X174277115Y-115959073D01*
X174209748Y-115858252D01*
X174108927Y-115790885D01*
X173990000Y-115767229D01*
X173863000Y-115767229D01*
X173863000Y-115747800D01*
X173824331Y-115553397D01*
X173749391Y-115441242D01*
X173749530Y-115282309D01*
X173635696Y-115006810D01*
X173425099Y-114795844D01*
X173149799Y-114681530D01*
X172851709Y-114681270D01*
X172576210Y-114795104D01*
X172365244Y-115005701D01*
X172250930Y-115281001D01*
X172250670Y-115579091D01*
X172364504Y-115854590D01*
X172447287Y-115937518D01*
X172432885Y-115959073D01*
X172409229Y-116078000D01*
X172409229Y-119056500D01*
X167359720Y-119056500D01*
X167303010Y-118999790D01*
X167138203Y-118889669D01*
X166943800Y-118851000D01*
X157562400Y-118851000D01*
X157367997Y-118889669D01*
X157203190Y-118999790D01*
X157127780Y-119075200D01*
X154279600Y-119075200D01*
X154279600Y-117970300D01*
X154127200Y-117817900D01*
X153187400Y-117817900D01*
X153187400Y-117837900D01*
X152882600Y-117837900D01*
X152882600Y-117817900D01*
X151942800Y-117817900D01*
X151790400Y-117970300D01*
X151790400Y-119075200D01*
X148900771Y-119075200D01*
X148900771Y-116078000D01*
X148877115Y-115959073D01*
X148875559Y-115956743D01*
X151790400Y-115956743D01*
X151790400Y-117360700D01*
X151942800Y-117513100D01*
X152882600Y-117513100D01*
X152882600Y-115620800D01*
X153187400Y-115620800D01*
X153187400Y-117513100D01*
X154127200Y-117513100D01*
X154279600Y-117360700D01*
X154279600Y-115956743D01*
X154186794Y-115732689D01*
X154015311Y-115561206D01*
X153791257Y-115468400D01*
X153339800Y-115468400D01*
X153187400Y-115620800D01*
X152882600Y-115620800D01*
X152730200Y-115468400D01*
X152278743Y-115468400D01*
X152054689Y-115561206D01*
X151883206Y-115732689D01*
X151790400Y-115956743D01*
X148875559Y-115956743D01*
X148809748Y-115858252D01*
X148708927Y-115790885D01*
X148590000Y-115767229D01*
X147320000Y-115767229D01*
X147201073Y-115790885D01*
X147100252Y-115858252D01*
X147032885Y-115959073D01*
X147009229Y-116078000D01*
X147009229Y-119253000D01*
X147032885Y-119371927D01*
X147100252Y-119472748D01*
X147201073Y-119540115D01*
X147320000Y-119563771D01*
X147447000Y-119563771D01*
X147447000Y-119583200D01*
X147485669Y-119777603D01*
X147595790Y-119942410D01*
X147760597Y-120052531D01*
X147955000Y-120091200D01*
X157338200Y-120091200D01*
X157532603Y-120052531D01*
X157697410Y-119942410D01*
X157772820Y-119867000D01*
X159344195Y-119867000D01*
X159249638Y-120008515D01*
X159183901Y-120339000D01*
X159249638Y-120669485D01*
X159436843Y-120949657D01*
X162573543Y-124086358D01*
X162853715Y-124273562D01*
X163184200Y-124339300D01*
X196133200Y-124339300D01*
X196463685Y-124273562D01*
X196743857Y-124086357D01*
X197878575Y-122951639D01*
X197878526Y-123007693D01*
X198030948Y-123376581D01*
X198312934Y-123659061D01*
X198681556Y-123812126D01*
X199080693Y-123812474D01*
X199196117Y-123764781D01*
X199148874Y-123878556D01*
X199148526Y-124277693D01*
X199300948Y-124646581D01*
X199565133Y-124911229D01*
X197713600Y-124911229D01*
X197594673Y-124934885D01*
X197493852Y-125002252D01*
X197426485Y-125103073D01*
X197402829Y-125222000D01*
X197402829Y-130009900D01*
X93764100Y-130009900D01*
X93764100Y-127412477D01*
X109676840Y-127412477D01*
X109993259Y-128178270D01*
X110578648Y-128764682D01*
X111343888Y-129082437D01*
X112172477Y-129083160D01*
X112938270Y-128766741D01*
X113524682Y-128181352D01*
X113842437Y-127416112D01*
X113843160Y-126587523D01*
X113526741Y-125821730D01*
X112941352Y-125235318D01*
X112176112Y-124917563D01*
X111347523Y-124916840D01*
X110581730Y-125233259D01*
X109995318Y-125818648D01*
X109677563Y-126583888D01*
X109676840Y-127412477D01*
X93764100Y-127412477D01*
X93764100Y-112490153D01*
X99847400Y-112490153D01*
X99847400Y-113569847D01*
X99932472Y-113997534D01*
X100174737Y-114360110D01*
X100537313Y-114602375D01*
X100965000Y-114687447D01*
X101392687Y-114602375D01*
X101432885Y-114575515D01*
X104548485Y-117691116D01*
X104795696Y-117856297D01*
X105087300Y-117914300D01*
X109415170Y-117914300D01*
X120970385Y-129469515D01*
X121217595Y-129634696D01*
X121509200Y-129692700D01*
X143510000Y-129692700D01*
X143801605Y-129634696D01*
X144048815Y-129469515D01*
X144213996Y-129222305D01*
X144272000Y-128930700D01*
X144272000Y-128348995D01*
X144300263Y-128330110D01*
X144542528Y-127967534D01*
X144627600Y-127539847D01*
X144627600Y-126461148D01*
X147523200Y-126461148D01*
X147523200Y-127538852D01*
X147604405Y-127947099D01*
X147835658Y-128293194D01*
X148181753Y-128524447D01*
X148590000Y-128605652D01*
X148998247Y-128524447D01*
X149344342Y-128293194D01*
X149575595Y-127947099D01*
X149656800Y-127538852D01*
X149656800Y-126461148D01*
X150063200Y-126461148D01*
X150063200Y-127538852D01*
X150144405Y-127947099D01*
X150375658Y-128293194D01*
X150721753Y-128524447D01*
X151130000Y-128605652D01*
X151538247Y-128524447D01*
X151884342Y-128293194D01*
X152115595Y-127947099D01*
X152196800Y-127538852D01*
X152196800Y-126461148D01*
X152603200Y-126461148D01*
X152603200Y-127538852D01*
X152684405Y-127947099D01*
X152915658Y-128293194D01*
X153261753Y-128524447D01*
X153670000Y-128605652D01*
X154078247Y-128524447D01*
X154424342Y-128293194D01*
X154655595Y-127947099D01*
X154736800Y-127538852D01*
X154736800Y-126461148D01*
X155143200Y-126461148D01*
X155143200Y-127538852D01*
X155224405Y-127947099D01*
X155455658Y-128293194D01*
X155801753Y-128524447D01*
X156210000Y-128605652D01*
X156618247Y-128524447D01*
X156964342Y-128293194D01*
X157195595Y-127947099D01*
X157276800Y-127538852D01*
X157276800Y-126461148D01*
X157683200Y-126461148D01*
X157683200Y-127538852D01*
X157764405Y-127947099D01*
X157995658Y-128293194D01*
X158341753Y-128524447D01*
X158750000Y-128605652D01*
X159158247Y-128524447D01*
X159504342Y-128293194D01*
X159735595Y-127947099D01*
X159816800Y-127538852D01*
X159816800Y-126461148D01*
X160223200Y-126461148D01*
X160223200Y-127538852D01*
X160304405Y-127947099D01*
X160535658Y-128293194D01*
X160881753Y-128524447D01*
X161290000Y-128605652D01*
X161698247Y-128524447D01*
X162044342Y-128293194D01*
X162275595Y-127947099D01*
X162356800Y-127538852D01*
X162356800Y-126461148D01*
X162763200Y-126461148D01*
X162763200Y-127538852D01*
X162844405Y-127947099D01*
X163075658Y-128293194D01*
X163421753Y-128524447D01*
X163830000Y-128605652D01*
X164238247Y-128524447D01*
X164584342Y-128293194D01*
X164815595Y-127947099D01*
X164896800Y-127538852D01*
X164896800Y-126461148D01*
X165303200Y-126461148D01*
X165303200Y-127538852D01*
X165384405Y-127947099D01*
X165615658Y-128293194D01*
X165961753Y-128524447D01*
X166370000Y-128605652D01*
X166778247Y-128524447D01*
X167124342Y-128293194D01*
X167355595Y-127947099D01*
X167436800Y-127538852D01*
X167436800Y-126461148D01*
X170383200Y-126461148D01*
X170383200Y-127538852D01*
X170464405Y-127947099D01*
X170695658Y-128293194D01*
X171041753Y-128524447D01*
X171450000Y-128605652D01*
X171858247Y-128524447D01*
X172204342Y-128293194D01*
X172435595Y-127947099D01*
X172516800Y-127538852D01*
X172516800Y-126461148D01*
X172923200Y-126461148D01*
X172923200Y-127538852D01*
X173004405Y-127947099D01*
X173235658Y-128293194D01*
X173581753Y-128524447D01*
X173990000Y-128605652D01*
X174398247Y-128524447D01*
X174744342Y-128293194D01*
X174975595Y-127947099D01*
X175056800Y-127538852D01*
X175056800Y-126461148D01*
X175463200Y-126461148D01*
X175463200Y-127538852D01*
X175544405Y-127947099D01*
X175775658Y-128293194D01*
X176121753Y-128524447D01*
X176530000Y-128605652D01*
X176938247Y-128524447D01*
X177284342Y-128293194D01*
X177515595Y-127947099D01*
X177596800Y-127538852D01*
X177596800Y-126461148D01*
X178003200Y-126461148D01*
X178003200Y-127538852D01*
X178084405Y-127947099D01*
X178315658Y-128293194D01*
X178661753Y-128524447D01*
X179070000Y-128605652D01*
X179478247Y-128524447D01*
X179824342Y-128293194D01*
X180055595Y-127947099D01*
X180136800Y-127538852D01*
X180136800Y-126461148D01*
X180543200Y-126461148D01*
X180543200Y-127538852D01*
X180624405Y-127947099D01*
X180855658Y-128293194D01*
X181201753Y-128524447D01*
X181610000Y-128605652D01*
X182018247Y-128524447D01*
X182364342Y-128293194D01*
X182595595Y-127947099D01*
X182676800Y-127538852D01*
X182676800Y-126461148D01*
X183083200Y-126461148D01*
X183083200Y-127538852D01*
X183164405Y-127947099D01*
X183395658Y-128293194D01*
X183741753Y-128524447D01*
X184150000Y-128605652D01*
X184558247Y-128524447D01*
X184904342Y-128293194D01*
X185135595Y-127947099D01*
X185216800Y-127538852D01*
X185216800Y-126461148D01*
X185623200Y-126461148D01*
X185623200Y-127538852D01*
X185704405Y-127947099D01*
X185935658Y-128293194D01*
X186281753Y-128524447D01*
X186690000Y-128605652D01*
X187098247Y-128524447D01*
X187444342Y-128293194D01*
X187675595Y-127947099D01*
X187756800Y-127538852D01*
X187756800Y-126461148D01*
X188163200Y-126461148D01*
X188163200Y-127538852D01*
X188244405Y-127947099D01*
X188475658Y-128293194D01*
X188821753Y-128524447D01*
X189230000Y-128605652D01*
X189638247Y-128524447D01*
X189984342Y-128293194D01*
X190215595Y-127947099D01*
X190296800Y-127538852D01*
X190296800Y-127412477D01*
X192226840Y-127412477D01*
X192543259Y-128178270D01*
X193128648Y-128764682D01*
X193893888Y-129082437D01*
X194722477Y-129083160D01*
X195488270Y-128766741D01*
X196074682Y-128181352D01*
X196392437Y-127416112D01*
X196393160Y-126587523D01*
X196076741Y-125821730D01*
X195491352Y-125235318D01*
X194726112Y-124917563D01*
X193897523Y-124916840D01*
X193131730Y-125233259D01*
X192545318Y-125818648D01*
X192227563Y-126583888D01*
X192226840Y-127412477D01*
X190296800Y-127412477D01*
X190296800Y-126461148D01*
X190215595Y-126052901D01*
X189984342Y-125706806D01*
X189638247Y-125475553D01*
X189230000Y-125394348D01*
X188821753Y-125475553D01*
X188475658Y-125706806D01*
X188244405Y-126052901D01*
X188163200Y-126461148D01*
X187756800Y-126461148D01*
X187675595Y-126052901D01*
X187444342Y-125706806D01*
X187098247Y-125475553D01*
X186690000Y-125394348D01*
X186281753Y-125475553D01*
X185935658Y-125706806D01*
X185704405Y-126052901D01*
X185623200Y-126461148D01*
X185216800Y-126461148D01*
X185135595Y-126052901D01*
X184904342Y-125706806D01*
X184558247Y-125475553D01*
X184150000Y-125394348D01*
X183741753Y-125475553D01*
X183395658Y-125706806D01*
X183164405Y-126052901D01*
X183083200Y-126461148D01*
X182676800Y-126461148D01*
X182595595Y-126052901D01*
X182364342Y-125706806D01*
X182018247Y-125475553D01*
X181610000Y-125394348D01*
X181201753Y-125475553D01*
X180855658Y-125706806D01*
X180624405Y-126052901D01*
X180543200Y-126461148D01*
X180136800Y-126461148D01*
X180055595Y-126052901D01*
X179824342Y-125706806D01*
X179478247Y-125475553D01*
X179070000Y-125394348D01*
X178661753Y-125475553D01*
X178315658Y-125706806D01*
X178084405Y-126052901D01*
X178003200Y-126461148D01*
X177596800Y-126461148D01*
X177515595Y-126052901D01*
X177284342Y-125706806D01*
X176938247Y-125475553D01*
X176530000Y-125394348D01*
X176121753Y-125475553D01*
X175775658Y-125706806D01*
X175544405Y-126052901D01*
X175463200Y-126461148D01*
X175056800Y-126461148D01*
X174975595Y-126052901D01*
X174744342Y-125706806D01*
X174398247Y-125475553D01*
X173990000Y-125394348D01*
X173581753Y-125475553D01*
X173235658Y-125706806D01*
X173004405Y-126052901D01*
X172923200Y-126461148D01*
X172516800Y-126461148D01*
X172435595Y-126052901D01*
X172204342Y-125706806D01*
X171858247Y-125475553D01*
X171450000Y-125394348D01*
X171041753Y-125475553D01*
X170695658Y-125706806D01*
X170464405Y-126052901D01*
X170383200Y-126461148D01*
X167436800Y-126461148D01*
X167355595Y-126052901D01*
X167124342Y-125706806D01*
X166778247Y-125475553D01*
X166370000Y-125394348D01*
X165961753Y-125475553D01*
X165615658Y-125706806D01*
X165384405Y-126052901D01*
X165303200Y-126461148D01*
X164896800Y-126461148D01*
X164815595Y-126052901D01*
X164584342Y-125706806D01*
X164238247Y-125475553D01*
X163830000Y-125394348D01*
X163421753Y-125475553D01*
X163075658Y-125706806D01*
X162844405Y-126052901D01*
X162763200Y-126461148D01*
X162356800Y-126461148D01*
X162275595Y-126052901D01*
X162044342Y-125706806D01*
X161698247Y-125475553D01*
X161290000Y-125394348D01*
X160881753Y-125475553D01*
X160535658Y-125706806D01*
X160304405Y-126052901D01*
X160223200Y-126461148D01*
X159816800Y-126461148D01*
X159735595Y-126052901D01*
X159504342Y-125706806D01*
X159158247Y-125475553D01*
X158750000Y-125394348D01*
X158341753Y-125475553D01*
X157995658Y-125706806D01*
X157764405Y-126052901D01*
X157683200Y-126461148D01*
X157276800Y-126461148D01*
X157195595Y-126052901D01*
X156964342Y-125706806D01*
X156618247Y-125475553D01*
X156210000Y-125394348D01*
X155801753Y-125475553D01*
X155455658Y-125706806D01*
X155224405Y-126052901D01*
X155143200Y-126461148D01*
X154736800Y-126461148D01*
X154655595Y-126052901D01*
X154424342Y-125706806D01*
X154078247Y-125475553D01*
X153670000Y-125394348D01*
X153261753Y-125475553D01*
X152915658Y-125706806D01*
X152684405Y-126052901D01*
X152603200Y-126461148D01*
X152196800Y-126461148D01*
X152115595Y-126052901D01*
X151884342Y-125706806D01*
X151538247Y-125475553D01*
X151130000Y-125394348D01*
X150721753Y-125475553D01*
X150375658Y-125706806D01*
X150144405Y-126052901D01*
X150063200Y-126461148D01*
X149656800Y-126461148D01*
X149575595Y-126052901D01*
X149344342Y-125706806D01*
X148998247Y-125475553D01*
X148590000Y-125394348D01*
X148181753Y-125475553D01*
X147835658Y-125706806D01*
X147604405Y-126052901D01*
X147523200Y-126461148D01*
X144627600Y-126461148D01*
X144627600Y-126460153D01*
X144542528Y-126032466D01*
X144300263Y-125669890D01*
X143937687Y-125427625D01*
X143510000Y-125342553D01*
X143082313Y-125427625D01*
X142719737Y-125669890D01*
X142477472Y-126032466D01*
X142392400Y-126460153D01*
X142392400Y-127539847D01*
X142477472Y-127967534D01*
X142611887Y-128168700D01*
X142180453Y-128168700D01*
X142341600Y-127660400D01*
X142341600Y-127152400D01*
X141122400Y-127152400D01*
X141122400Y-127172400D01*
X140817600Y-127172400D01*
X140817600Y-127152400D01*
X138582400Y-127152400D01*
X138582400Y-127172400D01*
X138277600Y-127172400D01*
X138277600Y-127152400D01*
X137058400Y-127152400D01*
X137058400Y-127660400D01*
X137219547Y-128168700D01*
X136788113Y-128168700D01*
X136922528Y-127967534D01*
X137007600Y-127539847D01*
X137007600Y-126460153D01*
X136983621Y-126339600D01*
X137058400Y-126339600D01*
X137058400Y-126847600D01*
X138277600Y-126847600D01*
X138277600Y-125282363D01*
X138582400Y-125282363D01*
X138582400Y-126847600D01*
X140817600Y-126847600D01*
X140817600Y-125282363D01*
X141122400Y-125282363D01*
X141122400Y-126847600D01*
X142341600Y-126847600D01*
X142341600Y-126339600D01*
X142178872Y-125826312D01*
X141832104Y-125414369D01*
X141333761Y-125169516D01*
X141122400Y-125282363D01*
X140817600Y-125282363D01*
X140606239Y-125169516D01*
X140107896Y-125414369D01*
X139761128Y-125826312D01*
X139700000Y-126019126D01*
X139638872Y-125826312D01*
X139292104Y-125414369D01*
X138793761Y-125169516D01*
X138582400Y-125282363D01*
X138277600Y-125282363D01*
X138066239Y-125169516D01*
X137567896Y-125414369D01*
X137221128Y-125826312D01*
X137058400Y-126339600D01*
X136983621Y-126339600D01*
X136922528Y-126032466D01*
X136680263Y-125669890D01*
X136652000Y-125651005D01*
X136652000Y-120136530D01*
X143009230Y-113779300D01*
X144170400Y-113779300D01*
X144170400Y-115183257D01*
X144263206Y-115407311D01*
X144434689Y-115578794D01*
X144658743Y-115671600D01*
X145110200Y-115671600D01*
X145262600Y-115519200D01*
X145262600Y-113626900D01*
X145567400Y-113626900D01*
X145567400Y-115519200D01*
X145719800Y-115671600D01*
X146171257Y-115671600D01*
X146395311Y-115578794D01*
X146566794Y-115407311D01*
X146659600Y-115183257D01*
X146659600Y-113779300D01*
X146507200Y-113626900D01*
X145567400Y-113626900D01*
X145262600Y-113626900D01*
X144322800Y-113626900D01*
X144170400Y-113779300D01*
X143009230Y-113779300D01*
X144170400Y-112618130D01*
X144170400Y-113169700D01*
X144322800Y-113322100D01*
X145262600Y-113322100D01*
X145262600Y-113302100D01*
X145567400Y-113302100D01*
X145567400Y-113322100D01*
X146507200Y-113322100D01*
X146659600Y-113169700D01*
X146659600Y-111988300D01*
X149497434Y-111988300D01*
X149497434Y-115062000D01*
X149525033Y-115200748D01*
X149603627Y-115318373D01*
X149721252Y-115396967D01*
X149860000Y-115424566D01*
X151130000Y-115424566D01*
X151268748Y-115396967D01*
X151386373Y-115318373D01*
X151464967Y-115200748D01*
X151492566Y-115062000D01*
X151492566Y-111988300D01*
X154629229Y-111988300D01*
X154629229Y-115062000D01*
X154652885Y-115180927D01*
X154720252Y-115281748D01*
X154821073Y-115349115D01*
X154940000Y-115372771D01*
X155067000Y-115372771D01*
X155067000Y-115392200D01*
X155105669Y-115586603D01*
X155215790Y-115751410D01*
X155380597Y-115861531D01*
X155575000Y-115900200D01*
X156129167Y-115900200D01*
X156255801Y-116027056D01*
X156531101Y-116141370D01*
X156829191Y-116141630D01*
X157104690Y-116027796D01*
X157315656Y-115817199D01*
X157429970Y-115541899D01*
X157430230Y-115243809D01*
X157316396Y-114968310D01*
X157105799Y-114757344D01*
X156830499Y-114643030D01*
X156532409Y-114642770D01*
X156520771Y-114647579D01*
X156520771Y-113779300D01*
X169570400Y-113779300D01*
X169570400Y-115183257D01*
X169663206Y-115407311D01*
X169834689Y-115578794D01*
X170058743Y-115671600D01*
X170510200Y-115671600D01*
X170662600Y-115519200D01*
X170662600Y-113626900D01*
X170967400Y-113626900D01*
X170967400Y-115519200D01*
X171119800Y-115671600D01*
X171571257Y-115671600D01*
X171795311Y-115578794D01*
X171966794Y-115407311D01*
X172059600Y-115183257D01*
X172059600Y-113779300D01*
X171907200Y-113626900D01*
X170967400Y-113626900D01*
X170662600Y-113626900D01*
X169722800Y-113626900D01*
X169570400Y-113779300D01*
X156520771Y-113779300D01*
X156520771Y-111988300D01*
X169570400Y-111988300D01*
X169570400Y-113169700D01*
X169722800Y-113322100D01*
X170662600Y-113322100D01*
X170662600Y-113302100D01*
X170967400Y-113302100D01*
X170967400Y-113322100D01*
X171907200Y-113322100D01*
X172059600Y-113169700D01*
X172059600Y-111988300D01*
X174897434Y-111988300D01*
X174897434Y-115062000D01*
X174925033Y-115200748D01*
X175003627Y-115318373D01*
X175121252Y-115396967D01*
X175133000Y-115399304D01*
X175133000Y-117139532D01*
X175095039Y-117230952D01*
X175094761Y-117549252D01*
X175216313Y-117843428D01*
X175441188Y-118068696D01*
X175735152Y-118190761D01*
X176053452Y-118191039D01*
X176347628Y-118069487D01*
X176572896Y-117844612D01*
X176694961Y-117550648D01*
X176695239Y-117232348D01*
X176657000Y-117139803D01*
X176657000Y-115956743D01*
X177190400Y-115956743D01*
X177190400Y-117360700D01*
X177342800Y-117513100D01*
X178282600Y-117513100D01*
X178282600Y-115620800D01*
X178587400Y-115620800D01*
X178587400Y-117513100D01*
X179527200Y-117513100D01*
X179679600Y-117360700D01*
X179679600Y-115956743D01*
X179586794Y-115732689D01*
X179415311Y-115561206D01*
X179191257Y-115468400D01*
X178739800Y-115468400D01*
X178587400Y-115620800D01*
X178282600Y-115620800D01*
X178130200Y-115468400D01*
X177678743Y-115468400D01*
X177454689Y-115561206D01*
X177283206Y-115732689D01*
X177190400Y-115956743D01*
X176657000Y-115956743D01*
X176657000Y-115399304D01*
X176668748Y-115396967D01*
X176786373Y-115318373D01*
X176864967Y-115200748D01*
X176892566Y-115062000D01*
X176892566Y-111887000D01*
X180029229Y-111887000D01*
X180029229Y-115062000D01*
X180052885Y-115180927D01*
X180120252Y-115281748D01*
X180221073Y-115349115D01*
X180340000Y-115372771D01*
X180450116Y-115372771D01*
X180441100Y-115418100D01*
X180441100Y-116673867D01*
X180314244Y-116800501D01*
X180199930Y-117075801D01*
X180199670Y-117373891D01*
X180313504Y-117649390D01*
X180524101Y-117860356D01*
X180799401Y-117974670D01*
X181097491Y-117974930D01*
X181372990Y-117861096D01*
X181583956Y-117650499D01*
X181698270Y-117375199D01*
X181698530Y-117077109D01*
X181584696Y-116801610D01*
X181457100Y-116673790D01*
X181457100Y-115522409D01*
X181483000Y-115392200D01*
X181483000Y-115372771D01*
X181610000Y-115372771D01*
X181728927Y-115349115D01*
X181829748Y-115281748D01*
X181897115Y-115180927D01*
X181920771Y-115062000D01*
X181920771Y-111887000D01*
X181897115Y-111768073D01*
X181829748Y-111667252D01*
X181728927Y-111599885D01*
X181610000Y-111576229D01*
X180340000Y-111576229D01*
X180221073Y-111599885D01*
X180120252Y-111667252D01*
X180052885Y-111768073D01*
X180029229Y-111887000D01*
X176892566Y-111887000D01*
X176881261Y-111830169D01*
X180056041Y-108655389D01*
X180147528Y-108617587D01*
X180372796Y-108392712D01*
X180494861Y-108098748D01*
X180495139Y-107780448D01*
X180397812Y-107544900D01*
X182188280Y-107544900D01*
X189302590Y-114659211D01*
X189467397Y-114769331D01*
X189661800Y-114808000D01*
X189804206Y-114808000D01*
X189968806Y-115054342D01*
X190314901Y-115285595D01*
X190723148Y-115366800D01*
X191800852Y-115366800D01*
X192209099Y-115285595D01*
X192555194Y-115054342D01*
X192786447Y-114708247D01*
X192867652Y-114300000D01*
X192786447Y-113891753D01*
X192555194Y-113545658D01*
X192209099Y-113314405D01*
X191800852Y-113233200D01*
X190723148Y-113233200D01*
X190314901Y-113314405D01*
X189968806Y-113545658D01*
X189831449Y-113751228D01*
X189086830Y-113006609D01*
X199221364Y-113006609D01*
X199371923Y-113233200D01*
X200507600Y-113233200D01*
X200507600Y-111857986D01*
X200286247Y-111746024D01*
X200224935Y-111754642D01*
X199731113Y-112025949D01*
X199378706Y-112465581D01*
X199221364Y-113006609D01*
X189086830Y-113006609D01*
X187840221Y-111760000D01*
X189656348Y-111760000D01*
X189737553Y-112168247D01*
X189968806Y-112514342D01*
X190314901Y-112745595D01*
X190723148Y-112826800D01*
X191800852Y-112826800D01*
X192209099Y-112745595D01*
X192555194Y-112514342D01*
X192786447Y-112168247D01*
X192867652Y-111760000D01*
X193212348Y-111760000D01*
X193293553Y-112168247D01*
X193524806Y-112514342D01*
X193870901Y-112745595D01*
X194279148Y-112826800D01*
X195356852Y-112826800D01*
X195765099Y-112745595D01*
X196111194Y-112514342D01*
X196342447Y-112168247D01*
X196423652Y-111760000D01*
X196342447Y-111351753D01*
X196111194Y-111005658D01*
X195765099Y-110774405D01*
X195356852Y-110693200D01*
X194279148Y-110693200D01*
X193870901Y-110774405D01*
X193524806Y-111005658D01*
X193293553Y-111351753D01*
X193212348Y-111760000D01*
X192867652Y-111760000D01*
X192786447Y-111351753D01*
X192555194Y-111005658D01*
X192209099Y-110774405D01*
X191800852Y-110693200D01*
X190723148Y-110693200D01*
X190314901Y-110774405D01*
X189968806Y-111005658D01*
X189737553Y-111351753D01*
X189656348Y-111760000D01*
X187840221Y-111760000D01*
X185300221Y-109220000D01*
X189656348Y-109220000D01*
X189737553Y-109628247D01*
X189968806Y-109974342D01*
X190314901Y-110205595D01*
X190723148Y-110286800D01*
X191800852Y-110286800D01*
X192209099Y-110205595D01*
X192555194Y-109974342D01*
X192786447Y-109628247D01*
X192867652Y-109220000D01*
X193212348Y-109220000D01*
X193293553Y-109628247D01*
X193524806Y-109974342D01*
X193870901Y-110205595D01*
X194279148Y-110286800D01*
X195356852Y-110286800D01*
X195765099Y-110205595D01*
X196111194Y-109974342D01*
X196342447Y-109628247D01*
X196423652Y-109220000D01*
X196342447Y-108811753D01*
X196111194Y-108465658D01*
X195765099Y-108234405D01*
X195356852Y-108153200D01*
X194279148Y-108153200D01*
X193870901Y-108234405D01*
X193524806Y-108465658D01*
X193293553Y-108811753D01*
X193212348Y-109220000D01*
X192867652Y-109220000D01*
X192786447Y-108811753D01*
X192555194Y-108465658D01*
X192209099Y-108234405D01*
X191800852Y-108153200D01*
X190723148Y-108153200D01*
X190314901Y-108234405D01*
X189968806Y-108465658D01*
X189737553Y-108811753D01*
X189656348Y-109220000D01*
X185300221Y-109220000D01*
X182760221Y-106680000D01*
X189656348Y-106680000D01*
X189737553Y-107088247D01*
X189968806Y-107434342D01*
X190314901Y-107665595D01*
X190723148Y-107746800D01*
X191800852Y-107746800D01*
X192209099Y-107665595D01*
X192555194Y-107434342D01*
X192786447Y-107088247D01*
X192867652Y-106680000D01*
X193212348Y-106680000D01*
X193293553Y-107088247D01*
X193524806Y-107434342D01*
X193870901Y-107665595D01*
X194279148Y-107746800D01*
X195356852Y-107746800D01*
X195765099Y-107665595D01*
X196111194Y-107434342D01*
X196342447Y-107088247D01*
X196423652Y-106680000D01*
X196342447Y-106271753D01*
X196111194Y-105925658D01*
X195765099Y-105694405D01*
X195356852Y-105613200D01*
X194279148Y-105613200D01*
X193870901Y-105694405D01*
X193524806Y-105925658D01*
X193293553Y-106271753D01*
X193212348Y-106680000D01*
X192867652Y-106680000D01*
X192786447Y-106271753D01*
X192555194Y-105925658D01*
X192209099Y-105694405D01*
X191800852Y-105613200D01*
X190723148Y-105613200D01*
X190314901Y-105694405D01*
X189968806Y-105925658D01*
X189737553Y-106271753D01*
X189656348Y-106680000D01*
X182760221Y-106680000D01*
X182757910Y-106677690D01*
X182593103Y-106567569D01*
X182398700Y-106528900D01*
X179227920Y-106528900D01*
X180700621Y-105056200D01*
X184173600Y-105056200D01*
X184368003Y-105017531D01*
X184532810Y-104907410D01*
X185300220Y-104140000D01*
X189656348Y-104140000D01*
X189737553Y-104548247D01*
X189968806Y-104894342D01*
X190314901Y-105125595D01*
X190723148Y-105206800D01*
X191800852Y-105206800D01*
X192209099Y-105125595D01*
X192555194Y-104894342D01*
X192786447Y-104548247D01*
X192867652Y-104140000D01*
X193212348Y-104140000D01*
X193293553Y-104548247D01*
X193524806Y-104894342D01*
X193870901Y-105125595D01*
X194279148Y-105206800D01*
X195356852Y-105206800D01*
X195765099Y-105125595D01*
X196111194Y-104894342D01*
X196342447Y-104548247D01*
X196423652Y-104140000D01*
X196342447Y-103731753D01*
X196111194Y-103385658D01*
X195765099Y-103154405D01*
X195356852Y-103073200D01*
X194279148Y-103073200D01*
X193870901Y-103154405D01*
X193524806Y-103385658D01*
X193293553Y-103731753D01*
X193212348Y-104140000D01*
X192867652Y-104140000D01*
X192786447Y-103731753D01*
X192555194Y-103385658D01*
X192209099Y-103154405D01*
X191800852Y-103073200D01*
X190723148Y-103073200D01*
X190314901Y-103154405D01*
X189968806Y-103385658D01*
X189737553Y-103731753D01*
X189656348Y-104140000D01*
X185300220Y-104140000D01*
X187840220Y-101600000D01*
X189656348Y-101600000D01*
X189737553Y-102008247D01*
X189968806Y-102354342D01*
X190314901Y-102585595D01*
X190723148Y-102666800D01*
X191800852Y-102666800D01*
X192209099Y-102585595D01*
X192555194Y-102354342D01*
X192786447Y-102008247D01*
X192867652Y-101600000D01*
X193212348Y-101600000D01*
X193293553Y-102008247D01*
X193524806Y-102354342D01*
X193870901Y-102585595D01*
X194279148Y-102666800D01*
X195356852Y-102666800D01*
X195765099Y-102585595D01*
X196111194Y-102354342D01*
X196342447Y-102008247D01*
X196423652Y-101600000D01*
X196342447Y-101191753D01*
X196111194Y-100845658D01*
X195765099Y-100614405D01*
X195356852Y-100533200D01*
X194279148Y-100533200D01*
X193870901Y-100614405D01*
X193524806Y-100845658D01*
X193293553Y-101191753D01*
X193212348Y-101600000D01*
X192867652Y-101600000D01*
X192786447Y-101191753D01*
X192555194Y-100845658D01*
X192209099Y-100614405D01*
X191800852Y-100533200D01*
X190723148Y-100533200D01*
X190314901Y-100614405D01*
X189968806Y-100845658D01*
X189737553Y-101191753D01*
X189656348Y-101600000D01*
X187840220Y-101600000D01*
X189831448Y-99608772D01*
X189968806Y-99814342D01*
X190314901Y-100045595D01*
X190723148Y-100126800D01*
X191800852Y-100126800D01*
X192209099Y-100045595D01*
X192555194Y-99814342D01*
X192786447Y-99468247D01*
X192867652Y-99060000D01*
X193212348Y-99060000D01*
X193293553Y-99468247D01*
X193524806Y-99814342D01*
X193870901Y-100045595D01*
X194279148Y-100126800D01*
X195356852Y-100126800D01*
X195765099Y-100045595D01*
X196111194Y-99814342D01*
X196342447Y-99468247D01*
X196423652Y-99060000D01*
X196342447Y-98651753D01*
X196111194Y-98305658D01*
X195765099Y-98074405D01*
X195356852Y-97993200D01*
X194279148Y-97993200D01*
X193870901Y-98074405D01*
X193524806Y-98305658D01*
X193293553Y-98651753D01*
X193212348Y-99060000D01*
X192867652Y-99060000D01*
X192786447Y-98651753D01*
X192555194Y-98305658D01*
X192370632Y-98182337D01*
X192420210Y-98149210D01*
X193432790Y-97136630D01*
X193524806Y-97274342D01*
X193870901Y-97505595D01*
X194279148Y-97586800D01*
X195356852Y-97586800D01*
X195765099Y-97505595D01*
X196111194Y-97274342D01*
X196342447Y-96928247D01*
X196423652Y-96520000D01*
X196342447Y-96111753D01*
X196111194Y-95765658D01*
X195765099Y-95534405D01*
X195356852Y-95453200D01*
X194279148Y-95453200D01*
X193870901Y-95534405D01*
X193524806Y-95765658D01*
X193360206Y-96012000D01*
X193217800Y-96012000D01*
X193023397Y-96050669D01*
X192858590Y-96160790D01*
X192810513Y-96232742D01*
X192786447Y-96111753D01*
X192555194Y-95765658D01*
X192370632Y-95642337D01*
X192420210Y-95609210D01*
X193432790Y-94596630D01*
X193524806Y-94734342D01*
X193870901Y-94965595D01*
X194279148Y-95046800D01*
X195356852Y-95046800D01*
X195765099Y-94965595D01*
X196111194Y-94734342D01*
X196342447Y-94388247D01*
X196423652Y-93980000D01*
X197991529Y-93980000D01*
X198076601Y-94407687D01*
X198318866Y-94770263D01*
X198681442Y-95012528D01*
X199109129Y-95097600D01*
X199670871Y-95097600D01*
X200098558Y-95012528D01*
X200461134Y-94770263D01*
X200703399Y-94407687D01*
X200788471Y-93980000D01*
X203071529Y-93980000D01*
X203156601Y-94407687D01*
X203398866Y-94770263D01*
X203761442Y-95012528D01*
X204189129Y-95097600D01*
X204750871Y-95097600D01*
X205178558Y-95012528D01*
X205541134Y-94770263D01*
X205661849Y-94589600D01*
X205828196Y-94589600D01*
X207594818Y-96356223D01*
X207268933Y-96291400D01*
X205633467Y-96291400D01*
X204836414Y-96449944D01*
X204160705Y-96901438D01*
X203709211Y-97577147D01*
X203550667Y-98374200D01*
X203709211Y-99171253D01*
X204160705Y-99846962D01*
X204836414Y-100298456D01*
X205633467Y-100457000D01*
X207268933Y-100457000D01*
X208065986Y-100298456D01*
X208741695Y-99846962D01*
X209193189Y-99171253D01*
X209344700Y-98409557D01*
X209344700Y-101960828D01*
X209178137Y-101793974D01*
X208711527Y-101600221D01*
X208206290Y-101599780D01*
X207739342Y-101792718D01*
X207618352Y-101913498D01*
X207256651Y-101289475D01*
X206515094Y-100722466D01*
X205613000Y-100482400D01*
X205105000Y-100482400D01*
X205105000Y-102717600D01*
X205125000Y-102717600D01*
X205125000Y-103022400D01*
X205105000Y-103022400D01*
X205105000Y-105257600D01*
X205613000Y-105257600D01*
X206515094Y-105017534D01*
X207256651Y-104450525D01*
X207618277Y-103826632D01*
X207737463Y-103946026D01*
X208204073Y-104139779D01*
X208709310Y-104140220D01*
X209176258Y-103947282D01*
X209344700Y-103779133D01*
X209344700Y-107330443D01*
X209193189Y-106568747D01*
X208741695Y-105893038D01*
X208065986Y-105441544D01*
X207268933Y-105283000D01*
X205633467Y-105283000D01*
X204836414Y-105441544D01*
X204160705Y-105893038D01*
X203709211Y-106568747D01*
X203550667Y-107365800D01*
X203709211Y-108162853D01*
X204160705Y-108838562D01*
X204836414Y-109290056D01*
X205633467Y-109448600D01*
X207268933Y-109448600D01*
X208065986Y-109290056D01*
X208741695Y-108838562D01*
X209193189Y-108162853D01*
X209344700Y-107401157D01*
X209344700Y-110252596D01*
X206850208Y-112747088D01*
X206831194Y-112651498D01*
X206575164Y-112268321D01*
X206191987Y-112012291D01*
X205740000Y-111922385D01*
X205288013Y-112012291D01*
X204904836Y-112268321D01*
X204648806Y-112651498D01*
X204558900Y-113103485D01*
X204558900Y-113667715D01*
X204648806Y-114119702D01*
X204904836Y-114502879D01*
X205288013Y-114758909D01*
X205740000Y-114848815D01*
X206191987Y-114758909D01*
X206575164Y-114502879D01*
X206831194Y-114119702D01*
X206855959Y-113995200D01*
X207073800Y-113995200D01*
X207307084Y-113948797D01*
X207504852Y-113816652D01*
X210385352Y-110936152D01*
X210517497Y-110738384D01*
X210518946Y-110731100D01*
X210563900Y-110505100D01*
X210563900Y-97853600D01*
X210517497Y-97620316D01*
X210440843Y-97505595D01*
X210385353Y-97422548D01*
X206511752Y-93548948D01*
X206313984Y-93416803D01*
X206080700Y-93370400D01*
X205661849Y-93370400D01*
X205541134Y-93189737D01*
X205178558Y-92947472D01*
X204750871Y-92862400D01*
X204189129Y-92862400D01*
X203761442Y-92947472D01*
X203398866Y-93189737D01*
X203156601Y-93552313D01*
X203071529Y-93980000D01*
X200788471Y-93980000D01*
X200703399Y-93552313D01*
X200461134Y-93189737D01*
X200098558Y-92947472D01*
X199670871Y-92862400D01*
X199109129Y-92862400D01*
X198681442Y-92947472D01*
X198318866Y-93189737D01*
X198076601Y-93552313D01*
X197991529Y-93980000D01*
X196423652Y-93980000D01*
X196342447Y-93571753D01*
X196111194Y-93225658D01*
X195765099Y-92994405D01*
X195356852Y-92913200D01*
X194279148Y-92913200D01*
X193870901Y-92994405D01*
X193524806Y-93225658D01*
X193360206Y-93472000D01*
X193217800Y-93472000D01*
X193023397Y-93510669D01*
X192858590Y-93620790D01*
X192810513Y-93692742D01*
X192786447Y-93571753D01*
X192555194Y-93225658D01*
X192370632Y-93102337D01*
X192420210Y-93069210D01*
X193432790Y-92056630D01*
X193524806Y-92194342D01*
X193870901Y-92425595D01*
X194279148Y-92506800D01*
X195356852Y-92506800D01*
X195765099Y-92425595D01*
X196111194Y-92194342D01*
X196342447Y-91848247D01*
X196423652Y-91440000D01*
X196342447Y-91031753D01*
X196111194Y-90685658D01*
X195765099Y-90454405D01*
X195356852Y-90373200D01*
X194279148Y-90373200D01*
X193870901Y-90454405D01*
X193524806Y-90685658D01*
X193360206Y-90932000D01*
X193217800Y-90932000D01*
X193023397Y-90970669D01*
X192858590Y-91080790D01*
X192810513Y-91152742D01*
X192786447Y-91031753D01*
X192555194Y-90685658D01*
X192209099Y-90454405D01*
X191800852Y-90373200D01*
X190723148Y-90373200D01*
X190314901Y-90454405D01*
X189968806Y-90685658D01*
X189804206Y-90932000D01*
X189661800Y-90932000D01*
X189467397Y-90970669D01*
X189302590Y-91080790D01*
X189192469Y-91245597D01*
X189153800Y-91440000D01*
X189153800Y-91533880D01*
X187172600Y-93515080D01*
X187172600Y-93064129D01*
X187087528Y-92636442D01*
X186845263Y-92273866D01*
X186482687Y-92031601D01*
X186055000Y-91946529D01*
X185627313Y-92031601D01*
X185264737Y-92273866D01*
X185022472Y-92636442D01*
X184937400Y-93064129D01*
X184937400Y-93625871D01*
X185022472Y-94053558D01*
X185264737Y-94416134D01*
X185486933Y-94564600D01*
X182686368Y-94564600D01*
X182791320Y-94494473D01*
X183143706Y-93967090D01*
X183267447Y-93345000D01*
X183143706Y-92722910D01*
X182791320Y-92195527D01*
X182263937Y-91843141D01*
X181641847Y-91719400D01*
X181578153Y-91719400D01*
X180956063Y-91843141D01*
X180428680Y-92195527D01*
X180340686Y-92327219D01*
X180188358Y-92099243D01*
X176627557Y-88538443D01*
X176347385Y-88351238D01*
X176335435Y-88348861D01*
X176016900Y-88285500D01*
X173255300Y-88285500D01*
X172924815Y-88351238D01*
X172644643Y-88538443D01*
X172457438Y-88818615D01*
X172391700Y-89149100D01*
X172457438Y-89479585D01*
X172644643Y-89759757D01*
X172924815Y-89946962D01*
X173255300Y-90012700D01*
X175659186Y-90012700D01*
X177358919Y-91712434D01*
X175260000Y-91712434D01*
X175121252Y-91740033D01*
X175003627Y-91818627D01*
X174925033Y-91936252D01*
X174897434Y-92075000D01*
X174897434Y-94564600D01*
X172653067Y-94564600D01*
X172875263Y-94416134D01*
X173117528Y-94053558D01*
X173202600Y-93625871D01*
X173202600Y-93064129D01*
X173117528Y-92636442D01*
X172875263Y-92273866D01*
X172512687Y-92031601D01*
X172085000Y-91946529D01*
X171657313Y-92031601D01*
X171294737Y-92273866D01*
X171052472Y-92636442D01*
X170967400Y-93064129D01*
X170967400Y-93625871D01*
X171052472Y-94053558D01*
X171294737Y-94416134D01*
X171516933Y-94564600D01*
X167573067Y-94564600D01*
X167795263Y-94416134D01*
X168037528Y-94053558D01*
X168122600Y-93625871D01*
X168122600Y-93064129D01*
X168037528Y-92636442D01*
X167795263Y-92273866D01*
X167432687Y-92031601D01*
X167005000Y-91946529D01*
X166577313Y-92031601D01*
X166214737Y-92273866D01*
X165972472Y-92636442D01*
X165887400Y-93064129D01*
X165887400Y-93625871D01*
X165972472Y-94053558D01*
X166214737Y-94416134D01*
X166436933Y-94564600D01*
X163636368Y-94564600D01*
X163741320Y-94494473D01*
X164093706Y-93967090D01*
X164217447Y-93345000D01*
X164093706Y-92722910D01*
X163741320Y-92195527D01*
X163213937Y-91843141D01*
X162591847Y-91719400D01*
X162528153Y-91719400D01*
X161967500Y-91830921D01*
X170539210Y-83259211D01*
X170649331Y-83094404D01*
X170663355Y-83023897D01*
X170688000Y-82900000D01*
X170688000Y-80021733D01*
X170695658Y-80033194D01*
X170942000Y-80197794D01*
X170942000Y-80340200D01*
X170980669Y-80534603D01*
X171090790Y-80699410D01*
X178380590Y-87989210D01*
X178545397Y-88099331D01*
X178739800Y-88138000D01*
X189980267Y-88138000D01*
X189968806Y-88145658D01*
X189737553Y-88491753D01*
X189656348Y-88900000D01*
X189737553Y-89308247D01*
X189968806Y-89654342D01*
X190314901Y-89885595D01*
X190723148Y-89966800D01*
X191800852Y-89966800D01*
X192209099Y-89885595D01*
X192555194Y-89654342D01*
X192786447Y-89308247D01*
X192867652Y-88900000D01*
X192786447Y-88491753D01*
X192555194Y-88145658D01*
X192543733Y-88138000D01*
X193536267Y-88138000D01*
X193524806Y-88145658D01*
X193293553Y-88491753D01*
X193212348Y-88900000D01*
X193293553Y-89308247D01*
X193524806Y-89654342D01*
X193870901Y-89885595D01*
X194279148Y-89966800D01*
X195356852Y-89966800D01*
X195765099Y-89885595D01*
X196111194Y-89654342D01*
X196342447Y-89308247D01*
X196423652Y-88900000D01*
X196342447Y-88491753D01*
X196111194Y-88145658D01*
X196099733Y-88138000D01*
X199777729Y-88138000D01*
X199777729Y-88519000D01*
X199801385Y-88637927D01*
X199868752Y-88738748D01*
X199969573Y-88806115D01*
X200088500Y-88829771D01*
X204279500Y-88829771D01*
X204398427Y-88806115D01*
X204499248Y-88738748D01*
X204566615Y-88637927D01*
X204590271Y-88519000D01*
X204590271Y-86741000D01*
X204566615Y-86622073D01*
X204513144Y-86542048D01*
X204624811Y-86495794D01*
X204796294Y-86324311D01*
X204889100Y-86100257D01*
X204889100Y-85394800D01*
X204736700Y-85242400D01*
X202336400Y-85242400D01*
X202336400Y-85262400D01*
X202031600Y-85262400D01*
X202031600Y-85242400D01*
X199631300Y-85242400D01*
X199478900Y-85394800D01*
X199478900Y-86100257D01*
X199571706Y-86324311D01*
X199743189Y-86495794D01*
X199854856Y-86542048D01*
X199801385Y-86622073D01*
X199777729Y-86741000D01*
X199777729Y-87122000D01*
X196099733Y-87122000D01*
X196111194Y-87114342D01*
X196342447Y-86768247D01*
X196423652Y-86360000D01*
X196342447Y-85951753D01*
X196111194Y-85605658D01*
X195765099Y-85374405D01*
X195356852Y-85293200D01*
X194279148Y-85293200D01*
X193870901Y-85374405D01*
X193524806Y-85605658D01*
X193293553Y-85951753D01*
X193212348Y-86360000D01*
X193293553Y-86768247D01*
X193524806Y-87114342D01*
X193536267Y-87122000D01*
X192543733Y-87122000D01*
X192555194Y-87114342D01*
X192786447Y-86768247D01*
X192867652Y-86360000D01*
X192786447Y-85951753D01*
X192555194Y-85605658D01*
X192209099Y-85374405D01*
X191800852Y-85293200D01*
X190723148Y-85293200D01*
X190314901Y-85374405D01*
X189968806Y-85605658D01*
X189737553Y-85951753D01*
X189656348Y-86360000D01*
X189737553Y-86768247D01*
X189968806Y-87114342D01*
X189980267Y-87122000D01*
X178950220Y-87122000D01*
X171998772Y-80170552D01*
X172204342Y-80033194D01*
X172435595Y-79687099D01*
X172516800Y-79278852D01*
X172516800Y-78201148D01*
X172435595Y-77792901D01*
X172338642Y-77647800D01*
X173101358Y-77647800D01*
X173004405Y-77792901D01*
X172923200Y-78201148D01*
X172923200Y-79278852D01*
X173004405Y-79687099D01*
X173235658Y-80033194D01*
X173482000Y-80197794D01*
X173482000Y-80340200D01*
X173520669Y-80534603D01*
X173630790Y-80699410D01*
X175644090Y-82712710D01*
X175808896Y-82822831D01*
X176003300Y-82861500D01*
X190274350Y-82861500D01*
X189968806Y-83065658D01*
X189737553Y-83411753D01*
X189656348Y-83820000D01*
X189737553Y-84228247D01*
X189968806Y-84574342D01*
X190314901Y-84805595D01*
X190723148Y-84886800D01*
X191800852Y-84886800D01*
X192209099Y-84805595D01*
X192555194Y-84574342D01*
X192786447Y-84228247D01*
X192867652Y-83820000D01*
X192786447Y-83411753D01*
X192555194Y-83065658D01*
X192249650Y-82861500D01*
X193830350Y-82861500D01*
X193524806Y-83065658D01*
X193293553Y-83411753D01*
X193212348Y-83820000D01*
X193293553Y-84228247D01*
X193524806Y-84574342D01*
X193870901Y-84805595D01*
X194279148Y-84886800D01*
X195356852Y-84886800D01*
X195765099Y-84805595D01*
X196111194Y-84574342D01*
X196342447Y-84228247D01*
X196423652Y-83820000D01*
X196342447Y-83411753D01*
X196111194Y-83065658D01*
X195805650Y-82861500D01*
X197872000Y-82861500D01*
X197878761Y-82860155D01*
X197878526Y-83129693D01*
X198030948Y-83498581D01*
X198312934Y-83781061D01*
X198681556Y-83934126D01*
X199080693Y-83934474D01*
X199449581Y-83782052D01*
X199732061Y-83500066D01*
X199777729Y-83390085D01*
X199777729Y-83439000D01*
X199801385Y-83557927D01*
X199854856Y-83637952D01*
X199743189Y-83684206D01*
X199571706Y-83855689D01*
X199478900Y-84079743D01*
X199478900Y-84785200D01*
X199631300Y-84937600D01*
X202031600Y-84937600D01*
X202031600Y-84917600D01*
X202336400Y-84917600D01*
X202336400Y-84937600D01*
X204736700Y-84937600D01*
X204889100Y-84785200D01*
X204889100Y-84079743D01*
X204796294Y-83855689D01*
X204624811Y-83684206D01*
X204513144Y-83637952D01*
X204566615Y-83557927D01*
X204590271Y-83439000D01*
X204590271Y-83129693D01*
X207784526Y-83129693D01*
X207936948Y-83498581D01*
X208218934Y-83781061D01*
X208587556Y-83934126D01*
X208986693Y-83934474D01*
X209355581Y-83782052D01*
X209638061Y-83500066D01*
X209791126Y-83131444D01*
X209791474Y-82732307D01*
X209639052Y-82363419D01*
X209357066Y-82080939D01*
X208988444Y-81927874D01*
X208589307Y-81927526D01*
X208220419Y-82079948D01*
X207937939Y-82361934D01*
X207784874Y-82730556D01*
X207784526Y-83129693D01*
X204590271Y-83129693D01*
X204590271Y-81661000D01*
X204566615Y-81542073D01*
X204499248Y-81441252D01*
X204398427Y-81373885D01*
X204279500Y-81350229D01*
X200088500Y-81350229D01*
X199969573Y-81373885D01*
X199902802Y-81418500D01*
X198299000Y-81418500D01*
X198104596Y-81457169D01*
X197939790Y-81567290D01*
X197661580Y-81845500D01*
X196237374Y-81845500D01*
X196342447Y-81688247D01*
X196423652Y-81280000D01*
X196342447Y-80871753D01*
X196111194Y-80525658D01*
X195765099Y-80294405D01*
X195356852Y-80213200D01*
X194279148Y-80213200D01*
X193870901Y-80294405D01*
X193524806Y-80525658D01*
X193293553Y-80871753D01*
X193212348Y-81280000D01*
X193293553Y-81688247D01*
X193398626Y-81845500D01*
X192681374Y-81845500D01*
X192786447Y-81688247D01*
X192867652Y-81280000D01*
X192786447Y-80871753D01*
X192555194Y-80525658D01*
X192209099Y-80294405D01*
X191800852Y-80213200D01*
X190723148Y-80213200D01*
X190314901Y-80294405D01*
X189968806Y-80525658D01*
X189737553Y-80871753D01*
X189656348Y-81280000D01*
X189737553Y-81688247D01*
X189842626Y-81845500D01*
X176213720Y-81845500D01*
X174538772Y-80170552D01*
X174744342Y-80033194D01*
X174975595Y-79687099D01*
X175056800Y-79278852D01*
X175056800Y-78201148D01*
X174975595Y-77792901D01*
X174878642Y-77647800D01*
X175641358Y-77647800D01*
X175544405Y-77792901D01*
X175463200Y-78201148D01*
X175463200Y-79278852D01*
X175544405Y-79687099D01*
X175775658Y-80033194D01*
X176121753Y-80264447D01*
X176530000Y-80345652D01*
X176938247Y-80264447D01*
X177284342Y-80033194D01*
X177515595Y-79687099D01*
X177596800Y-79278852D01*
X177596800Y-78201148D01*
X177515595Y-77792901D01*
X177418642Y-77647800D01*
X178181358Y-77647800D01*
X178084405Y-77792901D01*
X178003200Y-78201148D01*
X178003200Y-79278852D01*
X178084405Y-79687099D01*
X178315658Y-80033194D01*
X178661753Y-80264447D01*
X179070000Y-80345652D01*
X179478247Y-80264447D01*
X179824342Y-80033194D01*
X180055595Y-79687099D01*
X180136800Y-79278852D01*
X180136800Y-78201148D01*
X180055595Y-77792901D01*
X179958642Y-77647800D01*
X180721358Y-77647800D01*
X180624405Y-77792901D01*
X180543200Y-78201148D01*
X180543200Y-79278852D01*
X180624405Y-79687099D01*
X180855658Y-80033194D01*
X181201753Y-80264447D01*
X181610000Y-80345652D01*
X182018247Y-80264447D01*
X182364342Y-80033194D01*
X182595595Y-79687099D01*
X182676800Y-79278852D01*
X182676800Y-78201148D01*
X182595595Y-77792901D01*
X182498642Y-77647800D01*
X183261358Y-77647800D01*
X183164405Y-77792901D01*
X183083200Y-78201148D01*
X183083200Y-79278852D01*
X183164405Y-79687099D01*
X183395658Y-80033194D01*
X183741753Y-80264447D01*
X184150000Y-80345652D01*
X184558247Y-80264447D01*
X184904342Y-80033194D01*
X185135595Y-79687099D01*
X185216800Y-79278852D01*
X185216800Y-79152477D01*
X185876840Y-79152477D01*
X186193259Y-79918270D01*
X186778648Y-80504682D01*
X187543888Y-80822437D01*
X188372477Y-80823160D01*
X189138270Y-80506741D01*
X189724682Y-79921352D01*
X190042437Y-79156112D01*
X190043160Y-78327523D01*
X189781042Y-77693148D01*
X190703200Y-77693148D01*
X190703200Y-78770852D01*
X190784405Y-79179099D01*
X191015658Y-79525194D01*
X191361753Y-79756447D01*
X191770000Y-79837652D01*
X192178247Y-79756447D01*
X192524342Y-79525194D01*
X192755595Y-79179099D01*
X192836800Y-78770852D01*
X192836800Y-77693148D01*
X193243200Y-77693148D01*
X193243200Y-78770852D01*
X193324405Y-79179099D01*
X193555658Y-79525194D01*
X193901753Y-79756447D01*
X194310000Y-79837652D01*
X194718247Y-79756447D01*
X195064342Y-79525194D01*
X195295595Y-79179099D01*
X195376800Y-78770852D01*
X195376800Y-77693148D01*
X195295595Y-77284901D01*
X195064342Y-76938806D01*
X194718247Y-76707553D01*
X194310000Y-76626348D01*
X193901753Y-76707553D01*
X193555658Y-76938806D01*
X193324405Y-77284901D01*
X193243200Y-77693148D01*
X192836800Y-77693148D01*
X192755595Y-77284901D01*
X192524342Y-76938806D01*
X192178247Y-76707553D01*
X191770000Y-76626348D01*
X191361753Y-76707553D01*
X191015658Y-76938806D01*
X190784405Y-77284901D01*
X190703200Y-77693148D01*
X189781042Y-77693148D01*
X189726741Y-77561730D01*
X189141352Y-76975318D01*
X188376112Y-76657563D01*
X187547523Y-76656840D01*
X186781730Y-76973259D01*
X186195318Y-77558648D01*
X185877563Y-78323888D01*
X185876840Y-79152477D01*
X185216800Y-79152477D01*
X185216800Y-78201148D01*
X185135595Y-77792901D01*
X184904342Y-77446806D01*
X184658000Y-77282206D01*
X184658000Y-77139800D01*
X184619331Y-76945397D01*
X184509210Y-76780590D01*
X184344403Y-76670469D01*
X184150000Y-76631800D01*
X171014100Y-76631800D01*
X170819697Y-76670469D01*
X170654890Y-76780589D01*
X169820790Y-77614690D01*
X169798654Y-77647819D01*
X169664342Y-77446806D01*
X169318247Y-77215553D01*
X168910000Y-77134348D01*
X168501753Y-77215553D01*
X168155658Y-77446806D01*
X167924405Y-77792901D01*
X167843200Y-78201148D01*
X167843200Y-79278852D01*
X167924405Y-79687099D01*
X168155658Y-80033194D01*
X168501753Y-80264447D01*
X168910000Y-80345652D01*
X169318247Y-80264447D01*
X169664342Y-80033194D01*
X169672000Y-80021733D01*
X169672000Y-82689579D01*
X159480990Y-92880590D01*
X159370869Y-93045397D01*
X159332200Y-93239800D01*
X159332200Y-93999979D01*
X159112566Y-94219613D01*
X159112566Y-92075000D01*
X159084967Y-91936252D01*
X159006373Y-91818627D01*
X158888748Y-91740033D01*
X158750000Y-91712434D01*
X156210000Y-91712434D01*
X156071252Y-91740033D01*
X155953627Y-91818627D01*
X155875033Y-91936252D01*
X155847434Y-92075000D01*
X155847434Y-94615000D01*
X155875033Y-94753748D01*
X155953627Y-94871373D01*
X156071252Y-94949967D01*
X156210000Y-94977566D01*
X158354613Y-94977566D01*
X151805380Y-101526800D01*
X122539321Y-101526800D01*
X122195310Y-101182790D01*
X122030503Y-101072669D01*
X121836100Y-101034000D01*
X109120801Y-101034000D01*
X109177363Y-100962970D01*
X109326163Y-100445096D01*
X109174825Y-100228400D01*
X108102400Y-100228400D01*
X108102400Y-100248400D01*
X107797600Y-100248400D01*
X107797600Y-100228400D01*
X106725175Y-100228400D01*
X106573837Y-100445096D01*
X106722637Y-100962970D01*
X106779199Y-101034000D01*
X104615100Y-101034000D01*
X104452950Y-101066254D01*
X104420696Y-101072669D01*
X104255890Y-101182790D01*
X103475490Y-101963190D01*
X103365369Y-102127997D01*
X103326700Y-102322400D01*
X103326700Y-103365600D01*
X103365369Y-103560003D01*
X103475490Y-103724810D01*
X115857690Y-116107010D01*
X116022496Y-116217131D01*
X116216900Y-116255800D01*
X121609229Y-116255800D01*
X121609229Y-119253000D01*
X121632885Y-119371927D01*
X121700252Y-119472748D01*
X121801073Y-119540115D01*
X121920000Y-119563771D01*
X123190000Y-119563771D01*
X123308927Y-119540115D01*
X123409748Y-119472748D01*
X123477115Y-119371927D01*
X123500771Y-119253000D01*
X123500771Y-117970300D01*
X126390400Y-117970300D01*
X126390400Y-119374257D01*
X126483206Y-119598311D01*
X126654689Y-119769794D01*
X126878743Y-119862600D01*
X127330200Y-119862600D01*
X127482600Y-119710200D01*
X127482600Y-117817900D01*
X127787400Y-117817900D01*
X127787400Y-119710200D01*
X127939800Y-119862600D01*
X128391257Y-119862600D01*
X128615311Y-119769794D01*
X128786794Y-119598311D01*
X128879600Y-119374257D01*
X128879600Y-117970300D01*
X128727200Y-117817900D01*
X127787400Y-117817900D01*
X127482600Y-117817900D01*
X126542800Y-117817900D01*
X126390400Y-117970300D01*
X123500771Y-117970300D01*
X123500771Y-116078000D01*
X123477115Y-115959073D01*
X123409748Y-115858252D01*
X123308927Y-115790885D01*
X123190000Y-115767229D01*
X123063000Y-115767229D01*
X123063000Y-115747800D01*
X123024331Y-115553397D01*
X122914210Y-115388590D01*
X122749403Y-115278469D01*
X122555000Y-115239800D01*
X121236179Y-115239800D01*
X121259600Y-115183257D01*
X121259600Y-113779300D01*
X121107200Y-113626900D01*
X120167400Y-113626900D01*
X120167400Y-113646900D01*
X119862600Y-113646900D01*
X119862600Y-113626900D01*
X118922800Y-113626900D01*
X118770400Y-113779300D01*
X118770400Y-115183257D01*
X118793821Y-115239800D01*
X116427320Y-115239800D01*
X112953263Y-111765743D01*
X118770400Y-111765743D01*
X118770400Y-113169700D01*
X118922800Y-113322100D01*
X119862600Y-113322100D01*
X119862600Y-111429800D01*
X120167400Y-111429800D01*
X120167400Y-113322100D01*
X121107200Y-113322100D01*
X121259600Y-113169700D01*
X121259600Y-111765743D01*
X121166794Y-111541689D01*
X120995311Y-111370206D01*
X120771257Y-111277400D01*
X120319800Y-111277400D01*
X120167400Y-111429800D01*
X119862600Y-111429800D01*
X119710200Y-111277400D01*
X119258743Y-111277400D01*
X119034689Y-111370206D01*
X118863206Y-111541689D01*
X118770400Y-111765743D01*
X112953263Y-111765743D01*
X108402917Y-107215397D01*
X108841708Y-106972480D01*
X109177363Y-106550970D01*
X109326163Y-106033096D01*
X109174825Y-105816400D01*
X108102400Y-105816400D01*
X108102400Y-105836400D01*
X107797600Y-105836400D01*
X107797600Y-105816400D01*
X107777600Y-105816400D01*
X107777600Y-105511600D01*
X107797600Y-105511600D01*
X107797600Y-105491600D01*
X108102400Y-105491600D01*
X108102400Y-105511600D01*
X109174825Y-105511600D01*
X109326163Y-105294904D01*
X109177363Y-104777030D01*
X109175746Y-104775000D01*
X110706880Y-104775000D01*
X115603590Y-109671711D01*
X115768397Y-109781831D01*
X115962800Y-109820500D01*
X176735670Y-109820500D01*
X176059207Y-110496963D01*
X175895000Y-110464300D01*
X146312966Y-110464300D01*
X146117312Y-110268304D01*
X145823348Y-110146239D01*
X145505048Y-110145961D01*
X145210872Y-110267513D01*
X145013741Y-110464300D01*
X144484600Y-110464300D01*
X144192995Y-110522304D01*
X143995008Y-110654595D01*
X143945785Y-110687485D01*
X135574370Y-119058900D01*
X132983330Y-119058900D01*
X130439462Y-116515032D01*
X130650590Y-116427796D01*
X130861556Y-116217199D01*
X130975870Y-115941899D01*
X130976130Y-115643809D01*
X130862296Y-115368310D01*
X130857348Y-115363353D01*
X130928927Y-115349115D01*
X131029748Y-115281748D01*
X131097115Y-115180927D01*
X131120771Y-115062000D01*
X131120771Y-111887000D01*
X131097115Y-111768073D01*
X131029748Y-111667252D01*
X130928927Y-111599885D01*
X130810000Y-111576229D01*
X129540000Y-111576229D01*
X129421073Y-111599885D01*
X129320252Y-111667252D01*
X129252885Y-111768073D01*
X129229229Y-111887000D01*
X129229229Y-115023899D01*
X129081315Y-114875985D01*
X129040652Y-114848815D01*
X128834105Y-114710804D01*
X128542500Y-114652800D01*
X126374600Y-114652800D01*
X126095850Y-114708247D01*
X126092566Y-114708900D01*
X126092566Y-111887000D01*
X126064967Y-111748252D01*
X125986373Y-111630627D01*
X125868748Y-111552033D01*
X125730000Y-111524434D01*
X124460000Y-111524434D01*
X124321252Y-111552033D01*
X124203627Y-111630627D01*
X124125033Y-111748252D01*
X124097434Y-111887000D01*
X124097434Y-115062000D01*
X124125033Y-115200748D01*
X124203627Y-115318373D01*
X124321252Y-115396967D01*
X124333000Y-115399304D01*
X124333000Y-115722700D01*
X124391004Y-116014305D01*
X124556185Y-116261515D01*
X124803395Y-116426696D01*
X125095000Y-116484700D01*
X126066700Y-116484700D01*
X126358305Y-116426696D01*
X126390400Y-116405251D01*
X126390400Y-117360700D01*
X126542800Y-117513100D01*
X127482600Y-117513100D01*
X127482600Y-117493100D01*
X127787400Y-117493100D01*
X127787400Y-117513100D01*
X128727200Y-117513100D01*
X128879600Y-117360700D01*
X128879600Y-117110430D01*
X132128885Y-120359715D01*
X132376095Y-120524896D01*
X132667700Y-120582900D01*
X135128000Y-120582900D01*
X135128000Y-125651005D01*
X135099737Y-125669890D01*
X134857472Y-126032466D01*
X134772400Y-126460153D01*
X134772400Y-127539847D01*
X134857472Y-127967534D01*
X134991887Y-128168700D01*
X134187526Y-128168700D01*
X134335595Y-127947099D01*
X134416800Y-127538852D01*
X134416800Y-126461148D01*
X134335595Y-126052901D01*
X134104342Y-125706806D01*
X133758247Y-125475553D01*
X133350000Y-125394348D01*
X132941753Y-125475553D01*
X132595658Y-125706806D01*
X132364405Y-126052901D01*
X132283200Y-126461148D01*
X132283200Y-127538852D01*
X132364405Y-127947099D01*
X132512474Y-128168700D01*
X131647526Y-128168700D01*
X131795595Y-127947099D01*
X131876800Y-127538852D01*
X131876800Y-126461148D01*
X131795595Y-126052901D01*
X131564342Y-125706806D01*
X131218247Y-125475553D01*
X130810000Y-125394348D01*
X130401753Y-125475553D01*
X130055658Y-125706806D01*
X129824405Y-126052901D01*
X129743200Y-126461148D01*
X129743200Y-127538852D01*
X129824405Y-127947099D01*
X129972474Y-128168700D01*
X129107526Y-128168700D01*
X129255595Y-127947099D01*
X129336800Y-127538852D01*
X129336800Y-126461148D01*
X129255595Y-126052901D01*
X129024342Y-125706806D01*
X128678247Y-125475553D01*
X128270000Y-125394348D01*
X127861753Y-125475553D01*
X127515658Y-125706806D01*
X127284405Y-126052901D01*
X127203200Y-126461148D01*
X127203200Y-127538852D01*
X127284405Y-127947099D01*
X127432474Y-128168700D01*
X126567526Y-128168700D01*
X126715595Y-127947099D01*
X126796800Y-127538852D01*
X126796800Y-126461148D01*
X126715595Y-126052901D01*
X126484342Y-125706806D01*
X126138247Y-125475553D01*
X125730000Y-125394348D01*
X125321753Y-125475553D01*
X124975658Y-125706806D01*
X124744405Y-126052901D01*
X124663200Y-126461148D01*
X124663200Y-127538852D01*
X124744405Y-127947099D01*
X124892474Y-128168700D01*
X121824830Y-128168700D01*
X110269615Y-116613485D01*
X110199004Y-116566304D01*
X110022405Y-116448304D01*
X109730800Y-116390300D01*
X105402931Y-116390300D01*
X103871680Y-114859050D01*
X104367104Y-114615631D01*
X104713872Y-114203688D01*
X104876600Y-113690400D01*
X104876600Y-113182400D01*
X103657400Y-113182400D01*
X103657400Y-113202400D01*
X103352600Y-113202400D01*
X103352600Y-113182400D01*
X102195030Y-113182400D01*
X102082600Y-113069970D01*
X102082600Y-112490153D01*
X102058621Y-112369600D01*
X102133400Y-112369600D01*
X102133400Y-112877600D01*
X103352600Y-112877600D01*
X103352600Y-111312363D01*
X103657400Y-111312363D01*
X103657400Y-112877600D01*
X104876600Y-112877600D01*
X104876600Y-112490153D01*
X104927400Y-112490153D01*
X104927400Y-113569847D01*
X105012472Y-113997534D01*
X105254737Y-114360110D01*
X105617313Y-114602375D01*
X106045000Y-114687447D01*
X106472687Y-114602375D01*
X106835263Y-114360110D01*
X107077528Y-113997534D01*
X107162600Y-113569847D01*
X107162600Y-112490153D01*
X107077528Y-112062466D01*
X106835263Y-111699890D01*
X106472687Y-111457625D01*
X106045000Y-111372553D01*
X105617313Y-111457625D01*
X105254737Y-111699890D01*
X105012472Y-112062466D01*
X104927400Y-112490153D01*
X104876600Y-112490153D01*
X104876600Y-112369600D01*
X104713872Y-111856312D01*
X104367104Y-111444369D01*
X103868761Y-111199516D01*
X103657400Y-111312363D01*
X103352600Y-111312363D01*
X103141239Y-111199516D01*
X102642896Y-111444369D01*
X102296128Y-111856312D01*
X102133400Y-112369600D01*
X102058621Y-112369600D01*
X101997528Y-112062466D01*
X101755263Y-111699890D01*
X101392687Y-111457625D01*
X100965000Y-111372553D01*
X100537313Y-111457625D01*
X100174737Y-111699890D01*
X99932472Y-112062466D01*
X99847400Y-112490153D01*
X93764100Y-112490153D01*
X93764100Y-107950000D01*
X96159467Y-107950000D01*
X96298676Y-108649851D01*
X96695110Y-109243157D01*
X97288416Y-109639591D01*
X97988267Y-109778800D01*
X100131733Y-109778800D01*
X100831584Y-109639591D01*
X101424890Y-109243157D01*
X101821324Y-108649851D01*
X101960533Y-107950000D01*
X101821324Y-107250149D01*
X101424890Y-106656843D01*
X100831584Y-106260409D01*
X100131733Y-106121200D01*
X97988267Y-106121200D01*
X97288416Y-106260409D01*
X96695110Y-106656843D01*
X96298676Y-107250149D01*
X96159467Y-107950000D01*
X93764100Y-107950000D01*
X93764100Y-99706904D01*
X106573837Y-99706904D01*
X106725175Y-99923600D01*
X107797600Y-99923600D01*
X107797600Y-98612363D01*
X108102400Y-98612363D01*
X108102400Y-99923600D01*
X109174825Y-99923600D01*
X109326163Y-99706904D01*
X109177363Y-99189030D01*
X108841708Y-98767520D01*
X108370299Y-98506546D01*
X108313761Y-98499516D01*
X108102400Y-98612363D01*
X107797600Y-98612363D01*
X107586239Y-98499516D01*
X107529701Y-98506546D01*
X107058292Y-98767520D01*
X106722637Y-99189030D01*
X106573837Y-99706904D01*
X93764100Y-99706904D01*
X93764100Y-97790000D01*
X96159467Y-97790000D01*
X96298676Y-98489851D01*
X96695110Y-99083157D01*
X97288416Y-99479591D01*
X97988267Y-99618800D01*
X100131733Y-99618800D01*
X100831584Y-99479591D01*
X101424890Y-99083157D01*
X101821324Y-98489851D01*
X101890092Y-98144129D01*
X113817400Y-98144129D01*
X113817400Y-98705871D01*
X113902472Y-99133558D01*
X114144737Y-99496134D01*
X114507313Y-99738399D01*
X114935000Y-99823471D01*
X115362687Y-99738399D01*
X115725263Y-99496134D01*
X115967528Y-99133558D01*
X115987212Y-99034600D01*
X127852788Y-99034600D01*
X127872472Y-99133558D01*
X128114737Y-99496134D01*
X128477313Y-99738399D01*
X128905000Y-99823471D01*
X129332687Y-99738399D01*
X129695263Y-99496134D01*
X129937528Y-99133558D01*
X129957212Y-99034600D01*
X132932788Y-99034600D01*
X132952472Y-99133558D01*
X133194737Y-99496134D01*
X133557313Y-99738399D01*
X133985000Y-99823471D01*
X134412687Y-99738399D01*
X134775263Y-99496134D01*
X135017528Y-99133558D01*
X135037212Y-99034600D01*
X146902788Y-99034600D01*
X146922472Y-99133558D01*
X147164737Y-99496134D01*
X147527313Y-99738399D01*
X147955000Y-99823471D01*
X148382687Y-99738399D01*
X148745263Y-99496134D01*
X148987528Y-99133558D01*
X149007212Y-99034600D01*
X151982788Y-99034600D01*
X152002472Y-99133558D01*
X152244737Y-99496134D01*
X152607313Y-99738399D01*
X153035000Y-99823471D01*
X153462687Y-99738399D01*
X153825263Y-99496134D01*
X154067528Y-99133558D01*
X154152600Y-98705871D01*
X154152600Y-98144129D01*
X154067528Y-97716442D01*
X153825263Y-97353866D01*
X153462687Y-97111601D01*
X153035000Y-97026529D01*
X152607313Y-97111601D01*
X152244737Y-97353866D01*
X152002472Y-97716442D01*
X151982788Y-97815400D01*
X149007212Y-97815400D01*
X148987528Y-97716442D01*
X148745263Y-97353866D01*
X148382687Y-97111601D01*
X147955000Y-97026529D01*
X147527313Y-97111601D01*
X147164737Y-97353866D01*
X146922472Y-97716442D01*
X146902788Y-97815400D01*
X135037212Y-97815400D01*
X135017528Y-97716442D01*
X134775263Y-97353866D01*
X134412687Y-97111601D01*
X133985000Y-97026529D01*
X133557313Y-97111601D01*
X133194737Y-97353866D01*
X132952472Y-97716442D01*
X132932788Y-97815400D01*
X129957212Y-97815400D01*
X129937528Y-97716442D01*
X129695263Y-97353866D01*
X129332687Y-97111601D01*
X128905000Y-97026529D01*
X128477313Y-97111601D01*
X128114737Y-97353866D01*
X127872472Y-97716442D01*
X127852788Y-97815400D01*
X115987212Y-97815400D01*
X115967528Y-97716442D01*
X115725263Y-97353866D01*
X115362687Y-97111601D01*
X114935000Y-97026529D01*
X114507313Y-97111601D01*
X114144737Y-97353866D01*
X113902472Y-97716442D01*
X113817400Y-98144129D01*
X101890092Y-98144129D01*
X101960533Y-97790000D01*
X101821324Y-97090149D01*
X101424890Y-96496843D01*
X100831584Y-96100409D01*
X100131733Y-95961200D01*
X97988267Y-95961200D01*
X97288416Y-96100409D01*
X96695110Y-96496843D01*
X96298676Y-97090149D01*
X96159467Y-97790000D01*
X93764100Y-97790000D01*
X93764100Y-93064129D01*
X113817400Y-93064129D01*
X113817400Y-93625871D01*
X113902472Y-94053558D01*
X114144737Y-94416134D01*
X114507313Y-94658399D01*
X114935000Y-94743471D01*
X115362687Y-94658399D01*
X115725263Y-94416134D01*
X115967528Y-94053558D01*
X116052600Y-93625871D01*
X116052600Y-93064129D01*
X115967528Y-92636442D01*
X115725263Y-92273866D01*
X115362687Y-92031601D01*
X114935000Y-91946529D01*
X114507313Y-92031601D01*
X114144737Y-92273866D01*
X113902472Y-92636442D01*
X113817400Y-93064129D01*
X93764100Y-93064129D01*
X93764100Y-92919171D01*
X98552000Y-92919171D01*
X98670927Y-92895515D01*
X98771748Y-92828148D01*
X98839115Y-92727327D01*
X98862771Y-92608400D01*
X98862771Y-90756437D01*
X99125934Y-91020061D01*
X99494556Y-91173126D01*
X99893693Y-91173474D01*
X100262581Y-91021052D01*
X100545061Y-90739066D01*
X100698126Y-90370444D01*
X100698474Y-89971307D01*
X100546052Y-89602419D01*
X100264066Y-89319939D01*
X99895444Y-89166874D01*
X99496307Y-89166526D01*
X99127419Y-89318948D01*
X98844939Y-89600934D01*
X98818496Y-89664615D01*
X98771748Y-89594652D01*
X98670927Y-89527285D01*
X98552000Y-89503629D01*
X93764100Y-89503629D01*
X93764100Y-84187400D01*
X99936300Y-84187400D01*
X99936300Y-87757000D01*
X99974969Y-87951403D01*
X100085090Y-88116210D01*
X100249897Y-88226331D01*
X100444300Y-88265000D01*
X100463729Y-88265000D01*
X100463729Y-88646000D01*
X100487385Y-88764927D01*
X100554752Y-88865748D01*
X100655573Y-88933115D01*
X100774500Y-88956771D01*
X104965500Y-88956771D01*
X105084427Y-88933115D01*
X105185248Y-88865748D01*
X105252615Y-88764927D01*
X105276271Y-88646000D01*
X105276271Y-86868000D01*
X105252615Y-86749073D01*
X105199144Y-86669048D01*
X105310811Y-86622794D01*
X105482294Y-86451311D01*
X105575100Y-86227257D01*
X105575100Y-85521800D01*
X105422700Y-85369400D01*
X103022400Y-85369400D01*
X103022400Y-85389400D01*
X102717600Y-85389400D01*
X102717600Y-85369400D01*
X102697600Y-85369400D01*
X102697600Y-85064600D01*
X102717600Y-85064600D01*
X102717600Y-85044600D01*
X103022400Y-85044600D01*
X103022400Y-85064600D01*
X105422700Y-85064600D01*
X105575100Y-84912200D01*
X105575100Y-84530800D01*
X117388100Y-84530800D01*
X117582503Y-84492131D01*
X117747310Y-84382010D01*
X119152620Y-82976700D01*
X131654280Y-82976700D01*
X122142590Y-92488390D01*
X122032469Y-92653197D01*
X121993800Y-92847600D01*
X121993800Y-93238080D01*
X121012566Y-94219314D01*
X121012566Y-92075000D01*
X120984967Y-91936252D01*
X120906373Y-91818627D01*
X120788748Y-91740033D01*
X120650000Y-91712434D01*
X118110000Y-91712434D01*
X117971252Y-91740033D01*
X117853627Y-91818627D01*
X117775033Y-91936252D01*
X117747434Y-92075000D01*
X117747434Y-94615000D01*
X117775033Y-94753748D01*
X117853627Y-94871373D01*
X117971252Y-94949967D01*
X118110000Y-94977566D01*
X120254314Y-94977566D01*
X119427380Y-95804500D01*
X118343833Y-95804500D01*
X118217299Y-95677744D01*
X117941999Y-95563430D01*
X117643909Y-95563170D01*
X117368410Y-95677004D01*
X117157444Y-95887601D01*
X117043130Y-96162901D01*
X117042870Y-96460991D01*
X117156704Y-96736490D01*
X117367301Y-96947456D01*
X117642601Y-97061770D01*
X117940691Y-97062030D01*
X118216190Y-96948196D01*
X118344110Y-96820500D01*
X119637800Y-96820500D01*
X119832203Y-96781831D01*
X119997010Y-96671710D01*
X122861010Y-93807710D01*
X122886888Y-93768981D01*
X122926294Y-93967090D01*
X123278680Y-94494473D01*
X123806063Y-94846859D01*
X124428153Y-94970600D01*
X124491847Y-94970600D01*
X125113937Y-94846859D01*
X125641320Y-94494473D01*
X125993706Y-93967090D01*
X126117447Y-93345000D01*
X126061579Y-93064129D01*
X127787400Y-93064129D01*
X127787400Y-93625871D01*
X127872472Y-94053558D01*
X128114737Y-94416134D01*
X128477313Y-94658399D01*
X128905000Y-94743471D01*
X129332687Y-94658399D01*
X129695263Y-94416134D01*
X129937528Y-94053558D01*
X130022600Y-93625871D01*
X130022600Y-93064129D01*
X132867400Y-93064129D01*
X132867400Y-93625871D01*
X132952472Y-94053558D01*
X133194737Y-94416134D01*
X133557313Y-94658399D01*
X133985000Y-94743471D01*
X134412687Y-94658399D01*
X134775263Y-94416134D01*
X135017528Y-94053558D01*
X135102600Y-93625871D01*
X135102600Y-93064129D01*
X135017528Y-92636442D01*
X134775263Y-92273866D01*
X134477639Y-92075000D01*
X136797434Y-92075000D01*
X136797434Y-94615000D01*
X136825033Y-94753748D01*
X136903627Y-94871373D01*
X137021252Y-94949967D01*
X137160000Y-94977566D01*
X139700000Y-94977566D01*
X139838748Y-94949967D01*
X139956373Y-94871373D01*
X140034967Y-94753748D01*
X140062566Y-94615000D01*
X140062566Y-93345000D01*
X141852553Y-93345000D01*
X141976294Y-93967090D01*
X142328680Y-94494473D01*
X142856063Y-94846859D01*
X143478153Y-94970600D01*
X143541847Y-94970600D01*
X144163937Y-94846859D01*
X144691320Y-94494473D01*
X145043706Y-93967090D01*
X145167447Y-93345000D01*
X145111579Y-93064129D01*
X146837400Y-93064129D01*
X146837400Y-93625871D01*
X146922472Y-94053558D01*
X147164737Y-94416134D01*
X147527313Y-94658399D01*
X147955000Y-94743471D01*
X148382687Y-94658399D01*
X148745263Y-94416134D01*
X148987528Y-94053558D01*
X149072600Y-93625871D01*
X149072600Y-93064129D01*
X151917400Y-93064129D01*
X151917400Y-93625871D01*
X152002472Y-94053558D01*
X152244737Y-94416134D01*
X152607313Y-94658399D01*
X153035000Y-94743471D01*
X153462687Y-94658399D01*
X153825263Y-94416134D01*
X154067528Y-94053558D01*
X154152600Y-93625871D01*
X154152600Y-93064129D01*
X154067528Y-92636442D01*
X153825263Y-92273866D01*
X153462687Y-92031601D01*
X153035000Y-91946529D01*
X152607313Y-92031601D01*
X152244737Y-92273866D01*
X152002472Y-92636442D01*
X151917400Y-93064129D01*
X149072600Y-93064129D01*
X148987528Y-92636442D01*
X148745263Y-92273866D01*
X148382687Y-92031601D01*
X147955000Y-91946529D01*
X147527313Y-92031601D01*
X147164737Y-92273866D01*
X146922472Y-92636442D01*
X146837400Y-93064129D01*
X145111579Y-93064129D01*
X145043706Y-92722910D01*
X144691320Y-92195527D01*
X144163937Y-91843141D01*
X143541847Y-91719400D01*
X143478153Y-91719400D01*
X142856063Y-91843141D01*
X142328680Y-92195527D01*
X141976294Y-92722910D01*
X141852553Y-93345000D01*
X140062566Y-93345000D01*
X140062566Y-92075000D01*
X140034967Y-91936252D01*
X139956373Y-91818627D01*
X139838748Y-91740033D01*
X139700000Y-91712434D01*
X137160000Y-91712434D01*
X137021252Y-91740033D01*
X136903627Y-91818627D01*
X136825033Y-91936252D01*
X136797434Y-92075000D01*
X134477639Y-92075000D01*
X134412687Y-92031601D01*
X133985000Y-91946529D01*
X133557313Y-92031601D01*
X133194737Y-92273866D01*
X132952472Y-92636442D01*
X132867400Y-93064129D01*
X130022600Y-93064129D01*
X129937528Y-92636442D01*
X129695263Y-92273866D01*
X129332687Y-92031601D01*
X128905000Y-91946529D01*
X128477313Y-92031601D01*
X128114737Y-92273866D01*
X127872472Y-92636442D01*
X127787400Y-93064129D01*
X126061579Y-93064129D01*
X125993706Y-92722910D01*
X125641320Y-92195527D01*
X125113937Y-91843141D01*
X124491847Y-91719400D01*
X124428153Y-91719400D01*
X124328622Y-91739198D01*
X131429329Y-84638491D01*
X133806470Y-84638491D01*
X133920304Y-84913990D01*
X134087263Y-85081241D01*
X134196690Y-85245010D01*
X139302126Y-90350447D01*
X139301970Y-90529691D01*
X139415804Y-90805190D01*
X139626401Y-91016156D01*
X139901701Y-91130470D01*
X140199791Y-91130730D01*
X140475290Y-91016896D01*
X140686256Y-90806299D01*
X140800570Y-90530999D01*
X140800830Y-90232909D01*
X140686996Y-89957410D01*
X140476399Y-89746444D01*
X140201099Y-89632130D01*
X140020493Y-89631972D01*
X135223870Y-84835350D01*
X135305070Y-84639799D01*
X135305330Y-84341709D01*
X135191496Y-84066210D01*
X134980899Y-83855244D01*
X134705599Y-83740930D01*
X134407509Y-83740670D01*
X134132010Y-83854504D01*
X133921044Y-84065101D01*
X133806730Y-84340401D01*
X133806470Y-84638491D01*
X131429329Y-84638491D01*
X132341520Y-83726300D01*
X135389267Y-83726300D01*
X135515901Y-83853156D01*
X135791201Y-83967470D01*
X136089291Y-83967730D01*
X136364790Y-83853896D01*
X136575756Y-83643299D01*
X136690070Y-83367999D01*
X136690330Y-83069909D01*
X136651817Y-82976700D01*
X159161500Y-82976700D01*
X159355903Y-82938031D01*
X159520710Y-82827910D01*
X161649211Y-80699410D01*
X161759331Y-80534603D01*
X161798000Y-80340200D01*
X161798000Y-80197794D01*
X161866800Y-80151824D01*
X161866800Y-84330380D01*
X160360154Y-85837026D01*
X160180909Y-85836870D01*
X159905410Y-85950704D01*
X159694444Y-86161301D01*
X159580130Y-86436601D01*
X159579870Y-86734691D01*
X159693704Y-87010190D01*
X159904301Y-87221156D01*
X160179601Y-87335470D01*
X160477691Y-87335730D01*
X160753190Y-87221896D01*
X160964156Y-87011299D01*
X161078470Y-86735999D01*
X161078628Y-86555392D01*
X162734010Y-84900010D01*
X162844131Y-84735203D01*
X162882800Y-84540800D01*
X162882800Y-78201148D01*
X165303200Y-78201148D01*
X165303200Y-79278852D01*
X165384405Y-79687099D01*
X165615658Y-80033194D01*
X165961753Y-80264447D01*
X166370000Y-80345652D01*
X166778247Y-80264447D01*
X167124342Y-80033194D01*
X167355595Y-79687099D01*
X167436800Y-79278852D01*
X167436800Y-78201148D01*
X167355595Y-77792901D01*
X167124342Y-77446806D01*
X166778247Y-77215553D01*
X166370000Y-77134348D01*
X165961753Y-77215553D01*
X165615658Y-77446806D01*
X165384405Y-77792901D01*
X165303200Y-78201148D01*
X162882800Y-78201148D01*
X162882800Y-77715200D01*
X162844131Y-77520797D01*
X162771091Y-77411485D01*
X162734010Y-77355989D01*
X162158610Y-76780590D01*
X161993803Y-76670469D01*
X161799400Y-76631800D01*
X134366000Y-76631800D01*
X134171597Y-76670469D01*
X134006790Y-76780590D01*
X133896669Y-76945397D01*
X133858000Y-77139800D01*
X133858000Y-77282206D01*
X133611658Y-77446806D01*
X133380405Y-77792901D01*
X133299200Y-78201148D01*
X133299200Y-79278852D01*
X133380405Y-79687099D01*
X133611658Y-80033194D01*
X133957753Y-80264447D01*
X134366000Y-80345652D01*
X134774247Y-80264447D01*
X135120342Y-80033194D01*
X135351595Y-79687099D01*
X135432800Y-79278852D01*
X135432800Y-78201148D01*
X135351595Y-77792901D01*
X135254642Y-77647800D01*
X136017358Y-77647800D01*
X135920405Y-77792901D01*
X135839200Y-78201148D01*
X135839200Y-79278852D01*
X135920405Y-79687099D01*
X136151658Y-80033194D01*
X136497753Y-80264447D01*
X136906000Y-80345652D01*
X137314247Y-80264447D01*
X137660342Y-80033194D01*
X137891595Y-79687099D01*
X137972800Y-79278852D01*
X137972800Y-78201148D01*
X137891595Y-77792901D01*
X137794642Y-77647800D01*
X138557358Y-77647800D01*
X138460405Y-77792901D01*
X138379200Y-78201148D01*
X138379200Y-79278852D01*
X138460405Y-79687099D01*
X138691658Y-80033194D01*
X139037753Y-80264447D01*
X139446000Y-80345652D01*
X139854247Y-80264447D01*
X140200342Y-80033194D01*
X140431595Y-79687099D01*
X140512800Y-79278852D01*
X140512800Y-78201148D01*
X140431595Y-77792901D01*
X140334642Y-77647800D01*
X142621358Y-77647800D01*
X142524405Y-77792901D01*
X142443200Y-78201148D01*
X142443200Y-79278852D01*
X142524405Y-79687099D01*
X142755658Y-80033194D01*
X143101753Y-80264447D01*
X143510000Y-80345652D01*
X143918247Y-80264447D01*
X144264342Y-80033194D01*
X144495595Y-79687099D01*
X144576800Y-79278852D01*
X144576800Y-78201148D01*
X144495595Y-77792901D01*
X144398642Y-77647800D01*
X145161358Y-77647800D01*
X145064405Y-77792901D01*
X144983200Y-78201148D01*
X144983200Y-79278852D01*
X145064405Y-79687099D01*
X145295658Y-80033194D01*
X145641753Y-80264447D01*
X146050000Y-80345652D01*
X146458247Y-80264447D01*
X146804342Y-80033194D01*
X147035595Y-79687099D01*
X147116800Y-79278852D01*
X147116800Y-78201148D01*
X147035595Y-77792901D01*
X146938642Y-77647800D01*
X147701358Y-77647800D01*
X147604405Y-77792901D01*
X147523200Y-78201148D01*
X147523200Y-79278852D01*
X147604405Y-79687099D01*
X147835658Y-80033194D01*
X148181753Y-80264447D01*
X148590000Y-80345652D01*
X148998247Y-80264447D01*
X149344342Y-80033194D01*
X149575595Y-79687099D01*
X149656800Y-79278852D01*
X149656800Y-78201148D01*
X149575595Y-77792901D01*
X149478642Y-77647800D01*
X150241358Y-77647800D01*
X150144405Y-77792901D01*
X150063200Y-78201148D01*
X150063200Y-79278852D01*
X150144405Y-79687099D01*
X150375658Y-80033194D01*
X150721753Y-80264447D01*
X151130000Y-80345652D01*
X151538247Y-80264447D01*
X151884342Y-80033194D01*
X152115595Y-79687099D01*
X152196800Y-79278852D01*
X152196800Y-78201148D01*
X152115595Y-77792901D01*
X152018642Y-77647800D01*
X152781358Y-77647800D01*
X152684405Y-77792901D01*
X152603200Y-78201148D01*
X152603200Y-79278852D01*
X152684405Y-79687099D01*
X152915658Y-80033194D01*
X153261753Y-80264447D01*
X153670000Y-80345652D01*
X154078247Y-80264447D01*
X154424342Y-80033194D01*
X154655595Y-79687099D01*
X154736800Y-79278852D01*
X154736800Y-78201148D01*
X154655595Y-77792901D01*
X154558642Y-77647800D01*
X155321358Y-77647800D01*
X155224405Y-77792901D01*
X155143200Y-78201148D01*
X155143200Y-79278852D01*
X155224405Y-79687099D01*
X155455658Y-80033194D01*
X155801753Y-80264447D01*
X156210000Y-80345652D01*
X156618247Y-80264447D01*
X156964342Y-80033194D01*
X157195595Y-79687099D01*
X157276800Y-79278852D01*
X157276800Y-78201148D01*
X157195595Y-77792901D01*
X157098642Y-77647800D01*
X157861358Y-77647800D01*
X157764405Y-77792901D01*
X157683200Y-78201148D01*
X157683200Y-79278852D01*
X157764405Y-79687099D01*
X157995658Y-80033194D01*
X158201228Y-80170552D01*
X157421980Y-80949800D01*
X106514900Y-80949800D01*
X106320496Y-80988469D01*
X106155690Y-81098590D01*
X105276271Y-81978009D01*
X105276271Y-81788000D01*
X105252615Y-81669073D01*
X105185248Y-81568252D01*
X105084427Y-81500885D01*
X104965500Y-81477229D01*
X100774500Y-81477229D01*
X100655573Y-81500885D01*
X100554752Y-81568252D01*
X100487385Y-81669073D01*
X100463729Y-81788000D01*
X100463729Y-83543676D01*
X100414497Y-83553469D01*
X100249690Y-83663589D01*
X100085090Y-83828190D01*
X99974969Y-83992997D01*
X99936300Y-84187400D01*
X93764100Y-84187400D01*
X93764100Y-80930371D01*
X98552000Y-80930371D01*
X98670927Y-80906715D01*
X98771748Y-80839348D01*
X98818343Y-80769614D01*
X98843948Y-80831581D01*
X99125934Y-81114061D01*
X99494556Y-81267126D01*
X99893693Y-81267474D01*
X100262581Y-81115052D01*
X100545061Y-80833066D01*
X100698126Y-80464444D01*
X100698474Y-80065307D01*
X100546052Y-79696419D01*
X100264066Y-79413939D01*
X99895444Y-79260874D01*
X99496307Y-79260526D01*
X99127419Y-79412948D01*
X98862771Y-79677133D01*
X98862771Y-79152477D01*
X110946840Y-79152477D01*
X111263259Y-79918270D01*
X111848648Y-80504682D01*
X112613888Y-80822437D01*
X113442477Y-80823160D01*
X114208270Y-80506741D01*
X114794682Y-79921352D01*
X115112437Y-79156112D01*
X115113160Y-78327523D01*
X115060943Y-78201148D01*
X115519200Y-78201148D01*
X115519200Y-79278852D01*
X115600405Y-79687099D01*
X115831658Y-80033194D01*
X116177753Y-80264447D01*
X116586000Y-80345652D01*
X116994247Y-80264447D01*
X117340342Y-80033194D01*
X117571595Y-79687099D01*
X117652800Y-79278852D01*
X117652800Y-78201148D01*
X118059200Y-78201148D01*
X118059200Y-79278852D01*
X118140405Y-79687099D01*
X118371658Y-80033194D01*
X118717753Y-80264447D01*
X119126000Y-80345652D01*
X119534247Y-80264447D01*
X119880342Y-80033194D01*
X120111595Y-79687099D01*
X120192800Y-79278852D01*
X120192800Y-78201148D01*
X120599200Y-78201148D01*
X120599200Y-79278852D01*
X120680405Y-79687099D01*
X120911658Y-80033194D01*
X121257753Y-80264447D01*
X121666000Y-80345652D01*
X122074247Y-80264447D01*
X122420342Y-80033194D01*
X122651595Y-79687099D01*
X122732800Y-79278852D01*
X122732800Y-78201148D01*
X123139200Y-78201148D01*
X123139200Y-79278852D01*
X123220405Y-79687099D01*
X123451658Y-80033194D01*
X123797753Y-80264447D01*
X124206000Y-80345652D01*
X124614247Y-80264447D01*
X124960342Y-80033194D01*
X125191595Y-79687099D01*
X125272800Y-79278852D01*
X125272800Y-78201148D01*
X125679200Y-78201148D01*
X125679200Y-79278852D01*
X125760405Y-79687099D01*
X125991658Y-80033194D01*
X126337753Y-80264447D01*
X126746000Y-80345652D01*
X127154247Y-80264447D01*
X127500342Y-80033194D01*
X127731595Y-79687099D01*
X127812800Y-79278852D01*
X127812800Y-78201148D01*
X128219200Y-78201148D01*
X128219200Y-79278852D01*
X128300405Y-79687099D01*
X128531658Y-80033194D01*
X128877753Y-80264447D01*
X129286000Y-80345652D01*
X129694247Y-80264447D01*
X130040342Y-80033194D01*
X130271595Y-79687099D01*
X130352800Y-79278852D01*
X130352800Y-78201148D01*
X130759200Y-78201148D01*
X130759200Y-79278852D01*
X130840405Y-79687099D01*
X131071658Y-80033194D01*
X131417753Y-80264447D01*
X131826000Y-80345652D01*
X132234247Y-80264447D01*
X132580342Y-80033194D01*
X132811595Y-79687099D01*
X132892800Y-79278852D01*
X132892800Y-78201148D01*
X132811595Y-77792901D01*
X132580342Y-77446806D01*
X132234247Y-77215553D01*
X131826000Y-77134348D01*
X131417753Y-77215553D01*
X131071658Y-77446806D01*
X130840405Y-77792901D01*
X130759200Y-78201148D01*
X130352800Y-78201148D01*
X130271595Y-77792901D01*
X130040342Y-77446806D01*
X129694247Y-77215553D01*
X129286000Y-77134348D01*
X128877753Y-77215553D01*
X128531658Y-77446806D01*
X128300405Y-77792901D01*
X128219200Y-78201148D01*
X127812800Y-78201148D01*
X127731595Y-77792901D01*
X127500342Y-77446806D01*
X127154247Y-77215553D01*
X126746000Y-77134348D01*
X126337753Y-77215553D01*
X125991658Y-77446806D01*
X125760405Y-77792901D01*
X125679200Y-78201148D01*
X125272800Y-78201148D01*
X125191595Y-77792901D01*
X124960342Y-77446806D01*
X124614247Y-77215553D01*
X124206000Y-77134348D01*
X123797753Y-77215553D01*
X123451658Y-77446806D01*
X123220405Y-77792901D01*
X123139200Y-78201148D01*
X122732800Y-78201148D01*
X122651595Y-77792901D01*
X122420342Y-77446806D01*
X122074247Y-77215553D01*
X121666000Y-77134348D01*
X121257753Y-77215553D01*
X120911658Y-77446806D01*
X120680405Y-77792901D01*
X120599200Y-78201148D01*
X120192800Y-78201148D01*
X120111595Y-77792901D01*
X119880342Y-77446806D01*
X119534247Y-77215553D01*
X119126000Y-77134348D01*
X118717753Y-77215553D01*
X118371658Y-77446806D01*
X118140405Y-77792901D01*
X118059200Y-78201148D01*
X117652800Y-78201148D01*
X117571595Y-77792901D01*
X117340342Y-77446806D01*
X116994247Y-77215553D01*
X116586000Y-77134348D01*
X116177753Y-77215553D01*
X115831658Y-77446806D01*
X115600405Y-77792901D01*
X115519200Y-78201148D01*
X115060943Y-78201148D01*
X114796741Y-77561730D01*
X114211352Y-76975318D01*
X113446112Y-76657563D01*
X112617523Y-76656840D01*
X111851730Y-76973259D01*
X111265318Y-77558648D01*
X110947563Y-78323888D01*
X110946840Y-79152477D01*
X98862771Y-79152477D01*
X98862771Y-77825600D01*
X98839115Y-77706673D01*
X98771748Y-77605852D01*
X98670927Y-77538485D01*
X98552000Y-77514829D01*
X93764100Y-77514829D01*
X93764100Y-75730100D01*
X211035900Y-75730100D01*
X211035900Y-77387829D01*
M02*
