G04 #@! TF.FileFunction,Legend,Bot*
%FSLAX46Y46*%
G04 Gerber Fmt 4.6, Leading zero omitted, Abs format (unit mm)*
G04 Created by KiCad (PCBNEW 0.201603210401+6634~43~ubuntu14.04.1-product) date Mon 11 Apr 2016 10:26:04 AM EDT*
%MOMM*%
G01*
G04 APERTURE LIST*
%ADD10C,0.100000*%
%ADD11C,0.228600*%
%ADD12C,0.127000*%
%ADD13C,0.381000*%
%ADD14C,0.254000*%
%ADD15O,1.524000X2.540000*%
%ADD16C,1.930400*%
%ADD17O,4.572000X3.556000*%
%ADD18O,4.064000X5.080000*%
%ADD19O,5.080000X3.556000*%
%ADD20R,1.270000X2.540000*%
%ADD21O,5.080000X3.048000*%
%ADD22O,2.032000X1.524000*%
%ADD23O,1.524000X2.032000*%
%ADD24C,3.759200*%
%ADD25O,2.540000X1.524000*%
%ADD26O,1.651000X2.159000*%
%ADD27C,1.600200*%
%ADD28R,1.778000X4.191000*%
%ADD29R,2.997200X5.029200*%
%ADD30R,2.540000X1.270000*%
%ADD31R,2.550000X2.770000*%
%ADD32R,1.397000X2.489200*%
%ADD33R,1.800000X0.860000*%
%ADD34R,1.750000X2.650000*%
%ADD35R,2.540000X2.540000*%
%ADD36O,2.540000X2.540000*%
G04 APERTURE END LIST*
D10*
D11*
X211455000Y-75311000D02*
X93345000Y-75311000D01*
X211455000Y-130429000D02*
X211455000Y-75311000D01*
X93345000Y-130429000D02*
X211455000Y-130429000D01*
X93345000Y-75311000D02*
X93345000Y-130429000D01*
D12*
X199898000Y-109982000D02*
X198374000Y-109982000D01*
X198374000Y-109982000D02*
X198374000Y-107188000D01*
X198374000Y-107188000D02*
X199898000Y-107188000D01*
X201422000Y-107188000D02*
X202946000Y-107188000D01*
X202946000Y-107188000D02*
X202946000Y-109982000D01*
X202946000Y-109982000D02*
X201422000Y-109982000D01*
X105537000Y-107188000D02*
X107061000Y-107188000D01*
X107061000Y-107188000D02*
X107061000Y-109982000D01*
X107061000Y-109982000D02*
X105537000Y-109982000D01*
X104013000Y-109982000D02*
X102489000Y-109982000D01*
X102489000Y-109982000D02*
X102489000Y-107188000D01*
X102489000Y-107188000D02*
X104013000Y-107188000D01*
D13*
X210185000Y-71120000D02*
X197485000Y-71120000D01*
X197485000Y-71120000D02*
X197485000Y-85090000D01*
X210185000Y-71120000D02*
X210185000Y-85090000D01*
X210185000Y-85090000D02*
X197485000Y-85090000D01*
X197485000Y-134620000D02*
X210185000Y-134620000D01*
X210185000Y-134620000D02*
X210185000Y-120650000D01*
X197485000Y-134620000D02*
X197485000Y-120650000D01*
X197485000Y-120650000D02*
X210185000Y-120650000D01*
D12*
X101473000Y-118872000D02*
X99949000Y-118872000D01*
X99949000Y-118872000D02*
X99949000Y-116078000D01*
X99949000Y-116078000D02*
X101473000Y-116078000D01*
X102997000Y-116078000D02*
X104521000Y-116078000D01*
X104521000Y-116078000D02*
X104521000Y-118872000D01*
X104521000Y-118872000D02*
X102997000Y-118872000D01*
X128397000Y-121158000D02*
X129921000Y-121158000D01*
X129921000Y-121158000D02*
X129921000Y-123952000D01*
X129921000Y-123952000D02*
X128397000Y-123952000D01*
X126873000Y-123952000D02*
X125349000Y-123952000D01*
X125349000Y-123952000D02*
X125349000Y-121158000D01*
X125349000Y-121158000D02*
X126873000Y-121158000D01*
X120777000Y-108077000D02*
X120777000Y-109601000D01*
X120777000Y-109601000D02*
X117983000Y-109601000D01*
X117983000Y-109601000D02*
X117983000Y-108077000D01*
X117983000Y-106553000D02*
X117983000Y-105029000D01*
X117983000Y-105029000D02*
X120777000Y-105029000D01*
X120777000Y-105029000D02*
X120777000Y-106553000D01*
X144907000Y-106172000D02*
X144907000Y-107696000D01*
X144907000Y-107696000D02*
X142113000Y-107696000D01*
X142113000Y-107696000D02*
X142113000Y-106172000D01*
X142113000Y-104648000D02*
X142113000Y-103124000D01*
X142113000Y-103124000D02*
X144907000Y-103124000D01*
X144907000Y-103124000D02*
X144907000Y-104648000D01*
D11*
X114554000Y-108839000D02*
X110236000Y-108839000D01*
X110236000Y-110998000D02*
X110236000Y-103632000D01*
X114554000Y-110998000D02*
X114554000Y-103632000D01*
D13*
X111887000Y-112649000D02*
X112903000Y-112649000D01*
X112395000Y-112141000D02*
X112395000Y-113157000D01*
D11*
X114554000Y-110998000D02*
X110236000Y-110998000D01*
X110236000Y-103632000D02*
X114554000Y-103632000D01*
D12*
X159258000Y-113538000D02*
X160782000Y-113538000D01*
X160782000Y-113538000D02*
X160782000Y-116332000D01*
X160782000Y-116332000D02*
X159258000Y-116332000D01*
X155702000Y-116332000D02*
X154178000Y-116332000D01*
X154178000Y-116332000D02*
X154178000Y-113538000D01*
X154178000Y-113538000D02*
X155702000Y-113538000D01*
X179832000Y-116332000D02*
X178308000Y-116332000D01*
X178308000Y-116332000D02*
X178308000Y-113538000D01*
X178308000Y-113538000D02*
X179832000Y-113538000D01*
X183388000Y-113538000D02*
X184912000Y-113538000D01*
X184912000Y-113538000D02*
X184912000Y-116332000D01*
X184912000Y-116332000D02*
X183388000Y-116332000D01*
D13*
X128195000Y-116990000D02*
G75*
G03X128195000Y-116990000I-750000J0D01*
G01*
X125945000Y-117490000D02*
X125945000Y-102490000D01*
X125945000Y-102490000D02*
X136945000Y-102490000D01*
X136945000Y-102490000D02*
X136945000Y-118490000D01*
X136945000Y-118490000D02*
X126945000Y-118490000D01*
X126945000Y-118490000D02*
X125945000Y-117490000D01*
D11*
X142010000Y-96560000D02*
X142010000Y-101560000D01*
X142010000Y-101560000D02*
X145010000Y-101560000D01*
X145010000Y-101560000D02*
X145010000Y-96560000D01*
X145010000Y-96560000D02*
X142010000Y-96560000D01*
X142010000Y-98425000D02*
X145010000Y-98425000D01*
X142010000Y-85130000D02*
X142010000Y-90130000D01*
X142010000Y-90130000D02*
X145010000Y-90130000D01*
X145010000Y-90130000D02*
X145010000Y-85130000D01*
X145010000Y-85130000D02*
X142010000Y-85130000D01*
X142010000Y-86995000D02*
X145010000Y-86995000D01*
X136930000Y-96560000D02*
X136930000Y-101560000D01*
X136930000Y-101560000D02*
X139930000Y-101560000D01*
X139930000Y-101560000D02*
X139930000Y-96560000D01*
X139930000Y-96560000D02*
X136930000Y-96560000D01*
X136930000Y-98425000D02*
X139930000Y-98425000D01*
X136930000Y-85130000D02*
X136930000Y-90130000D01*
X136930000Y-90130000D02*
X139930000Y-90130000D01*
X139930000Y-90130000D02*
X139930000Y-85130000D01*
X139930000Y-85130000D02*
X136930000Y-85130000D01*
X136930000Y-86995000D02*
X139930000Y-86995000D01*
X122960000Y-96560000D02*
X122960000Y-101560000D01*
X122960000Y-101560000D02*
X125960000Y-101560000D01*
X125960000Y-101560000D02*
X125960000Y-96560000D01*
X125960000Y-96560000D02*
X122960000Y-96560000D01*
X122960000Y-98425000D02*
X125960000Y-98425000D01*
X122960000Y-85130000D02*
X122960000Y-90130000D01*
X122960000Y-90130000D02*
X125960000Y-90130000D01*
X125960000Y-90130000D02*
X125960000Y-85130000D01*
X125960000Y-85130000D02*
X122960000Y-85130000D01*
X122960000Y-86995000D02*
X125960000Y-86995000D01*
X117880000Y-96560000D02*
X117880000Y-101560000D01*
X117880000Y-101560000D02*
X120880000Y-101560000D01*
X120880000Y-101560000D02*
X120880000Y-96560000D01*
X120880000Y-96560000D02*
X117880000Y-96560000D01*
X117880000Y-98425000D02*
X120880000Y-98425000D01*
X117880000Y-85130000D02*
X117880000Y-90130000D01*
X117880000Y-90130000D02*
X120880000Y-90130000D01*
X120880000Y-90130000D02*
X120880000Y-85130000D01*
X120880000Y-85130000D02*
X117880000Y-85130000D01*
X117880000Y-86995000D02*
X120880000Y-86995000D01*
D12*
X158877000Y-108712000D02*
X158877000Y-110236000D01*
X158877000Y-110236000D02*
X156083000Y-110236000D01*
X156083000Y-110236000D02*
X156083000Y-108712000D01*
X156083000Y-107188000D02*
X156083000Y-105664000D01*
X156083000Y-105664000D02*
X158877000Y-105664000D01*
X158877000Y-105664000D02*
X158877000Y-107188000D01*
X183007000Y-106172000D02*
X183007000Y-107696000D01*
X183007000Y-107696000D02*
X180213000Y-107696000D01*
X180213000Y-107696000D02*
X180213000Y-106172000D01*
X180213000Y-104648000D02*
X180213000Y-103124000D01*
X180213000Y-103124000D02*
X183007000Y-103124000D01*
X183007000Y-103124000D02*
X183007000Y-104648000D01*
D11*
X152654000Y-109474000D02*
X148336000Y-109474000D01*
X148336000Y-111633000D02*
X148336000Y-104267000D01*
X152654000Y-111633000D02*
X152654000Y-104267000D01*
D13*
X149987000Y-113284000D02*
X151003000Y-113284000D01*
X150495000Y-112776000D02*
X150495000Y-113792000D01*
D11*
X152654000Y-111633000D02*
X148336000Y-111633000D01*
X148336000Y-104267000D02*
X152654000Y-104267000D01*
X155980000Y-85130000D02*
X155980000Y-90130000D01*
X155980000Y-90130000D02*
X158980000Y-90130000D01*
X158980000Y-90130000D02*
X158980000Y-85130000D01*
X158980000Y-85130000D02*
X155980000Y-85130000D01*
X155980000Y-86995000D02*
X158980000Y-86995000D01*
X155980000Y-96560000D02*
X155980000Y-101560000D01*
X155980000Y-101560000D02*
X158980000Y-101560000D01*
X158980000Y-101560000D02*
X158980000Y-96560000D01*
X158980000Y-96560000D02*
X155980000Y-96560000D01*
X155980000Y-98425000D02*
X158980000Y-98425000D01*
X161060000Y-85130000D02*
X161060000Y-90130000D01*
X161060000Y-90130000D02*
X164060000Y-90130000D01*
X164060000Y-90130000D02*
X164060000Y-85130000D01*
X164060000Y-85130000D02*
X161060000Y-85130000D01*
X161060000Y-86995000D02*
X164060000Y-86995000D01*
X161060000Y-96560000D02*
X161060000Y-101560000D01*
X161060000Y-101560000D02*
X164060000Y-101560000D01*
X164060000Y-101560000D02*
X164060000Y-96560000D01*
X164060000Y-96560000D02*
X161060000Y-96560000D01*
X161060000Y-98425000D02*
X164060000Y-98425000D01*
X175030000Y-85130000D02*
X175030000Y-90130000D01*
X175030000Y-90130000D02*
X178030000Y-90130000D01*
X178030000Y-90130000D02*
X178030000Y-85130000D01*
X178030000Y-85130000D02*
X175030000Y-85130000D01*
X175030000Y-86995000D02*
X178030000Y-86995000D01*
X175030000Y-96560000D02*
X175030000Y-101560000D01*
X175030000Y-101560000D02*
X178030000Y-101560000D01*
X178030000Y-101560000D02*
X178030000Y-96560000D01*
X178030000Y-96560000D02*
X175030000Y-96560000D01*
X175030000Y-98425000D02*
X178030000Y-98425000D01*
X180110000Y-85130000D02*
X180110000Y-90130000D01*
X180110000Y-90130000D02*
X183110000Y-90130000D01*
X183110000Y-90130000D02*
X183110000Y-85130000D01*
X183110000Y-85130000D02*
X180110000Y-85130000D01*
X180110000Y-86995000D02*
X183110000Y-86995000D01*
X180110000Y-96560000D02*
X180110000Y-101560000D01*
X180110000Y-101560000D02*
X183110000Y-101560000D01*
X183110000Y-101560000D02*
X183110000Y-96560000D01*
X183110000Y-96560000D02*
X180110000Y-96560000D01*
X180110000Y-98425000D02*
X183110000Y-98425000D01*
D12*
X121158000Y-113538000D02*
X122682000Y-113538000D01*
X122682000Y-113538000D02*
X122682000Y-116332000D01*
X122682000Y-116332000D02*
X121158000Y-116332000D01*
X117602000Y-116332000D02*
X116078000Y-116332000D01*
X116078000Y-116332000D02*
X116078000Y-113538000D01*
X116078000Y-113538000D02*
X117602000Y-113538000D01*
X141732000Y-116332000D02*
X140208000Y-116332000D01*
X140208000Y-116332000D02*
X140208000Y-113538000D01*
X140208000Y-113538000D02*
X141732000Y-113538000D01*
X145288000Y-113538000D02*
X146812000Y-113538000D01*
X146812000Y-113538000D02*
X146812000Y-116332000D01*
X146812000Y-116332000D02*
X145288000Y-116332000D01*
X153797000Y-121158000D02*
X155321000Y-121158000D01*
X155321000Y-121158000D02*
X155321000Y-123952000D01*
X155321000Y-123952000D02*
X153797000Y-123952000D01*
X152273000Y-123952000D02*
X150749000Y-123952000D01*
X150749000Y-123952000D02*
X150749000Y-121158000D01*
X150749000Y-121158000D02*
X152273000Y-121158000D01*
X179197000Y-121158000D02*
X180721000Y-121158000D01*
X180721000Y-121158000D02*
X180721000Y-123952000D01*
X180721000Y-123952000D02*
X179197000Y-123952000D01*
X177673000Y-123952000D02*
X176149000Y-123952000D01*
X176149000Y-123952000D02*
X176149000Y-121158000D01*
X176149000Y-121158000D02*
X177673000Y-121158000D01*
D13*
X166295000Y-116990000D02*
G75*
G03X166295000Y-116990000I-750000J0D01*
G01*
X164045000Y-117490000D02*
X164045000Y-102490000D01*
X164045000Y-102490000D02*
X175045000Y-102490000D01*
X175045000Y-102490000D02*
X175045000Y-118490000D01*
X175045000Y-118490000D02*
X165045000Y-118490000D01*
X165045000Y-118490000D02*
X164045000Y-117490000D01*
D14*
X200829333Y-111233857D02*
X200877714Y-111282238D01*
X201022857Y-111330619D01*
X201119619Y-111330619D01*
X201264761Y-111282238D01*
X201361523Y-111185476D01*
X201409904Y-111088714D01*
X201458285Y-110895190D01*
X201458285Y-110750048D01*
X201409904Y-110556524D01*
X201361523Y-110459762D01*
X201264761Y-110363000D01*
X201119619Y-110314619D01*
X201022857Y-110314619D01*
X200877714Y-110363000D01*
X200829333Y-110411381D01*
X199861714Y-111330619D02*
X200442285Y-111330619D01*
X200151999Y-111330619D02*
X200151999Y-110314619D01*
X200248761Y-110459762D01*
X200345523Y-110556524D01*
X200442285Y-110604905D01*
X201748571Y-106758619D02*
X202329142Y-106758619D01*
X202038856Y-106758619D02*
X202038856Y-105742619D01*
X202135618Y-105887762D01*
X202232380Y-105984524D01*
X202329142Y-106032905D01*
X201119618Y-105742619D02*
X201022857Y-105742619D01*
X200926095Y-105791000D01*
X200877714Y-105839381D01*
X200829333Y-105936143D01*
X200780952Y-106129667D01*
X200780952Y-106371571D01*
X200829333Y-106565095D01*
X200877714Y-106661857D01*
X200926095Y-106710238D01*
X201022857Y-106758619D01*
X201119618Y-106758619D01*
X201216380Y-106710238D01*
X201264761Y-106661857D01*
X201313142Y-106565095D01*
X201361523Y-106371571D01*
X201361523Y-106129667D01*
X201313142Y-105936143D01*
X201264761Y-105839381D01*
X201216380Y-105791000D01*
X201119618Y-105742619D01*
X199910095Y-106081286D02*
X199910095Y-106758619D01*
X200345523Y-106081286D02*
X200345523Y-106613476D01*
X200297142Y-106710238D01*
X200200380Y-106758619D01*
X200055238Y-106758619D01*
X199958476Y-106710238D01*
X199910095Y-106661857D01*
X199087619Y-106226429D02*
X199426285Y-106226429D01*
X199426285Y-106758619D02*
X199426285Y-105742619D01*
X198942476Y-105742619D01*
X104944333Y-106661857D02*
X104992714Y-106710238D01*
X105137857Y-106758619D01*
X105234619Y-106758619D01*
X105379761Y-106710238D01*
X105476523Y-106613476D01*
X105524904Y-106516714D01*
X105573285Y-106323190D01*
X105573285Y-106178048D01*
X105524904Y-105984524D01*
X105476523Y-105887762D01*
X105379761Y-105791000D01*
X105234619Y-105742619D01*
X105137857Y-105742619D01*
X104992714Y-105791000D01*
X104944333Y-105839381D01*
X104557285Y-105839381D02*
X104508904Y-105791000D01*
X104412142Y-105742619D01*
X104170238Y-105742619D01*
X104073476Y-105791000D01*
X104025095Y-105839381D01*
X103976714Y-105936143D01*
X103976714Y-106032905D01*
X104025095Y-106178048D01*
X104605666Y-106758619D01*
X103976714Y-106758619D01*
X105863571Y-111330619D02*
X106444142Y-111330619D01*
X106153856Y-111330619D02*
X106153856Y-110314619D01*
X106250618Y-110459762D01*
X106347380Y-110556524D01*
X106444142Y-110604905D01*
X105234618Y-110314619D02*
X105137857Y-110314619D01*
X105041095Y-110363000D01*
X104992714Y-110411381D01*
X104944333Y-110508143D01*
X104895952Y-110701667D01*
X104895952Y-110943571D01*
X104944333Y-111137095D01*
X104992714Y-111233857D01*
X105041095Y-111282238D01*
X105137857Y-111330619D01*
X105234618Y-111330619D01*
X105331380Y-111282238D01*
X105379761Y-111233857D01*
X105428142Y-111137095D01*
X105476523Y-110943571D01*
X105476523Y-110701667D01*
X105428142Y-110508143D01*
X105379761Y-110411381D01*
X105331380Y-110363000D01*
X105234618Y-110314619D01*
X104025095Y-110653286D02*
X104025095Y-111330619D01*
X104460523Y-110653286D02*
X104460523Y-111185476D01*
X104412142Y-111282238D01*
X104315380Y-111330619D01*
X104170238Y-111330619D01*
X104073476Y-111282238D01*
X104025095Y-111233857D01*
X103202619Y-110798429D02*
X103541285Y-110798429D01*
X103541285Y-111330619D02*
X103541285Y-110314619D01*
X103057476Y-110314619D01*
X210299904Y-86819619D02*
X210299904Y-85803619D01*
X209912857Y-85803619D01*
X209816095Y-85852000D01*
X209767714Y-85900381D01*
X209719333Y-85997143D01*
X209719333Y-86142286D01*
X209767714Y-86239048D01*
X209816095Y-86287429D01*
X209912857Y-86335810D01*
X210299904Y-86335810D01*
X209380666Y-85803619D02*
X208751714Y-85803619D01*
X209090380Y-86190667D01*
X208945238Y-86190667D01*
X208848476Y-86239048D01*
X208800095Y-86287429D01*
X208751714Y-86384190D01*
X208751714Y-86626095D01*
X208800095Y-86722857D01*
X208848476Y-86771238D01*
X208945238Y-86819619D01*
X209235523Y-86819619D01*
X209332285Y-86771238D01*
X209380666Y-86722857D01*
X198869904Y-119839619D02*
X198869904Y-118823619D01*
X198482857Y-118823619D01*
X198386095Y-118872000D01*
X198337714Y-118920381D01*
X198289333Y-119017143D01*
X198289333Y-119162286D01*
X198337714Y-119259048D01*
X198386095Y-119307429D01*
X198482857Y-119355810D01*
X198869904Y-119355810D01*
X197370095Y-118823619D02*
X197853904Y-118823619D01*
X197902285Y-119307429D01*
X197853904Y-119259048D01*
X197757142Y-119210667D01*
X197515238Y-119210667D01*
X197418476Y-119259048D01*
X197370095Y-119307429D01*
X197321714Y-119404190D01*
X197321714Y-119646095D01*
X197370095Y-119742857D01*
X197418476Y-119791238D01*
X197515238Y-119839619D01*
X197757142Y-119839619D01*
X197853904Y-119791238D01*
X197902285Y-119742857D01*
X102404333Y-120123857D02*
X102452714Y-120172238D01*
X102597857Y-120220619D01*
X102694619Y-120220619D01*
X102839761Y-120172238D01*
X102936523Y-120075476D01*
X102984904Y-119978714D01*
X103033285Y-119785190D01*
X103033285Y-119640048D01*
X102984904Y-119446524D01*
X102936523Y-119349762D01*
X102839761Y-119253000D01*
X102694619Y-119204619D01*
X102597857Y-119204619D01*
X102452714Y-119253000D01*
X102404333Y-119301381D01*
X102065666Y-119204619D02*
X101436714Y-119204619D01*
X101775380Y-119591667D01*
X101630238Y-119591667D01*
X101533476Y-119640048D01*
X101485095Y-119688429D01*
X101436714Y-119785190D01*
X101436714Y-120027095D01*
X101485095Y-120123857D01*
X101533476Y-120172238D01*
X101630238Y-120220619D01*
X101920523Y-120220619D01*
X102017285Y-120172238D01*
X102065666Y-120123857D01*
X103323571Y-115648619D02*
X103904142Y-115648619D01*
X103613856Y-115648619D02*
X103613856Y-114632619D01*
X103710618Y-114777762D01*
X103807380Y-114874524D01*
X103904142Y-114922905D01*
X102694618Y-114632619D02*
X102597857Y-114632619D01*
X102501095Y-114681000D01*
X102452714Y-114729381D01*
X102404333Y-114826143D01*
X102355952Y-115019667D01*
X102355952Y-115261571D01*
X102404333Y-115455095D01*
X102452714Y-115551857D01*
X102501095Y-115600238D01*
X102597857Y-115648619D01*
X102694618Y-115648619D01*
X102791380Y-115600238D01*
X102839761Y-115551857D01*
X102888142Y-115455095D01*
X102936523Y-115261571D01*
X102936523Y-115019667D01*
X102888142Y-114826143D01*
X102839761Y-114729381D01*
X102791380Y-114681000D01*
X102694618Y-114632619D01*
X101485095Y-114971286D02*
X101485095Y-115648619D01*
X101920523Y-114971286D02*
X101920523Y-115503476D01*
X101872142Y-115600238D01*
X101775380Y-115648619D01*
X101630238Y-115648619D01*
X101533476Y-115600238D01*
X101485095Y-115551857D01*
X100662619Y-115116429D02*
X101001285Y-115116429D01*
X101001285Y-115648619D02*
X101001285Y-114632619D01*
X100517476Y-114632619D01*
X127804333Y-120728619D02*
X128142999Y-120244810D01*
X128384904Y-120728619D02*
X128384904Y-119712619D01*
X127997857Y-119712619D01*
X127901095Y-119761000D01*
X127852714Y-119809381D01*
X127804333Y-119906143D01*
X127804333Y-120051286D01*
X127852714Y-120148048D01*
X127901095Y-120196429D01*
X127997857Y-120244810D01*
X128384904Y-120244810D01*
X127465666Y-119712619D02*
X126788333Y-119712619D01*
X127223761Y-120728619D01*
X128312333Y-125300619D02*
X128892904Y-125300619D01*
X128602618Y-125300619D02*
X128602618Y-124284619D01*
X128699380Y-124429762D01*
X128796142Y-124526524D01*
X128892904Y-124574905D01*
X127731761Y-124720048D02*
X127828523Y-124671667D01*
X127876904Y-124623286D01*
X127925285Y-124526524D01*
X127925285Y-124478143D01*
X127876904Y-124381381D01*
X127828523Y-124333000D01*
X127731761Y-124284619D01*
X127538238Y-124284619D01*
X127441476Y-124333000D01*
X127393095Y-124381381D01*
X127344714Y-124478143D01*
X127344714Y-124526524D01*
X127393095Y-124623286D01*
X127441476Y-124671667D01*
X127538238Y-124720048D01*
X127731761Y-124720048D01*
X127828523Y-124768429D01*
X127876904Y-124816810D01*
X127925285Y-124913571D01*
X127925285Y-125107095D01*
X127876904Y-125203857D01*
X127828523Y-125252238D01*
X127731761Y-125300619D01*
X127538238Y-125300619D01*
X127441476Y-125252238D01*
X127393095Y-125203857D01*
X127344714Y-125107095D01*
X127344714Y-124913571D01*
X127393095Y-124816810D01*
X127441476Y-124768429D01*
X127538238Y-124720048D01*
X126715761Y-124284619D02*
X126619000Y-124284619D01*
X126522238Y-124333000D01*
X126473857Y-124381381D01*
X126425476Y-124478143D01*
X126377095Y-124671667D01*
X126377095Y-124913571D01*
X126425476Y-125107095D01*
X126473857Y-125203857D01*
X126522238Y-125252238D01*
X126619000Y-125300619D01*
X126715761Y-125300619D01*
X126812523Y-125252238D01*
X126860904Y-125203857D01*
X126909285Y-125107095D01*
X126957666Y-124913571D01*
X126957666Y-124671667D01*
X126909285Y-124478143D01*
X126860904Y-124381381D01*
X126812523Y-124333000D01*
X126715761Y-124284619D01*
X122028857Y-107145667D02*
X122077238Y-107097286D01*
X122125619Y-106952143D01*
X122125619Y-106855381D01*
X122077238Y-106710239D01*
X121980476Y-106613477D01*
X121883714Y-106565096D01*
X121690190Y-106516715D01*
X121545048Y-106516715D01*
X121351524Y-106565096D01*
X121254762Y-106613477D01*
X121158000Y-106710239D01*
X121109619Y-106855381D01*
X121109619Y-106952143D01*
X121158000Y-107097286D01*
X121206381Y-107145667D01*
X121448286Y-108016524D02*
X122125619Y-108016524D01*
X121061238Y-107774620D02*
X121786952Y-107532715D01*
X121786952Y-108161667D01*
X116537619Y-105645858D02*
X116537619Y-105742619D01*
X116586000Y-105839381D01*
X116634381Y-105887762D01*
X116731143Y-105936143D01*
X116924667Y-105984524D01*
X117166571Y-105984524D01*
X117360095Y-105936143D01*
X117456857Y-105887762D01*
X117505238Y-105839381D01*
X117553619Y-105742619D01*
X117553619Y-105645858D01*
X117505238Y-105549096D01*
X117456857Y-105500715D01*
X117360095Y-105452334D01*
X117166571Y-105403953D01*
X116924667Y-105403953D01*
X116731143Y-105452334D01*
X116634381Y-105500715D01*
X116586000Y-105549096D01*
X116537619Y-105645858D01*
X117456857Y-106419953D02*
X117505238Y-106468334D01*
X117553619Y-106419953D01*
X117505238Y-106371572D01*
X117456857Y-106419953D01*
X117553619Y-106419953D01*
X117553619Y-107435953D02*
X117553619Y-106855382D01*
X117553619Y-107145668D02*
X116537619Y-107145668D01*
X116682762Y-107048906D01*
X116779524Y-106952144D01*
X116827905Y-106855382D01*
X116876286Y-108306810D02*
X117553619Y-108306810D01*
X116876286Y-107871382D02*
X117408476Y-107871382D01*
X117505238Y-107919763D01*
X117553619Y-108016525D01*
X117553619Y-108161667D01*
X117505238Y-108258429D01*
X117456857Y-108306810D01*
X117021429Y-109129286D02*
X117021429Y-108790620D01*
X117553619Y-108790620D02*
X116537619Y-108790620D01*
X116537619Y-109274429D01*
X146158857Y-105240667D02*
X146207238Y-105192286D01*
X146255619Y-105047143D01*
X146255619Y-104950381D01*
X146207238Y-104805239D01*
X146110476Y-104708477D01*
X146013714Y-104660096D01*
X145820190Y-104611715D01*
X145675048Y-104611715D01*
X145481524Y-104660096D01*
X145384762Y-104708477D01*
X145288000Y-104805239D01*
X145239619Y-104950381D01*
X145239619Y-105047143D01*
X145288000Y-105192286D01*
X145336381Y-105240667D01*
X145239619Y-106159905D02*
X145239619Y-105676096D01*
X145723429Y-105627715D01*
X145675048Y-105676096D01*
X145626667Y-105772858D01*
X145626667Y-106014762D01*
X145675048Y-106111524D01*
X145723429Y-106159905D01*
X145820190Y-106208286D01*
X146062095Y-106208286D01*
X146158857Y-106159905D01*
X146207238Y-106111524D01*
X146255619Y-106014762D01*
X146255619Y-105772858D01*
X146207238Y-105676096D01*
X146158857Y-105627715D01*
X140667619Y-103740858D02*
X140667619Y-103837619D01*
X140716000Y-103934381D01*
X140764381Y-103982762D01*
X140861143Y-104031143D01*
X141054667Y-104079524D01*
X141296571Y-104079524D01*
X141490095Y-104031143D01*
X141586857Y-103982762D01*
X141635238Y-103934381D01*
X141683619Y-103837619D01*
X141683619Y-103740858D01*
X141635238Y-103644096D01*
X141586857Y-103595715D01*
X141490095Y-103547334D01*
X141296571Y-103498953D01*
X141054667Y-103498953D01*
X140861143Y-103547334D01*
X140764381Y-103595715D01*
X140716000Y-103644096D01*
X140667619Y-103740858D01*
X141586857Y-104514953D02*
X141635238Y-104563334D01*
X141683619Y-104514953D01*
X141635238Y-104466572D01*
X141586857Y-104514953D01*
X141683619Y-104514953D01*
X141683619Y-105530953D02*
X141683619Y-104950382D01*
X141683619Y-105240668D02*
X140667619Y-105240668D01*
X140812762Y-105143906D01*
X140909524Y-105047144D01*
X140957905Y-104950382D01*
X141006286Y-106401810D02*
X141683619Y-106401810D01*
X141006286Y-105966382D02*
X141538476Y-105966382D01*
X141635238Y-106014763D01*
X141683619Y-106111525D01*
X141683619Y-106256667D01*
X141635238Y-106353429D01*
X141586857Y-106401810D01*
X141151429Y-107224286D02*
X141151429Y-106885620D01*
X141683619Y-106885620D02*
X140667619Y-106885620D01*
X140667619Y-107369429D01*
X115678857Y-107145667D02*
X115727238Y-107097286D01*
X115775619Y-106952143D01*
X115775619Y-106855381D01*
X115727238Y-106710239D01*
X115630476Y-106613477D01*
X115533714Y-106565096D01*
X115340190Y-106516715D01*
X115195048Y-106516715D01*
X115001524Y-106565096D01*
X114904762Y-106613477D01*
X114808000Y-106710239D01*
X114759619Y-106855381D01*
X114759619Y-106952143D01*
X114808000Y-107097286D01*
X114856381Y-107145667D01*
X114759619Y-108016524D02*
X114759619Y-107823001D01*
X114808000Y-107726239D01*
X114856381Y-107677858D01*
X115001524Y-107581096D01*
X115195048Y-107532715D01*
X115582095Y-107532715D01*
X115678857Y-107581096D01*
X115727238Y-107629477D01*
X115775619Y-107726239D01*
X115775619Y-107919762D01*
X115727238Y-108016524D01*
X115678857Y-108064905D01*
X115582095Y-108113286D01*
X115340190Y-108113286D01*
X115243429Y-108064905D01*
X115195048Y-108016524D01*
X115146667Y-107919762D01*
X115146667Y-107726239D01*
X115195048Y-107629477D01*
X115243429Y-107581096D01*
X115340190Y-107532715D01*
X109129286Y-106129667D02*
X109806619Y-106129667D01*
X108742238Y-105887763D02*
X109467952Y-105645858D01*
X109467952Y-106274810D01*
X108790619Y-106565096D02*
X108790619Y-107242429D01*
X109806619Y-106807001D01*
X109129286Y-108064905D02*
X109806619Y-108064905D01*
X109129286Y-107629477D02*
X109661476Y-107629477D01*
X109758238Y-107677858D01*
X109806619Y-107774620D01*
X109806619Y-107919762D01*
X109758238Y-108016524D01*
X109709857Y-108064905D01*
X109274429Y-108887381D02*
X109274429Y-108548715D01*
X109806619Y-108548715D02*
X108790619Y-108548715D01*
X108790619Y-109032524D01*
X157649333Y-113108619D02*
X157987999Y-112624810D01*
X158229904Y-113108619D02*
X158229904Y-112092619D01*
X157842857Y-112092619D01*
X157746095Y-112141000D01*
X157697714Y-112189381D01*
X157649333Y-112286143D01*
X157649333Y-112431286D01*
X157697714Y-112528048D01*
X157746095Y-112576429D01*
X157842857Y-112624810D01*
X158229904Y-112624810D01*
X157310666Y-112092619D02*
X156681714Y-112092619D01*
X157020380Y-112479667D01*
X156875238Y-112479667D01*
X156778476Y-112528048D01*
X156730095Y-112576429D01*
X156681714Y-112673190D01*
X156681714Y-112915095D01*
X156730095Y-113011857D01*
X156778476Y-113060238D01*
X156875238Y-113108619D01*
X157165523Y-113108619D01*
X157262285Y-113060238D01*
X157310666Y-113011857D01*
X158254095Y-116664619D02*
X158157334Y-116664619D01*
X158060572Y-116713000D01*
X158012191Y-116761381D01*
X157963810Y-116858143D01*
X157915429Y-117051667D01*
X157915429Y-117293571D01*
X157963810Y-117487095D01*
X158012191Y-117583857D01*
X158060572Y-117632238D01*
X158157334Y-117680619D01*
X158254095Y-117680619D01*
X158350857Y-117632238D01*
X158399238Y-117583857D01*
X158447619Y-117487095D01*
X158496000Y-117293571D01*
X158496000Y-117051667D01*
X158447619Y-116858143D01*
X158399238Y-116761381D01*
X158350857Y-116713000D01*
X158254095Y-116664619D01*
X157480000Y-117583857D02*
X157431619Y-117632238D01*
X157480000Y-117680619D01*
X157528381Y-117632238D01*
X157480000Y-117583857D01*
X157480000Y-117680619D01*
X156512381Y-116664619D02*
X156996190Y-116664619D01*
X157044571Y-117148429D01*
X156996190Y-117100048D01*
X156899428Y-117051667D01*
X156657524Y-117051667D01*
X156560762Y-117100048D01*
X156512381Y-117148429D01*
X156464000Y-117245190D01*
X156464000Y-117487095D01*
X156512381Y-117583857D01*
X156560762Y-117632238D01*
X156657524Y-117680619D01*
X156899428Y-117680619D01*
X156996190Y-117632238D01*
X157044571Y-117583857D01*
X181779333Y-117680619D02*
X182117999Y-117196810D01*
X182359904Y-117680619D02*
X182359904Y-116664619D01*
X181972857Y-116664619D01*
X181876095Y-116713000D01*
X181827714Y-116761381D01*
X181779333Y-116858143D01*
X181779333Y-117003286D01*
X181827714Y-117100048D01*
X181876095Y-117148429D01*
X181972857Y-117196810D01*
X182359904Y-117196810D01*
X180908476Y-117003286D02*
X180908476Y-117680619D01*
X181150380Y-116616238D02*
X181392285Y-117341952D01*
X180763333Y-117341952D01*
X182384095Y-112092619D02*
X182287334Y-112092619D01*
X182190572Y-112141000D01*
X182142191Y-112189381D01*
X182093810Y-112286143D01*
X182045429Y-112479667D01*
X182045429Y-112721571D01*
X182093810Y-112915095D01*
X182142191Y-113011857D01*
X182190572Y-113060238D01*
X182287334Y-113108619D01*
X182384095Y-113108619D01*
X182480857Y-113060238D01*
X182529238Y-113011857D01*
X182577619Y-112915095D01*
X182626000Y-112721571D01*
X182626000Y-112479667D01*
X182577619Y-112286143D01*
X182529238Y-112189381D01*
X182480857Y-112141000D01*
X182384095Y-112092619D01*
X181610000Y-113011857D02*
X181561619Y-113060238D01*
X181610000Y-113108619D01*
X181658381Y-113060238D01*
X181610000Y-113011857D01*
X181610000Y-113108619D01*
X180642381Y-112092619D02*
X181126190Y-112092619D01*
X181174571Y-112576429D01*
X181126190Y-112528048D01*
X181029428Y-112479667D01*
X180787524Y-112479667D01*
X180690762Y-112528048D01*
X180642381Y-112576429D01*
X180594000Y-112673190D01*
X180594000Y-112915095D01*
X180642381Y-113011857D01*
X180690762Y-113060238D01*
X180787524Y-113108619D01*
X181029428Y-113108619D01*
X181126190Y-113060238D01*
X181174571Y-113011857D01*
X125469095Y-116683619D02*
X125469095Y-117506095D01*
X125420714Y-117602857D01*
X125372333Y-117651238D01*
X125275571Y-117699619D01*
X125082048Y-117699619D01*
X124985286Y-117651238D01*
X124936905Y-117602857D01*
X124888524Y-117506095D01*
X124888524Y-116683619D01*
X123872524Y-117699619D02*
X124453095Y-117699619D01*
X124162809Y-117699619D02*
X124162809Y-116683619D01*
X124259571Y-116828762D01*
X124356333Y-116925524D01*
X124453095Y-116973905D01*
X131904619Y-109353048D02*
X131904619Y-108869239D01*
X130888619Y-108869239D01*
X130985381Y-109643334D02*
X130937000Y-109691715D01*
X130888619Y-109788477D01*
X130888619Y-110030381D01*
X130937000Y-110127143D01*
X130985381Y-110175524D01*
X131082143Y-110223905D01*
X131178905Y-110223905D01*
X131324048Y-110175524D01*
X131904619Y-109594953D01*
X131904619Y-110223905D01*
X131904619Y-110707715D02*
X131904619Y-110901239D01*
X131856238Y-110998000D01*
X131807857Y-111046381D01*
X131662714Y-111143143D01*
X131469190Y-111191524D01*
X131082143Y-111191524D01*
X130985381Y-111143143D01*
X130937000Y-111094762D01*
X130888619Y-110998000D01*
X130888619Y-110804477D01*
X130937000Y-110707715D01*
X130985381Y-110659334D01*
X131082143Y-110610953D01*
X131324048Y-110610953D01*
X131420810Y-110659334D01*
X131469190Y-110707715D01*
X131517571Y-110804477D01*
X131517571Y-110998000D01*
X131469190Y-111094762D01*
X131420810Y-111143143D01*
X131324048Y-111191524D01*
X131324048Y-111772096D02*
X131275667Y-111675334D01*
X131227286Y-111626953D01*
X131130524Y-111578572D01*
X131082143Y-111578572D01*
X130985381Y-111626953D01*
X130937000Y-111675334D01*
X130888619Y-111772096D01*
X130888619Y-111965619D01*
X130937000Y-112062381D01*
X130985381Y-112110762D01*
X131082143Y-112159143D01*
X131130524Y-112159143D01*
X131227286Y-112110762D01*
X131275667Y-112062381D01*
X131324048Y-111965619D01*
X131324048Y-111772096D01*
X131372429Y-111675334D01*
X131420810Y-111626953D01*
X131517571Y-111578572D01*
X131711095Y-111578572D01*
X131807857Y-111626953D01*
X131856238Y-111675334D01*
X131904619Y-111772096D01*
X131904619Y-111965619D01*
X131856238Y-112062381D01*
X131807857Y-112110762D01*
X131711095Y-112159143D01*
X131517571Y-112159143D01*
X131420810Y-112110762D01*
X131372429Y-112062381D01*
X131324048Y-111965619D01*
X146509619Y-98310096D02*
X145493619Y-98310096D01*
X145493619Y-98552001D01*
X145542000Y-98697143D01*
X145638762Y-98793905D01*
X145735524Y-98842286D01*
X145929048Y-98890667D01*
X146074190Y-98890667D01*
X146267714Y-98842286D01*
X146364476Y-98793905D01*
X146461238Y-98697143D01*
X146509619Y-98552001D01*
X146509619Y-98310096D01*
X145929048Y-99471239D02*
X145880667Y-99374477D01*
X145832286Y-99326096D01*
X145735524Y-99277715D01*
X145687143Y-99277715D01*
X145590381Y-99326096D01*
X145542000Y-99374477D01*
X145493619Y-99471239D01*
X145493619Y-99664762D01*
X145542000Y-99761524D01*
X145590381Y-99809905D01*
X145687143Y-99858286D01*
X145735524Y-99858286D01*
X145832286Y-99809905D01*
X145880667Y-99761524D01*
X145929048Y-99664762D01*
X145929048Y-99471239D01*
X145977429Y-99374477D01*
X146025810Y-99326096D01*
X146122571Y-99277715D01*
X146316095Y-99277715D01*
X146412857Y-99326096D01*
X146461238Y-99374477D01*
X146509619Y-99471239D01*
X146509619Y-99664762D01*
X146461238Y-99761524D01*
X146412857Y-99809905D01*
X146316095Y-99858286D01*
X146122571Y-99858286D01*
X146025810Y-99809905D01*
X145977429Y-99761524D01*
X145929048Y-99664762D01*
X146509619Y-86880096D02*
X145493619Y-86880096D01*
X145493619Y-87122001D01*
X145542000Y-87267143D01*
X145638762Y-87363905D01*
X145735524Y-87412286D01*
X145929048Y-87460667D01*
X146074190Y-87460667D01*
X146267714Y-87412286D01*
X146364476Y-87363905D01*
X146461238Y-87267143D01*
X146509619Y-87122001D01*
X146509619Y-86880096D01*
X145493619Y-87799334D02*
X145493619Y-88476667D01*
X146509619Y-88041239D01*
X141429619Y-98310096D02*
X140413619Y-98310096D01*
X140413619Y-98552001D01*
X140462000Y-98697143D01*
X140558762Y-98793905D01*
X140655524Y-98842286D01*
X140849048Y-98890667D01*
X140994190Y-98890667D01*
X141187714Y-98842286D01*
X141284476Y-98793905D01*
X141381238Y-98697143D01*
X141429619Y-98552001D01*
X141429619Y-98310096D01*
X140413619Y-99761524D02*
X140413619Y-99568001D01*
X140462000Y-99471239D01*
X140510381Y-99422858D01*
X140655524Y-99326096D01*
X140849048Y-99277715D01*
X141236095Y-99277715D01*
X141332857Y-99326096D01*
X141381238Y-99374477D01*
X141429619Y-99471239D01*
X141429619Y-99664762D01*
X141381238Y-99761524D01*
X141332857Y-99809905D01*
X141236095Y-99858286D01*
X140994190Y-99858286D01*
X140897429Y-99809905D01*
X140849048Y-99761524D01*
X140800667Y-99664762D01*
X140800667Y-99471239D01*
X140849048Y-99374477D01*
X140897429Y-99326096D01*
X140994190Y-99277715D01*
X141429619Y-86880096D02*
X140413619Y-86880096D01*
X140413619Y-87122001D01*
X140462000Y-87267143D01*
X140558762Y-87363905D01*
X140655524Y-87412286D01*
X140849048Y-87460667D01*
X140994190Y-87460667D01*
X141187714Y-87412286D01*
X141284476Y-87363905D01*
X141381238Y-87267143D01*
X141429619Y-87122001D01*
X141429619Y-86880096D01*
X140413619Y-88379905D02*
X140413619Y-87896096D01*
X140897429Y-87847715D01*
X140849048Y-87896096D01*
X140800667Y-87992858D01*
X140800667Y-88234762D01*
X140849048Y-88331524D01*
X140897429Y-88379905D01*
X140994190Y-88428286D01*
X141236095Y-88428286D01*
X141332857Y-88379905D01*
X141381238Y-88331524D01*
X141429619Y-88234762D01*
X141429619Y-87992858D01*
X141381238Y-87896096D01*
X141332857Y-87847715D01*
X127459619Y-98310096D02*
X126443619Y-98310096D01*
X126443619Y-98552001D01*
X126492000Y-98697143D01*
X126588762Y-98793905D01*
X126685524Y-98842286D01*
X126879048Y-98890667D01*
X127024190Y-98890667D01*
X127217714Y-98842286D01*
X127314476Y-98793905D01*
X127411238Y-98697143D01*
X127459619Y-98552001D01*
X127459619Y-98310096D01*
X126782286Y-99761524D02*
X127459619Y-99761524D01*
X126395238Y-99519620D02*
X127120952Y-99277715D01*
X127120952Y-99906667D01*
X127459619Y-86880096D02*
X126443619Y-86880096D01*
X126443619Y-87122001D01*
X126492000Y-87267143D01*
X126588762Y-87363905D01*
X126685524Y-87412286D01*
X126879048Y-87460667D01*
X127024190Y-87460667D01*
X127217714Y-87412286D01*
X127314476Y-87363905D01*
X127411238Y-87267143D01*
X127459619Y-87122001D01*
X127459619Y-86880096D01*
X126443619Y-87799334D02*
X126443619Y-88428286D01*
X126830667Y-88089620D01*
X126830667Y-88234762D01*
X126879048Y-88331524D01*
X126927429Y-88379905D01*
X127024190Y-88428286D01*
X127266095Y-88428286D01*
X127362857Y-88379905D01*
X127411238Y-88331524D01*
X127459619Y-88234762D01*
X127459619Y-87944477D01*
X127411238Y-87847715D01*
X127362857Y-87799334D01*
X122379619Y-98310096D02*
X121363619Y-98310096D01*
X121363619Y-98552001D01*
X121412000Y-98697143D01*
X121508762Y-98793905D01*
X121605524Y-98842286D01*
X121799048Y-98890667D01*
X121944190Y-98890667D01*
X122137714Y-98842286D01*
X122234476Y-98793905D01*
X122331238Y-98697143D01*
X122379619Y-98552001D01*
X122379619Y-98310096D01*
X121460381Y-99277715D02*
X121412000Y-99326096D01*
X121363619Y-99422858D01*
X121363619Y-99664762D01*
X121412000Y-99761524D01*
X121460381Y-99809905D01*
X121557143Y-99858286D01*
X121653905Y-99858286D01*
X121799048Y-99809905D01*
X122379619Y-99229334D01*
X122379619Y-99858286D01*
X122379619Y-86880096D02*
X121363619Y-86880096D01*
X121363619Y-87122001D01*
X121412000Y-87267143D01*
X121508762Y-87363905D01*
X121605524Y-87412286D01*
X121799048Y-87460667D01*
X121944190Y-87460667D01*
X122137714Y-87412286D01*
X122234476Y-87363905D01*
X122331238Y-87267143D01*
X122379619Y-87122001D01*
X122379619Y-86880096D01*
X122379619Y-88428286D02*
X122379619Y-87847715D01*
X122379619Y-88138001D02*
X121363619Y-88138001D01*
X121508762Y-88041239D01*
X121605524Y-87944477D01*
X121653905Y-87847715D01*
X160128857Y-107780667D02*
X160177238Y-107732286D01*
X160225619Y-107587143D01*
X160225619Y-107490381D01*
X160177238Y-107345239D01*
X160080476Y-107248477D01*
X159983714Y-107200096D01*
X159790190Y-107151715D01*
X159645048Y-107151715D01*
X159451524Y-107200096D01*
X159354762Y-107248477D01*
X159258000Y-107345239D01*
X159209619Y-107490381D01*
X159209619Y-107587143D01*
X159258000Y-107732286D01*
X159306381Y-107780667D01*
X159209619Y-108119334D02*
X159209619Y-108796667D01*
X160225619Y-108361239D01*
X154637619Y-106280858D02*
X154637619Y-106377619D01*
X154686000Y-106474381D01*
X154734381Y-106522762D01*
X154831143Y-106571143D01*
X155024667Y-106619524D01*
X155266571Y-106619524D01*
X155460095Y-106571143D01*
X155556857Y-106522762D01*
X155605238Y-106474381D01*
X155653619Y-106377619D01*
X155653619Y-106280858D01*
X155605238Y-106184096D01*
X155556857Y-106135715D01*
X155460095Y-106087334D01*
X155266571Y-106038953D01*
X155024667Y-106038953D01*
X154831143Y-106087334D01*
X154734381Y-106135715D01*
X154686000Y-106184096D01*
X154637619Y-106280858D01*
X155556857Y-107054953D02*
X155605238Y-107103334D01*
X155653619Y-107054953D01*
X155605238Y-107006572D01*
X155556857Y-107054953D01*
X155653619Y-107054953D01*
X155653619Y-108070953D02*
X155653619Y-107490382D01*
X155653619Y-107780668D02*
X154637619Y-107780668D01*
X154782762Y-107683906D01*
X154879524Y-107587144D01*
X154927905Y-107490382D01*
X154976286Y-108941810D02*
X155653619Y-108941810D01*
X154976286Y-108506382D02*
X155508476Y-108506382D01*
X155605238Y-108554763D01*
X155653619Y-108651525D01*
X155653619Y-108796667D01*
X155605238Y-108893429D01*
X155556857Y-108941810D01*
X155121429Y-109764286D02*
X155121429Y-109425620D01*
X155653619Y-109425620D02*
X154637619Y-109425620D01*
X154637619Y-109909429D01*
X184258857Y-105240667D02*
X184307238Y-105192286D01*
X184355619Y-105047143D01*
X184355619Y-104950381D01*
X184307238Y-104805239D01*
X184210476Y-104708477D01*
X184113714Y-104660096D01*
X183920190Y-104611715D01*
X183775048Y-104611715D01*
X183581524Y-104660096D01*
X183484762Y-104708477D01*
X183388000Y-104805239D01*
X183339619Y-104950381D01*
X183339619Y-105047143D01*
X183388000Y-105192286D01*
X183436381Y-105240667D01*
X183775048Y-105821239D02*
X183726667Y-105724477D01*
X183678286Y-105676096D01*
X183581524Y-105627715D01*
X183533143Y-105627715D01*
X183436381Y-105676096D01*
X183388000Y-105724477D01*
X183339619Y-105821239D01*
X183339619Y-106014762D01*
X183388000Y-106111524D01*
X183436381Y-106159905D01*
X183533143Y-106208286D01*
X183581524Y-106208286D01*
X183678286Y-106159905D01*
X183726667Y-106111524D01*
X183775048Y-106014762D01*
X183775048Y-105821239D01*
X183823429Y-105724477D01*
X183871810Y-105676096D01*
X183968571Y-105627715D01*
X184162095Y-105627715D01*
X184258857Y-105676096D01*
X184307238Y-105724477D01*
X184355619Y-105821239D01*
X184355619Y-106014762D01*
X184307238Y-106111524D01*
X184258857Y-106159905D01*
X184162095Y-106208286D01*
X183968571Y-106208286D01*
X183871810Y-106159905D01*
X183823429Y-106111524D01*
X183775048Y-106014762D01*
X178767619Y-103740858D02*
X178767619Y-103837619D01*
X178816000Y-103934381D01*
X178864381Y-103982762D01*
X178961143Y-104031143D01*
X179154667Y-104079524D01*
X179396571Y-104079524D01*
X179590095Y-104031143D01*
X179686857Y-103982762D01*
X179735238Y-103934381D01*
X179783619Y-103837619D01*
X179783619Y-103740858D01*
X179735238Y-103644096D01*
X179686857Y-103595715D01*
X179590095Y-103547334D01*
X179396571Y-103498953D01*
X179154667Y-103498953D01*
X178961143Y-103547334D01*
X178864381Y-103595715D01*
X178816000Y-103644096D01*
X178767619Y-103740858D01*
X179686857Y-104514953D02*
X179735238Y-104563334D01*
X179783619Y-104514953D01*
X179735238Y-104466572D01*
X179686857Y-104514953D01*
X179783619Y-104514953D01*
X179783619Y-105530953D02*
X179783619Y-104950382D01*
X179783619Y-105240668D02*
X178767619Y-105240668D01*
X178912762Y-105143906D01*
X179009524Y-105047144D01*
X179057905Y-104950382D01*
X179106286Y-106401810D02*
X179783619Y-106401810D01*
X179106286Y-105966382D02*
X179638476Y-105966382D01*
X179735238Y-106014763D01*
X179783619Y-106111525D01*
X179783619Y-106256667D01*
X179735238Y-106353429D01*
X179686857Y-106401810D01*
X179251429Y-107224286D02*
X179251429Y-106885620D01*
X179783619Y-106885620D02*
X178767619Y-106885620D01*
X178767619Y-107369429D01*
X153778857Y-107780667D02*
X153827238Y-107732286D01*
X153875619Y-107587143D01*
X153875619Y-107490381D01*
X153827238Y-107345239D01*
X153730476Y-107248477D01*
X153633714Y-107200096D01*
X153440190Y-107151715D01*
X153295048Y-107151715D01*
X153101524Y-107200096D01*
X153004762Y-107248477D01*
X152908000Y-107345239D01*
X152859619Y-107490381D01*
X152859619Y-107587143D01*
X152908000Y-107732286D01*
X152956381Y-107780667D01*
X153875619Y-108264477D02*
X153875619Y-108458001D01*
X153827238Y-108554762D01*
X153778857Y-108603143D01*
X153633714Y-108699905D01*
X153440190Y-108748286D01*
X153053143Y-108748286D01*
X152956381Y-108699905D01*
X152908000Y-108651524D01*
X152859619Y-108554762D01*
X152859619Y-108361239D01*
X152908000Y-108264477D01*
X152956381Y-108216096D01*
X153053143Y-108167715D01*
X153295048Y-108167715D01*
X153391810Y-108216096D01*
X153440190Y-108264477D01*
X153488571Y-108361239D01*
X153488571Y-108554762D01*
X153440190Y-108651524D01*
X153391810Y-108699905D01*
X153295048Y-108748286D01*
X147229286Y-106764667D02*
X147906619Y-106764667D01*
X146842238Y-106522763D02*
X147567952Y-106280858D01*
X147567952Y-106909810D01*
X146890619Y-107200096D02*
X146890619Y-107877429D01*
X147906619Y-107442001D01*
X147229286Y-108699905D02*
X147906619Y-108699905D01*
X147229286Y-108264477D02*
X147761476Y-108264477D01*
X147858238Y-108312858D01*
X147906619Y-108409620D01*
X147906619Y-108554762D01*
X147858238Y-108651524D01*
X147809857Y-108699905D01*
X147374429Y-109522381D02*
X147374429Y-109183715D01*
X147906619Y-109183715D02*
X146890619Y-109183715D01*
X146890619Y-109667524D01*
X160479619Y-86880096D02*
X159463619Y-86880096D01*
X159463619Y-87122001D01*
X159512000Y-87267143D01*
X159608762Y-87363905D01*
X159705524Y-87412286D01*
X159899048Y-87460667D01*
X160044190Y-87460667D01*
X160237714Y-87412286D01*
X160334476Y-87363905D01*
X160431238Y-87267143D01*
X160479619Y-87122001D01*
X160479619Y-86880096D01*
X160479619Y-87944477D02*
X160479619Y-88138001D01*
X160431238Y-88234762D01*
X160382857Y-88283143D01*
X160237714Y-88379905D01*
X160044190Y-88428286D01*
X159657143Y-88428286D01*
X159560381Y-88379905D01*
X159512000Y-88331524D01*
X159463619Y-88234762D01*
X159463619Y-88041239D01*
X159512000Y-87944477D01*
X159560381Y-87896096D01*
X159657143Y-87847715D01*
X159899048Y-87847715D01*
X159995810Y-87896096D01*
X160044190Y-87944477D01*
X160092571Y-88041239D01*
X160092571Y-88234762D01*
X160044190Y-88331524D01*
X159995810Y-88379905D01*
X159899048Y-88428286D01*
X160479619Y-97826286D02*
X159463619Y-97826286D01*
X159463619Y-98068191D01*
X159512000Y-98213333D01*
X159608762Y-98310095D01*
X159705524Y-98358476D01*
X159899048Y-98406857D01*
X160044190Y-98406857D01*
X160237714Y-98358476D01*
X160334476Y-98310095D01*
X160431238Y-98213333D01*
X160479619Y-98068191D01*
X160479619Y-97826286D01*
X160479619Y-99374476D02*
X160479619Y-98793905D01*
X160479619Y-99084191D02*
X159463619Y-99084191D01*
X159608762Y-98987429D01*
X159705524Y-98890667D01*
X159753905Y-98793905D01*
X159463619Y-100003429D02*
X159463619Y-100100190D01*
X159512000Y-100196952D01*
X159560381Y-100245333D01*
X159657143Y-100293714D01*
X159850667Y-100342095D01*
X160092571Y-100342095D01*
X160286095Y-100293714D01*
X160382857Y-100245333D01*
X160431238Y-100196952D01*
X160479619Y-100100190D01*
X160479619Y-100003429D01*
X160431238Y-99906667D01*
X160382857Y-99858286D01*
X160286095Y-99809905D01*
X160092571Y-99761524D01*
X159850667Y-99761524D01*
X159657143Y-99809905D01*
X159560381Y-99858286D01*
X159512000Y-99906667D01*
X159463619Y-100003429D01*
X165559619Y-86396286D02*
X164543619Y-86396286D01*
X164543619Y-86638191D01*
X164592000Y-86783333D01*
X164688762Y-86880095D01*
X164785524Y-86928476D01*
X164979048Y-86976857D01*
X165124190Y-86976857D01*
X165317714Y-86928476D01*
X165414476Y-86880095D01*
X165511238Y-86783333D01*
X165559619Y-86638191D01*
X165559619Y-86396286D01*
X165559619Y-87944476D02*
X165559619Y-87363905D01*
X165559619Y-87654191D02*
X164543619Y-87654191D01*
X164688762Y-87557429D01*
X164785524Y-87460667D01*
X164833905Y-87363905D01*
X165559619Y-88912095D02*
X165559619Y-88331524D01*
X165559619Y-88621810D02*
X164543619Y-88621810D01*
X164688762Y-88525048D01*
X164785524Y-88428286D01*
X164833905Y-88331524D01*
X165559619Y-97826286D02*
X164543619Y-97826286D01*
X164543619Y-98068191D01*
X164592000Y-98213333D01*
X164688762Y-98310095D01*
X164785524Y-98358476D01*
X164979048Y-98406857D01*
X165124190Y-98406857D01*
X165317714Y-98358476D01*
X165414476Y-98310095D01*
X165511238Y-98213333D01*
X165559619Y-98068191D01*
X165559619Y-97826286D01*
X165559619Y-99374476D02*
X165559619Y-98793905D01*
X165559619Y-99084191D02*
X164543619Y-99084191D01*
X164688762Y-98987429D01*
X164785524Y-98890667D01*
X164833905Y-98793905D01*
X164640381Y-99761524D02*
X164592000Y-99809905D01*
X164543619Y-99906667D01*
X164543619Y-100148571D01*
X164592000Y-100245333D01*
X164640381Y-100293714D01*
X164737143Y-100342095D01*
X164833905Y-100342095D01*
X164979048Y-100293714D01*
X165559619Y-99713143D01*
X165559619Y-100342095D01*
X179529619Y-86396286D02*
X178513619Y-86396286D01*
X178513619Y-86638191D01*
X178562000Y-86783333D01*
X178658762Y-86880095D01*
X178755524Y-86928476D01*
X178949048Y-86976857D01*
X179094190Y-86976857D01*
X179287714Y-86928476D01*
X179384476Y-86880095D01*
X179481238Y-86783333D01*
X179529619Y-86638191D01*
X179529619Y-86396286D01*
X179529619Y-87944476D02*
X179529619Y-87363905D01*
X179529619Y-87654191D02*
X178513619Y-87654191D01*
X178658762Y-87557429D01*
X178755524Y-87460667D01*
X178803905Y-87363905D01*
X178513619Y-88283143D02*
X178513619Y-88912095D01*
X178900667Y-88573429D01*
X178900667Y-88718571D01*
X178949048Y-88815333D01*
X178997429Y-88863714D01*
X179094190Y-88912095D01*
X179336095Y-88912095D01*
X179432857Y-88863714D01*
X179481238Y-88815333D01*
X179529619Y-88718571D01*
X179529619Y-88428286D01*
X179481238Y-88331524D01*
X179432857Y-88283143D01*
X179529619Y-97826286D02*
X178513619Y-97826286D01*
X178513619Y-98068191D01*
X178562000Y-98213333D01*
X178658762Y-98310095D01*
X178755524Y-98358476D01*
X178949048Y-98406857D01*
X179094190Y-98406857D01*
X179287714Y-98358476D01*
X179384476Y-98310095D01*
X179481238Y-98213333D01*
X179529619Y-98068191D01*
X179529619Y-97826286D01*
X179529619Y-99374476D02*
X179529619Y-98793905D01*
X179529619Y-99084191D02*
X178513619Y-99084191D01*
X178658762Y-98987429D01*
X178755524Y-98890667D01*
X178803905Y-98793905D01*
X178852286Y-100245333D02*
X179529619Y-100245333D01*
X178465238Y-100003429D02*
X179190952Y-99761524D01*
X179190952Y-100390476D01*
X184609619Y-86396286D02*
X183593619Y-86396286D01*
X183593619Y-86638191D01*
X183642000Y-86783333D01*
X183738762Y-86880095D01*
X183835524Y-86928476D01*
X184029048Y-86976857D01*
X184174190Y-86976857D01*
X184367714Y-86928476D01*
X184464476Y-86880095D01*
X184561238Y-86783333D01*
X184609619Y-86638191D01*
X184609619Y-86396286D01*
X184609619Y-87944476D02*
X184609619Y-87363905D01*
X184609619Y-87654191D02*
X183593619Y-87654191D01*
X183738762Y-87557429D01*
X183835524Y-87460667D01*
X183883905Y-87363905D01*
X183593619Y-88863714D02*
X183593619Y-88379905D01*
X184077429Y-88331524D01*
X184029048Y-88379905D01*
X183980667Y-88476667D01*
X183980667Y-88718571D01*
X184029048Y-88815333D01*
X184077429Y-88863714D01*
X184174190Y-88912095D01*
X184416095Y-88912095D01*
X184512857Y-88863714D01*
X184561238Y-88815333D01*
X184609619Y-88718571D01*
X184609619Y-88476667D01*
X184561238Y-88379905D01*
X184512857Y-88331524D01*
X184609619Y-97826286D02*
X183593619Y-97826286D01*
X183593619Y-98068191D01*
X183642000Y-98213333D01*
X183738762Y-98310095D01*
X183835524Y-98358476D01*
X184029048Y-98406857D01*
X184174190Y-98406857D01*
X184367714Y-98358476D01*
X184464476Y-98310095D01*
X184561238Y-98213333D01*
X184609619Y-98068191D01*
X184609619Y-97826286D01*
X184609619Y-99374476D02*
X184609619Y-98793905D01*
X184609619Y-99084191D02*
X183593619Y-99084191D01*
X183738762Y-98987429D01*
X183835524Y-98890667D01*
X183883905Y-98793905D01*
X183593619Y-100245333D02*
X183593619Y-100051810D01*
X183642000Y-99955048D01*
X183690381Y-99906667D01*
X183835524Y-99809905D01*
X184029048Y-99761524D01*
X184416095Y-99761524D01*
X184512857Y-99809905D01*
X184561238Y-99858286D01*
X184609619Y-99955048D01*
X184609619Y-100148571D01*
X184561238Y-100245333D01*
X184512857Y-100293714D01*
X184416095Y-100342095D01*
X184174190Y-100342095D01*
X184077429Y-100293714D01*
X184029048Y-100245333D01*
X183980667Y-100148571D01*
X183980667Y-99955048D01*
X184029048Y-99858286D01*
X184077429Y-99809905D01*
X184174190Y-99761524D01*
X119549333Y-113108619D02*
X119887999Y-112624810D01*
X120129904Y-113108619D02*
X120129904Y-112092619D01*
X119742857Y-112092619D01*
X119646095Y-112141000D01*
X119597714Y-112189381D01*
X119549333Y-112286143D01*
X119549333Y-112431286D01*
X119597714Y-112528048D01*
X119646095Y-112576429D01*
X119742857Y-112624810D01*
X120129904Y-112624810D01*
X118581714Y-113108619D02*
X119162285Y-113108619D01*
X118871999Y-113108619D02*
X118871999Y-112092619D01*
X118968761Y-112237762D01*
X119065523Y-112334524D01*
X119162285Y-112382905D01*
X120154095Y-116664619D02*
X120057334Y-116664619D01*
X119960572Y-116713000D01*
X119912191Y-116761381D01*
X119863810Y-116858143D01*
X119815429Y-117051667D01*
X119815429Y-117293571D01*
X119863810Y-117487095D01*
X119912191Y-117583857D01*
X119960572Y-117632238D01*
X120057334Y-117680619D01*
X120154095Y-117680619D01*
X120250857Y-117632238D01*
X120299238Y-117583857D01*
X120347619Y-117487095D01*
X120396000Y-117293571D01*
X120396000Y-117051667D01*
X120347619Y-116858143D01*
X120299238Y-116761381D01*
X120250857Y-116713000D01*
X120154095Y-116664619D01*
X119380000Y-117583857D02*
X119331619Y-117632238D01*
X119380000Y-117680619D01*
X119428381Y-117632238D01*
X119380000Y-117583857D01*
X119380000Y-117680619D01*
X118412381Y-116664619D02*
X118896190Y-116664619D01*
X118944571Y-117148429D01*
X118896190Y-117100048D01*
X118799428Y-117051667D01*
X118557524Y-117051667D01*
X118460762Y-117100048D01*
X118412381Y-117148429D01*
X118364000Y-117245190D01*
X118364000Y-117487095D01*
X118412381Y-117583857D01*
X118460762Y-117632238D01*
X118557524Y-117680619D01*
X118799428Y-117680619D01*
X118896190Y-117632238D01*
X118944571Y-117583857D01*
X143679333Y-117680619D02*
X144017999Y-117196810D01*
X144259904Y-117680619D02*
X144259904Y-116664619D01*
X143872857Y-116664619D01*
X143776095Y-116713000D01*
X143727714Y-116761381D01*
X143679333Y-116858143D01*
X143679333Y-117003286D01*
X143727714Y-117100048D01*
X143776095Y-117148429D01*
X143872857Y-117196810D01*
X144259904Y-117196810D01*
X143292285Y-116761381D02*
X143243904Y-116713000D01*
X143147142Y-116664619D01*
X142905238Y-116664619D01*
X142808476Y-116713000D01*
X142760095Y-116761381D01*
X142711714Y-116858143D01*
X142711714Y-116954905D01*
X142760095Y-117100048D01*
X143340666Y-117680619D01*
X142711714Y-117680619D01*
X144284095Y-112092619D02*
X144187334Y-112092619D01*
X144090572Y-112141000D01*
X144042191Y-112189381D01*
X143993810Y-112286143D01*
X143945429Y-112479667D01*
X143945429Y-112721571D01*
X143993810Y-112915095D01*
X144042191Y-113011857D01*
X144090572Y-113060238D01*
X144187334Y-113108619D01*
X144284095Y-113108619D01*
X144380857Y-113060238D01*
X144429238Y-113011857D01*
X144477619Y-112915095D01*
X144526000Y-112721571D01*
X144526000Y-112479667D01*
X144477619Y-112286143D01*
X144429238Y-112189381D01*
X144380857Y-112141000D01*
X144284095Y-112092619D01*
X143510000Y-113011857D02*
X143461619Y-113060238D01*
X143510000Y-113108619D01*
X143558381Y-113060238D01*
X143510000Y-113011857D01*
X143510000Y-113108619D01*
X142542381Y-112092619D02*
X143026190Y-112092619D01*
X143074571Y-112576429D01*
X143026190Y-112528048D01*
X142929428Y-112479667D01*
X142687524Y-112479667D01*
X142590762Y-112528048D01*
X142542381Y-112576429D01*
X142494000Y-112673190D01*
X142494000Y-112915095D01*
X142542381Y-113011857D01*
X142590762Y-113060238D01*
X142687524Y-113108619D01*
X142929428Y-113108619D01*
X143026190Y-113060238D01*
X143074571Y-113011857D01*
X153204333Y-120728619D02*
X153542999Y-120244810D01*
X153784904Y-120728619D02*
X153784904Y-119712619D01*
X153397857Y-119712619D01*
X153301095Y-119761000D01*
X153252714Y-119809381D01*
X153204333Y-119906143D01*
X153204333Y-120051286D01*
X153252714Y-120148048D01*
X153301095Y-120196429D01*
X153397857Y-120244810D01*
X153784904Y-120244810D01*
X152623761Y-120148048D02*
X152720523Y-120099667D01*
X152768904Y-120051286D01*
X152817285Y-119954524D01*
X152817285Y-119906143D01*
X152768904Y-119809381D01*
X152720523Y-119761000D01*
X152623761Y-119712619D01*
X152430238Y-119712619D01*
X152333476Y-119761000D01*
X152285095Y-119809381D01*
X152236714Y-119906143D01*
X152236714Y-119954524D01*
X152285095Y-120051286D01*
X152333476Y-120099667D01*
X152430238Y-120148048D01*
X152623761Y-120148048D01*
X152720523Y-120196429D01*
X152768904Y-120244810D01*
X152817285Y-120341571D01*
X152817285Y-120535095D01*
X152768904Y-120631857D01*
X152720523Y-120680238D01*
X152623761Y-120728619D01*
X152430238Y-120728619D01*
X152333476Y-120680238D01*
X152285095Y-120631857D01*
X152236714Y-120535095D01*
X152236714Y-120341571D01*
X152285095Y-120244810D01*
X152333476Y-120196429D01*
X152430238Y-120148048D01*
X153712333Y-125300619D02*
X154292904Y-125300619D01*
X154002618Y-125300619D02*
X154002618Y-124284619D01*
X154099380Y-124429762D01*
X154196142Y-124526524D01*
X154292904Y-124574905D01*
X153131761Y-124720048D02*
X153228523Y-124671667D01*
X153276904Y-124623286D01*
X153325285Y-124526524D01*
X153325285Y-124478143D01*
X153276904Y-124381381D01*
X153228523Y-124333000D01*
X153131761Y-124284619D01*
X152938238Y-124284619D01*
X152841476Y-124333000D01*
X152793095Y-124381381D01*
X152744714Y-124478143D01*
X152744714Y-124526524D01*
X152793095Y-124623286D01*
X152841476Y-124671667D01*
X152938238Y-124720048D01*
X153131761Y-124720048D01*
X153228523Y-124768429D01*
X153276904Y-124816810D01*
X153325285Y-124913571D01*
X153325285Y-125107095D01*
X153276904Y-125203857D01*
X153228523Y-125252238D01*
X153131761Y-125300619D01*
X152938238Y-125300619D01*
X152841476Y-125252238D01*
X152793095Y-125203857D01*
X152744714Y-125107095D01*
X152744714Y-124913571D01*
X152793095Y-124816810D01*
X152841476Y-124768429D01*
X152938238Y-124720048D01*
X152115761Y-124284619D02*
X152019000Y-124284619D01*
X151922238Y-124333000D01*
X151873857Y-124381381D01*
X151825476Y-124478143D01*
X151777095Y-124671667D01*
X151777095Y-124913571D01*
X151825476Y-125107095D01*
X151873857Y-125203857D01*
X151922238Y-125252238D01*
X152019000Y-125300619D01*
X152115761Y-125300619D01*
X152212523Y-125252238D01*
X152260904Y-125203857D01*
X152309285Y-125107095D01*
X152357666Y-124913571D01*
X152357666Y-124671667D01*
X152309285Y-124478143D01*
X152260904Y-124381381D01*
X152212523Y-124333000D01*
X152115761Y-124284619D01*
X178604333Y-120728619D02*
X178942999Y-120244810D01*
X179184904Y-120728619D02*
X179184904Y-119712619D01*
X178797857Y-119712619D01*
X178701095Y-119761000D01*
X178652714Y-119809381D01*
X178604333Y-119906143D01*
X178604333Y-120051286D01*
X178652714Y-120148048D01*
X178701095Y-120196429D01*
X178797857Y-120244810D01*
X179184904Y-120244810D01*
X178120523Y-120728619D02*
X177926999Y-120728619D01*
X177830238Y-120680238D01*
X177781857Y-120631857D01*
X177685095Y-120486714D01*
X177636714Y-120293190D01*
X177636714Y-119906143D01*
X177685095Y-119809381D01*
X177733476Y-119761000D01*
X177830238Y-119712619D01*
X178023761Y-119712619D01*
X178120523Y-119761000D01*
X178168904Y-119809381D01*
X178217285Y-119906143D01*
X178217285Y-120148048D01*
X178168904Y-120244810D01*
X178120523Y-120293190D01*
X178023761Y-120341571D01*
X177830238Y-120341571D01*
X177733476Y-120293190D01*
X177685095Y-120244810D01*
X177636714Y-120148048D01*
X179112333Y-125300619D02*
X179692904Y-125300619D01*
X179402618Y-125300619D02*
X179402618Y-124284619D01*
X179499380Y-124429762D01*
X179596142Y-124526524D01*
X179692904Y-124574905D01*
X178531761Y-124720048D02*
X178628523Y-124671667D01*
X178676904Y-124623286D01*
X178725285Y-124526524D01*
X178725285Y-124478143D01*
X178676904Y-124381381D01*
X178628523Y-124333000D01*
X178531761Y-124284619D01*
X178338238Y-124284619D01*
X178241476Y-124333000D01*
X178193095Y-124381381D01*
X178144714Y-124478143D01*
X178144714Y-124526524D01*
X178193095Y-124623286D01*
X178241476Y-124671667D01*
X178338238Y-124720048D01*
X178531761Y-124720048D01*
X178628523Y-124768429D01*
X178676904Y-124816810D01*
X178725285Y-124913571D01*
X178725285Y-125107095D01*
X178676904Y-125203857D01*
X178628523Y-125252238D01*
X178531761Y-125300619D01*
X178338238Y-125300619D01*
X178241476Y-125252238D01*
X178193095Y-125203857D01*
X178144714Y-125107095D01*
X178144714Y-124913571D01*
X178193095Y-124816810D01*
X178241476Y-124768429D01*
X178338238Y-124720048D01*
X177515761Y-124284619D02*
X177419000Y-124284619D01*
X177322238Y-124333000D01*
X177273857Y-124381381D01*
X177225476Y-124478143D01*
X177177095Y-124671667D01*
X177177095Y-124913571D01*
X177225476Y-125107095D01*
X177273857Y-125203857D01*
X177322238Y-125252238D01*
X177419000Y-125300619D01*
X177515761Y-125300619D01*
X177612523Y-125252238D01*
X177660904Y-125203857D01*
X177709285Y-125107095D01*
X177757666Y-124913571D01*
X177757666Y-124671667D01*
X177709285Y-124478143D01*
X177660904Y-124381381D01*
X177612523Y-124333000D01*
X177515761Y-124284619D01*
X163569095Y-116683619D02*
X163569095Y-117506095D01*
X163520714Y-117602857D01*
X163472333Y-117651238D01*
X163375571Y-117699619D01*
X163182048Y-117699619D01*
X163085286Y-117651238D01*
X163036905Y-117602857D01*
X162988524Y-117506095D01*
X162988524Y-116683619D01*
X162553095Y-116780381D02*
X162504714Y-116732000D01*
X162407952Y-116683619D01*
X162166048Y-116683619D01*
X162069286Y-116732000D01*
X162020905Y-116780381D01*
X161972524Y-116877143D01*
X161972524Y-116973905D01*
X162020905Y-117119048D01*
X162601476Y-117699619D01*
X161972524Y-117699619D01*
X170004619Y-109353048D02*
X170004619Y-108869239D01*
X168988619Y-108869239D01*
X169085381Y-109643334D02*
X169037000Y-109691715D01*
X168988619Y-109788477D01*
X168988619Y-110030381D01*
X169037000Y-110127143D01*
X169085381Y-110175524D01*
X169182143Y-110223905D01*
X169278905Y-110223905D01*
X169424048Y-110175524D01*
X170004619Y-109594953D01*
X170004619Y-110223905D01*
X170004619Y-110707715D02*
X170004619Y-110901239D01*
X169956238Y-110998000D01*
X169907857Y-111046381D01*
X169762714Y-111143143D01*
X169569190Y-111191524D01*
X169182143Y-111191524D01*
X169085381Y-111143143D01*
X169037000Y-111094762D01*
X168988619Y-110998000D01*
X168988619Y-110804477D01*
X169037000Y-110707715D01*
X169085381Y-110659334D01*
X169182143Y-110610953D01*
X169424048Y-110610953D01*
X169520810Y-110659334D01*
X169569190Y-110707715D01*
X169617571Y-110804477D01*
X169617571Y-110998000D01*
X169569190Y-111094762D01*
X169520810Y-111143143D01*
X169424048Y-111191524D01*
X169424048Y-111772096D02*
X169375667Y-111675334D01*
X169327286Y-111626953D01*
X169230524Y-111578572D01*
X169182143Y-111578572D01*
X169085381Y-111626953D01*
X169037000Y-111675334D01*
X168988619Y-111772096D01*
X168988619Y-111965619D01*
X169037000Y-112062381D01*
X169085381Y-112110762D01*
X169182143Y-112159143D01*
X169230524Y-112159143D01*
X169327286Y-112110762D01*
X169375667Y-112062381D01*
X169424048Y-111965619D01*
X169424048Y-111772096D01*
X169472429Y-111675334D01*
X169520810Y-111626953D01*
X169617571Y-111578572D01*
X169811095Y-111578572D01*
X169907857Y-111626953D01*
X169956238Y-111675334D01*
X170004619Y-111772096D01*
X170004619Y-111965619D01*
X169956238Y-112062381D01*
X169907857Y-112110762D01*
X169811095Y-112159143D01*
X169617571Y-112159143D01*
X169520810Y-112110762D01*
X169472429Y-112062381D01*
X169424048Y-111965619D01*
%LPC*%
D15*
X103505000Y-113030000D03*
X100965000Y-113030000D03*
X106045000Y-113030000D03*
D16*
X208457800Y-102870000D03*
D17*
X204952600Y-102870000D03*
D18*
X199466200Y-102870000D03*
D19*
X206451200Y-98374200D03*
X206451200Y-107365800D03*
D20*
X199136000Y-108585000D03*
X202184000Y-108585000D03*
X106299000Y-108585000D03*
X103251000Y-108585000D03*
D21*
X99060000Y-107950000D03*
X99060000Y-97790000D03*
D22*
X105156000Y-102870000D03*
D23*
X107950000Y-102870000D03*
X107950000Y-100076000D03*
X107950000Y-105664000D03*
D24*
X111760000Y-127000000D03*
X113030000Y-78740000D03*
X194310000Y-127000000D03*
X187960000Y-78740000D03*
D15*
X125730000Y-127000000D03*
X128270000Y-127000000D03*
X130810000Y-127000000D03*
X133350000Y-127000000D03*
X135890000Y-127000000D03*
X138430000Y-127000000D03*
X140970000Y-127000000D03*
X143510000Y-127000000D03*
X148590000Y-127000000D03*
X151130000Y-127000000D03*
X153670000Y-127000000D03*
X156210000Y-127000000D03*
X158750000Y-127000000D03*
X161290000Y-127000000D03*
X163830000Y-127000000D03*
X166370000Y-127000000D03*
X171450000Y-127000000D03*
X173990000Y-127000000D03*
X176530000Y-127000000D03*
X179070000Y-127000000D03*
X181610000Y-127000000D03*
X184150000Y-127000000D03*
X186690000Y-127000000D03*
X189230000Y-127000000D03*
X116586000Y-78740000D03*
X119126000Y-78740000D03*
X121666000Y-78740000D03*
X124206000Y-78740000D03*
X126746000Y-78740000D03*
X129286000Y-78740000D03*
X131826000Y-78740000D03*
X134366000Y-78740000D03*
X136906000Y-78740000D03*
X139446000Y-78740000D03*
X143510000Y-78740000D03*
X161290000Y-78740000D03*
X158750000Y-78740000D03*
X156210000Y-78740000D03*
X153670000Y-78740000D03*
X151130000Y-78740000D03*
X148590000Y-78740000D03*
X146050000Y-78740000D03*
X166370000Y-78740000D03*
X168910000Y-78740000D03*
X171450000Y-78740000D03*
X173990000Y-78740000D03*
X176530000Y-78740000D03*
X179070000Y-78740000D03*
X181610000Y-78740000D03*
X184150000Y-78740000D03*
X191770000Y-78232000D03*
X194310000Y-78232000D03*
D25*
X191262000Y-81280000D03*
X194818000Y-81280000D03*
X191262000Y-83820000D03*
X194818000Y-83820000D03*
X191262000Y-86360000D03*
X194818000Y-86360000D03*
X191262000Y-88900000D03*
X194818000Y-88900000D03*
X191262000Y-91440000D03*
X194818000Y-91440000D03*
X191262000Y-93980000D03*
X194818000Y-93980000D03*
X191262000Y-96520000D03*
X194818000Y-96520000D03*
X191262000Y-99060000D03*
X194818000Y-99060000D03*
X191262000Y-101600000D03*
X194818000Y-101600000D03*
X191262000Y-104140000D03*
X194818000Y-104140000D03*
X191262000Y-106680000D03*
X194818000Y-106680000D03*
X191262000Y-109220000D03*
X194818000Y-109220000D03*
X191262000Y-111760000D03*
X194818000Y-111760000D03*
X191262000Y-114300000D03*
X194818000Y-114300000D03*
X191262000Y-116840000D03*
X194818000Y-116840000D03*
X191262000Y-119380000D03*
X194818000Y-119380000D03*
X191262000Y-121920000D03*
X194818000Y-121920000D03*
D26*
X200660000Y-113385600D03*
X205740000Y-113385600D03*
D27*
X99695000Y-90170000D03*
X99695000Y-80264000D03*
D28*
X206375000Y-86106000D03*
X203835000Y-86106000D03*
X201295000Y-86106000D03*
D27*
X208788000Y-82931000D03*
X198882000Y-82931000D03*
D29*
X209829400Y-79375000D03*
X197840600Y-79375000D03*
D27*
X205359000Y-80137000D03*
X205359000Y-90043000D03*
D28*
X201295000Y-119634000D03*
X203835000Y-119634000D03*
X206375000Y-119634000D03*
D27*
X198882000Y-122809000D03*
X208788000Y-122809000D03*
D29*
X197840600Y-126365000D03*
X209829400Y-126365000D03*
D27*
X207518000Y-124079000D03*
X200152000Y-124079000D03*
D20*
X100711000Y-117475000D03*
X103759000Y-117475000D03*
X129159000Y-122555000D03*
X126111000Y-122555000D03*
D23*
X147955000Y-93345000D03*
X147955000Y-98425000D03*
X133985000Y-93345000D03*
X133985000Y-98425000D03*
X128905000Y-93345000D03*
X128905000Y-98425000D03*
X114935000Y-93345000D03*
X114935000Y-98425000D03*
D22*
X199390000Y-93980000D03*
X204470000Y-93980000D03*
D30*
X119380000Y-108839000D03*
X119380000Y-105791000D03*
X143510000Y-106934000D03*
X143510000Y-103886000D03*
D31*
X112395000Y-110535000D03*
X112395000Y-104095000D03*
D32*
X159981900Y-114935000D03*
X154978100Y-114935000D03*
X179108100Y-114935000D03*
X184111900Y-114935000D03*
D33*
X124565000Y-116205000D03*
X124565000Y-114935000D03*
X124565000Y-113665000D03*
X124565000Y-112395000D03*
X124565000Y-111125000D03*
X124565000Y-109855000D03*
X124565000Y-108585000D03*
X124565000Y-107315000D03*
X124565000Y-106045000D03*
X124565000Y-104775000D03*
X138325000Y-104775000D03*
X138325000Y-106045000D03*
X138325000Y-107315000D03*
X138325000Y-108585000D03*
X138325000Y-109855000D03*
X138325000Y-111125000D03*
X138325000Y-112395000D03*
X138325000Y-113665000D03*
X138325000Y-114935000D03*
X138325000Y-116205000D03*
D34*
X143510000Y-96910000D03*
X143510000Y-101210000D03*
X143510000Y-85480000D03*
X143510000Y-89780000D03*
X138430000Y-96910000D03*
X138430000Y-101210000D03*
X138430000Y-85480000D03*
X138430000Y-89780000D03*
X124460000Y-96910000D03*
X124460000Y-101210000D03*
X124460000Y-85480000D03*
X124460000Y-89780000D03*
X119380000Y-96910000D03*
X119380000Y-101210000D03*
X119380000Y-85480000D03*
X119380000Y-89780000D03*
D30*
X157480000Y-109474000D03*
X157480000Y-106426000D03*
X181610000Y-106934000D03*
X181610000Y-103886000D03*
D31*
X150495000Y-111170000D03*
X150495000Y-104730000D03*
D34*
X157480000Y-85480000D03*
X157480000Y-89780000D03*
X157480000Y-96910000D03*
X157480000Y-101210000D03*
X162560000Y-85480000D03*
X162560000Y-89780000D03*
X162560000Y-96910000D03*
X162560000Y-101210000D03*
X176530000Y-85480000D03*
X176530000Y-89780000D03*
X176530000Y-96910000D03*
X176530000Y-101210000D03*
X181610000Y-85480000D03*
X181610000Y-89780000D03*
X181610000Y-96910000D03*
X181610000Y-101210000D03*
D23*
X153035000Y-93345000D03*
X153035000Y-98425000D03*
X167005000Y-93345000D03*
X167005000Y-98425000D03*
X172085000Y-93345000D03*
X172085000Y-98425000D03*
X186055000Y-93345000D03*
X186055000Y-98425000D03*
D32*
X121881900Y-114935000D03*
X116878100Y-114935000D03*
X141008100Y-114935000D03*
X146011900Y-114935000D03*
D20*
X154559000Y-122555000D03*
X151511000Y-122555000D03*
X179959000Y-122555000D03*
X176911000Y-122555000D03*
D33*
X162665000Y-116205000D03*
X162665000Y-114935000D03*
X162665000Y-113665000D03*
X162665000Y-112395000D03*
X162665000Y-111125000D03*
X162665000Y-109855000D03*
X162665000Y-108585000D03*
X162665000Y-107315000D03*
X162665000Y-106045000D03*
X162665000Y-104775000D03*
X176425000Y-104775000D03*
X176425000Y-106045000D03*
X176425000Y-107315000D03*
X176425000Y-108585000D03*
X176425000Y-109855000D03*
X176425000Y-111125000D03*
X176425000Y-112395000D03*
X176425000Y-113665000D03*
X176425000Y-114935000D03*
X176425000Y-116205000D03*
D35*
X176530000Y-93345000D03*
D36*
X181610000Y-93345000D03*
D35*
X157480000Y-93345000D03*
D36*
X162560000Y-93345000D03*
D35*
X119380000Y-93345000D03*
D36*
X124460000Y-93345000D03*
D35*
X138430000Y-93345000D03*
D36*
X143510000Y-93345000D03*
M02*
